<svg width="116" height="110" viewBox="0 0 116 110" fill="none" xmlns="http://www.w3.org/2000/svg">
<path d="M0 80.5C3.08059e-05 47.7592 31.5001 59.5 44.119 0L115.119 0C114.786 10.1667 105.919 44.2 101.119 55C95.119 68.5 72.9569 100.685 58.5001 106C48.3914 109.717 32.6928 110 26.1928 107C22.6928 107 20.1928 106.5 17.1928 105C14.1928 103.5 10.6928 99 10.6928 99C10.6928 99 7.69275 98 5.19276 95.5C2.69276 93 -6.58629e-06 87.5 0 80.5Z" fill="#ECCB64"/>
<path d="M26.1927 105.5C18.1928 92.5 32.6928 89.5 37.1927 78" stroke="#6B1427" stroke-width="2" stroke-linecap="round"/>
<path d="M10.1927 97.5C2.19276 84.5 16.5569 81.5 21.0568 70" stroke="#6B1427" stroke-width="2" stroke-linecap="round"/>
</svg>
