<svg width="516" height="260" viewBox="0 0 516 260" fill="none" xmlns="http://www.w3.org/2000/svg">
<g clip-path="url(#clip0_59_492)">
<path d="M42.7236 251.549L63.8068 143.533L98.7658 221.568L134.022 143.533L153.006 251.549H137.347L127.093 190.993L97.8742 256.23L68.9522 190.844L58.4013 251.549H42.7422H42.7236Z" fill="#6B1427"/>
<path d="M211.742 188.132H226.509V251.549H211.742V244.917C205.259 252.44 197.271 253.499 192.757 253.499C173.179 253.499 162.034 237.227 162.034 219.748C162.034 199.11 176.188 186.46 192.925 186.46C197.587 186.46 205.723 187.668 211.76 195.507V188.132H211.742ZM177.08 220.063C177.08 231.06 184.008 240.255 194.708 240.255C204.051 240.255 212.633 233.475 212.633 220.212C212.633 206.949 204.051 199.723 194.708 199.723C184.008 199.723 177.08 208.77 177.08 220.063Z" fill="#6B1427"/>
<path d="M242.168 188.132H256.936V193.853C258.589 191.903 261.004 189.785 263.121 188.578C265.982 186.925 268.843 186.479 272.168 186.479C275.79 186.479 279.709 187.073 283.777 189.488L277.759 202.9C274.452 200.782 271.74 200.634 270.217 200.634C267.059 200.634 263.883 201.079 261.022 204.107C256.954 208.472 256.954 214.509 256.954 218.726V251.567H242.187V188.151L242.168 188.132Z" fill="#6B1427"/>
<path d="M336.606 207.562C329.826 200.931 323.195 199.723 318.681 199.723C311.752 199.723 307.387 202.584 304.675 205.296C301.963 208.008 299.251 212.838 299.251 219.915C299.251 226.992 302.111 232.268 304.972 235.128C308.278 238.286 312.959 240.255 318.383 240.255C324.402 240.255 331.498 237.84 336.606 232.119V248.54C332.984 250.806 327.114 253.518 317.325 253.518C306.774 253.518 299.251 250.509 293.214 244.174C288.7 239.512 284.167 231.97 284.167 220.379C284.167 208.788 289.146 200.485 293.808 195.822C298.786 190.844 306.755 186.479 319.275 186.479C324.105 186.479 329.826 187.241 336.606 190.993V207.562Z" fill="#6B1427"/>
<path d="M347.751 141.731L362.519 130.481V193.556C368.853 187.073 375.782 186.479 379.534 186.479C391.125 186.479 396.4 192.498 398.221 195.061C402.14 200.782 402.289 208.175 402.289 212.689V251.549H387.521V214.045C387.521 210.274 387.521 206.206 384.661 203.048C383.007 201.247 380.147 199.742 376.376 199.742C371.398 199.742 367.478 202.157 365.528 205.017C363.41 208.027 362.519 212.856 362.519 220.992V251.567H347.751V130.5V141.731Z" fill="#6B1427"/>
<path d="M473.08 237.078C470.368 241.908 466.449 246.125 462.38 248.688C457.254 251.995 450.474 253.499 443.694 253.499C435.26 253.499 428.332 251.4 422.295 245.363C416.276 239.345 412.951 230.596 412.951 221.104C412.951 211.612 416.425 201.822 423.038 195.042C428.313 189.767 435.242 186.46 444.288 186.46C454.374 186.46 460.857 190.826 464.628 194.745C472.764 203.178 473.507 214.937 473.507 221.568V223.37H428.016C428.313 227.884 430.282 233.01 433.44 236.168C436.914 239.642 441.13 240.236 444.734 240.236C448.802 240.236 451.811 239.326 454.82 237.078C457.384 235.128 459.334 232.565 460.69 230.15L473.043 237.078H473.08ZM458.48 211.333C457.885 207.859 456.213 204.85 453.966 202.751C452.015 200.949 448.839 199.129 444.028 199.129C438.901 199.129 435.595 201.246 433.626 203.197C431.508 205.147 429.855 208.175 429.112 211.333H458.48ZM463.439 156.795L439.941 178.491L431.805 173.365L449.879 149.867L463.439 156.795Z" fill="#6B1427"/>
<path d="M303.3 123.39H301.888V129.966H303.337C306.124 129.966 307.442 128.61 307.442 126.659C307.442 125.489 306.978 123.409 303.3 123.409V123.39Z" fill="#6B1427"/>
<path d="M275.344 126.641C275.344 123.669 272.539 123.39 270.96 123.39H269.864V130.077H270.867C271.759 130.077 275.344 129.984 275.344 126.641Z" fill="#6B1427"/>
<path d="M252.905 123C248.391 123 245.177 126.288 245.177 130.95C245.177 135.613 248.391 138.901 252.905 138.901C257.419 138.901 260.632 135.613 260.632 130.95C260.632 126.288 257.419 123 252.905 123Z" fill="#6B1427"/>
<path d="M340.321 108L175.179 108C162.919 108 153 117.938 153 130.179C153 142.42 162.938 152.358 175.179 152.358L340.321 152.358C352.581 152.358 362.5 142.42 362.5 130.179C362.5 117.938 352.562 108 340.321 108ZM204.859 142.903L189.572 126.891V141.603H186.358V119.127L201.646 135.139V120.557H204.859V142.903ZM220.89 123.566H212.494V128.897H220.649V131.925H212.494V138.557H220.89V141.584H209.262V120.52H220.89V123.548V123.566ZM240.041 125.461C237.701 123.343 235.528 123.12 234.32 123.12C229.751 123.12 226.649 126.501 226.649 131.145C226.649 135.789 229.862 139.04 234.357 139.04C236.884 139.04 238.834 137.739 240.041 136.606V140.433C237.924 141.696 235.713 142.012 234.264 142.012C230.438 142.012 228.042 140.284 226.816 139.114C224.345 136.811 223.435 134.117 223.435 131.164C223.435 127.281 225.051 124.588 226.816 122.916C228.989 120.873 231.515 120.167 234.432 120.167C236.363 120.167 238.221 120.52 240.06 121.69V125.48L240.041 125.461ZM252.673 142.012C246.357 142.012 241.713 137.275 241.713 131.089C241.713 124.904 246.357 120.167 252.673 120.167C258.988 120.167 263.632 124.904 263.632 131.089C263.632 137.275 258.988 142.012 252.673 142.012ZM276.226 141.603L270.189 132.984H269.614V141.603H266.4V120.538H270.152C272.716 120.538 274.35 120.854 275.706 121.764C278.01 123.306 278.195 125.814 278.195 126.724C278.195 129.752 276.338 131.962 273.514 132.594L280.09 141.584H276.208L276.226 141.603ZM294.245 123.566H285.848V128.897H294.003V131.925H285.848V138.557H294.245V141.584H282.616V120.52H294.245V123.548V123.566ZM308.251 131.405C306.579 132.817 304.647 133.04 303.105 133.04H301.656V141.603H298.443V120.538H303.087C304.387 120.538 306.189 120.668 307.693 121.672C309.458 122.842 310.312 124.867 310.312 126.78C310.312 128.006 309.997 129.901 308.269 131.387L308.251 131.405ZM325.953 141.603L323.742 136.513H314.752L312.449 141.603H308.975L319.452 119.312L329.427 141.603H325.953Z" fill="#6B1427"/>
<path d="M316.303 133.365H322.693L319.554 126.232L316.303 133.365Z" fill="#6B1427"/>
<path d="M515.71 175.482L459.018 96.8338C458.461 96.0536 457.588 95.5335 456.603 95.6264C365.936 97.5025 265.759 43.9123 259.815 40.6802V30.2408L305.511 16.7736C306.105 16.6064 306.514 16.0491 306.514 15.4361C306.514 14.8232 306.105 14.2659 305.511 14.0987L257.809 0.0556661C257.382 -0.0743621 256.936 0.0185152 256.583 0.278572C256.23 0.538628 256.026 0.965864 256.026 1.3931V29.4792C256.026 29.5907 256.081 29.7021 256.1 29.8136V40.8474C247.481 45.4912 148.957 97.4097 59.6457 95.6078C58.6426 95.5335 57.7882 96.0351 57.2309 96.8152L0.538597 175.482C-0.390176 176.783 -0.111544 178.584 1.18874 179.532C2.48902 180.461 4.29084 180.163 5.23819 178.882L61.0389 101.459C62.172 101.459 63.2865 101.478 64.4196 101.478C151.687 101.478 245.568 53.0515 258.125 46.3643C270.682 53.0515 364.543 101.478 451.829 101.478C452.944 101.478 454.077 101.478 455.21 101.459L511.011 178.882C511.568 179.662 512.46 180.089 513.37 180.089C513.964 180.089 514.54 179.903 515.06 179.55C516.361 178.622 516.658 176.801 515.71 175.501V175.482Z" fill="#6B1427"/>
</g>
<defs>
<clipPath id="clip0_59_492">
<rect width="516" height="260" fill="white"/>
</clipPath>
</defs>
</svg>
