<svg width="380" height="119" viewBox="0 0 380 119" fill="none" xmlns="http://www.w3.org/2000/svg">
<g clip-path="url(#clip0_59_690)">
<path fill-rule="evenodd" clip-rule="evenodd" d="M47.3685 87.0908C46.7773 87.8291 46.6698 88.9443 46.5392 90.1287C46.2782 92.5513 46.2398 95.3969 47 97.4426C47.1151 97.7426 47.3224 98.1117 47.5528 98.4117C48.144 99.1807 49.0655 100.15 50.033 100.573C50.4706 100.765 51.0312 100.842 51.5456 101.034C52.0217 101.219 52.8279 101.634 53.0122 101.911C53.2656 102.296 53.1581 103.134 53.2426 103.749C53.2886 104.08 53.4038 104.203 53.3347 104.58C53.2886 104.841 53.1197 104.926 52.9661 105.226C52.7665 105.618 52.7895 105.918 52.5054 106.241C52.1061 106.695 51.1617 107.441 50.8085 107.525C50.3094 107.648 49.3803 107.587 48.6508 107.525C47.4069 107.418 45.9326 107.225 45.0266 106.787C44.7194 106.641 44.4507 106.264 44.1512 106.095C43.3834 105.656 42.6079 105.541 42.5925 104.487C42.1472 103.595 41.4484 102.265 41.1259 101.134C41.0107 100.727 41.0184 100.288 40.8495 99.9345C40.765 99.7499 40.5347 99.573 40.4809 99.3807C40.335 98.827 40.4349 98.1271 40.3427 97.4965C40.2506 96.8735 40.2813 96.2198 40.2045 95.6122C40.1661 95.3123 40.0049 95.02 39.9741 94.7355C39.905 94.0587 39.7745 93.3896 39.8359 92.6666C39.8743 92.2052 40.1124 91.736 40.1124 91.2438C40.1124 90.6593 39.9818 90.0748 39.9281 89.498C39.859 88.7059 39.9818 87.8983 39.9741 87.1062C39.9741 86.6909 39.8129 86.2986 39.7438 85.8679C39.6363 85.1758 39.7438 84.5451 39.4674 84.0298C38.8992 84.0068 38.4385 84.2606 37.8626 84.3067C37.3404 84.3452 36.8413 84.2144 36.5726 84.4913C36.4651 84.6067 36.2885 85.245 36.2501 85.5526C36.1196 86.7216 36.2194 88.0291 36.1119 89.3673C35.9967 90.767 36.0044 92.2436 36.1119 93.5511C36.181 94.374 36.2654 95.1431 36.204 95.9429C36.1579 96.489 36.0197 97.0196 35.9737 97.5503C35.9199 98.1271 35.9737 98.6808 35.9276 99.25C35.9046 99.5268 35.7587 99.8422 35.6972 100.173C35.6358 100.488 35.6358 100.865 35.559 101.18C35.3901 101.949 34.8987 102.765 34.6837 103.526C34.5301 104.072 34.5301 104.564 34.3612 104.949C34.246 105.21 33.9465 105.526 33.7162 105.872C33.4858 106.21 33.2094 106.625 32.933 106.795C32.48 107.064 31.3205 107.679 30.6371 107.756C30.3607 107.787 30.0612 107.733 29.7618 107.756C29.1321 107.802 28.0802 108.048 27.1895 107.941C26.0377 107.802 25.0856 106.918 24.2947 106.287C24.0797 106.118 23.8186 105.941 23.7419 105.779C23.5653 105.403 23.5269 104.195 23.6497 103.757C23.7419 103.426 24.1181 102.98 24.3868 102.742C24.9551 102.249 25.8304 101.942 26.5906 101.457C27.3507 100.973 27.7884 100.288 28.3797 99.8037C28.5102 99.1654 28.8941 98.7885 29.1629 98.2886C29.6543 96.5889 29.4546 93.9971 29.1629 92.0821C29.0938 91.6361 29.1168 91.1592 29.0246 90.7978C28.9555 90.4978 28.6638 90.2517 28.5639 89.9672C28.4334 89.598 28.4104 89.0981 28.2875 88.6828C28.203 88.3828 28.0034 88.1367 27.965 87.8983C27.8882 87.4523 28.0495 86.7908 27.965 86.3832C27.8806 85.9602 27.5197 85.6372 27.4582 85.2373C27.4275 85.0296 27.4736 84.8066 27.4582 84.5913C27.4198 84.1529 27.3047 83.8068 27.2279 83.2146C27.0359 81.761 26.1299 80.3459 25.7613 78.7539C25.5617 77.8849 25.3467 77.1389 25.1624 76.2237C25.0242 75.5238 24.7401 74.8778 24.5635 74.2471C24.502 74.0164 24.5097 73.7703 24.4252 73.5549C24.3408 73.3319 24.0951 73.1166 24.0567 72.8628C23.9722 72.3167 23.8801 71.6707 23.7342 71.0247C23.6036 70.4248 23.3272 69.8403 23.2735 69.3711C23.1199 67.9868 23.189 66.5486 22.997 65.0951C22.9587 64.8182 22.8281 64.549 22.8128 64.2644C22.782 63.4492 23.189 62.3648 23.0431 61.4111C22.9663 60.942 22.6976 60.5113 22.7206 60.0729C22.7283 59.8576 22.8895 59.6423 22.9049 59.4269C22.9203 59.227 22.8128 59.027 22.8128 58.827C22.8128 58.504 22.974 58.1733 22.997 57.858C23.0201 57.5657 22.9433 57.2735 22.951 56.9812C22.951 56.7198 23.0661 56.4736 23.0892 56.1968C23.1276 55.743 23.0431 55.2662 23.0892 54.8201C23.1122 54.5894 23.212 54.351 23.2735 54.0818C23.3272 53.8357 23.3119 53.5204 23.3656 53.2973C23.4501 52.9589 23.6651 52.659 23.7342 52.3283C23.811 51.9822 23.7572 51.6207 23.8263 51.267C23.9185 50.8209 24.2717 50.4133 24.1949 49.9365C22.3137 50.2441 20.0792 50.4594 17.6759 50.3056C14.6198 50.1057 12.0091 48.9136 10.3276 47.4523C9.64418 47.8215 9.19115 48.5137 8.63062 49.0597C8.30044 49.375 7.93956 49.6365 7.80134 50.1595C7.30224 50.4287 6.89528 50.844 6.38083 51.3131C6.06601 51.5977 5.79726 52.0822 5.45941 51.913C4.77603 51.5592 5.81262 50.844 5.96619 50.5825C7.56331 49.6827 8.53848 48.1599 9.86685 46.9986C9.56739 46.5756 9.17579 46.2449 8.85329 45.8449C7.80902 46.5602 6.55743 47.3062 5.54387 48.1906C5.20602 48.4829 4.9296 48.8367 4.57639 49.0674C4.37675 49.1981 4.12336 49.252 3.93139 49.3904C3.65497 49.5904 3.40158 50.0595 3.05605 50.221C2.94087 50.2749 2.64909 50.3364 2.41106 50.4056C2.12695 50.4902 1.98106 50.5979 1.85821 50.4056C1.58946 49.9826 2.90248 49.1828 3.27872 48.9366C4.54567 48.0984 5.6053 47.5138 6.81082 46.591C7.02582 46.4294 7.27921 46.1833 7.6401 45.9449C7.93188 45.7527 8.43098 45.5219 8.46937 45.2989C8.5308 44.8913 7.88581 44.3375 7.77831 44.0145C7.33296 44.0991 6.95671 44.4144 6.58047 44.6606C5.84333 45.1528 5.1062 45.6065 4.37674 46.1295C4.00818 46.391 3.72407 46.7678 3.36319 46.9601C3.0023 47.1524 2.27284 47.4139 1.85053 47.0524C1.90428 46.6063 2.42641 46.191 2.86409 45.9449C3.44765 45.6142 4.07728 45.3066 4.83745 45.1143C5.72048 44.5606 6.59582 43.9915 7.45581 43.4146C7.37135 42.5994 6.93368 41.8611 6.81082 40.8844C6.711 40.0691 6.91064 39.2001 6.81082 38.3541C6.76475 38.0003 6.5344 37.6465 6.48832 37.2928C6.28868 36.8159 5.9278 36.4698 5.70512 36.0084C5.63601 35.87 5.63601 35.7008 5.56691 35.5469C5.35959 35.1086 5.02174 34.6317 4.73763 34.1703C4.50728 33.7934 4.15407 33.2551 3.86229 32.8859C3.73175 32.7167 3.48604 32.609 3.35551 32.4245C3.20194 32.2091 3.04837 31.8477 2.8948 31.5477C2.74891 31.2708 2.64141 30.9555 2.48016 30.671C2.16534 30.1172 1.68928 29.6558 1.37446 29.1559C1.15946 28.8175 1.05197 28.4099 0.775541 28.0945C0.514473 27.7946 0.0307289 27.6023 -0.0537343 27.2639C-0.145876 26.8871 1.49733e-05 26.6256 0.222691 26.3872C0.890718 26.4948 1.505 26.641 2.14999 26.7563C2.76427 26.8717 3.25569 27.1947 3.80086 27.3562C4.12336 27.4485 4.45353 27.4716 4.81442 27.5869C5.1062 27.6792 5.42102 27.7792 5.73583 27.8638C6.41922 28.0484 7.12564 28.0868 7.80134 28.233C8.30812 28.3406 9.69025 28.8175 10.4658 28.6483C10.6193 28.6098 10.8036 28.4252 11.0647 28.1868C11.6636 27.6408 12.1474 27.2255 12.8077 26.7179C13.5832 26.118 14.5814 25.5873 15.5643 25.0644C16.0634 24.7952 16.478 24.4183 16.9387 24.2337C17.5146 24.0107 18.4975 24.0107 18.7739 23.5416C18.9505 23.2493 19.1041 22.1495 19.1425 21.7035C19.1732 21.2728 19.1041 20.8036 19.1425 20.373C19.2116 19.4731 19.4342 18.8579 19.511 18.1195C19.5648 17.5889 19.4649 17.0198 19.511 16.466C19.5724 15.7354 19.6339 14.9663 19.6953 14.2588C19.749 13.6204 19.8258 12.9744 19.9717 12.4668C20.1867 11.6746 20.6167 10.2672 21.3922 10.1211C21.5535 10.0903 21.6072 10.1442 21.853 10.1211C22.2292 10.6748 22.8819 10.9363 23.2735 11.4516C23.8647 12.2361 24.3254 13.2436 24.9243 14.0742C25.1163 14.3357 25.4081 14.5433 25.5693 14.8125C25.7843 15.1663 25.9379 15.5893 26.1222 15.9661C26.3141 16.3583 26.5522 16.6737 26.7211 17.0659C27.1434 18.0657 27.5581 19.1347 28.1877 19.9653C28.3336 20.1576 28.418 20.396 28.5563 20.5652C28.6714 20.7114 28.848 20.819 28.9709 20.9805C29.3164 21.4266 29.708 21.9034 30.2532 22.1803C31.7121 22.4802 32.9253 23.0263 33.6548 24.0645C35.1597 24.6721 35.8585 26.0949 36.7799 27.287C36.8797 28.2714 37.4326 28.8252 37.7474 29.7711C37.8011 29.9326 37.9317 30.0711 37.9777 30.2326C38.0622 30.5556 38.0085 31.0247 38.116 31.4247C38.2465 31.9169 38.5229 32.3322 38.5767 32.7552C38.6995 33.8165 38.5306 34.8778 38.2081 35.8392C38.162 37.3004 39.0911 37.7773 39.905 38.3695C40.7343 38.5925 41.5175 38.977 42.247 39.4693C42.6002 39.7077 42.8996 40.0461 43.2605 40.2999C43.6291 40.5614 44.0591 40.7382 44.4123 40.992C44.9882 41.4073 45.495 41.9534 45.971 42.5533C46.3242 43.007 46.5546 43.1685 46.8464 43.6992C47.046 44.0684 47.2149 44.476 47.4914 44.8451C47.6219 45.022 47.8215 45.1374 47.906 45.3066C48.2131 45.8911 48.4051 46.5756 48.6892 47.1908C48.9426 47.7446 49.2114 48.2829 49.4724 48.8444C49.4187 50.0749 50.294 50.8363 50.4399 51.9745C50.486 52.3206 50.4092 52.6821 50.4399 53.0359C50.4937 53.6127 50.7471 54.1587 50.8546 54.7355C50.9006 54.9893 50.8622 55.2585 50.9006 55.52C51.0235 56.3506 51.3306 57.1658 51.4074 58.0041C51.4381 58.3348 51.3844 58.6886 51.4074 59.0193C51.5226 60.7651 51.7299 62.5571 51.4995 64.4029C51.4304 64.9489 51.1924 65.941 51.177 66.6101C51.1617 67.3715 51.3536 68.1406 51.2692 68.9097C51.2078 69.4711 51.0158 70.0018 51.0388 70.6094C51.0542 71.1093 51.2385 71.6092 51.177 72.1245C51.1233 72.5782 50.9774 73.0704 50.9006 73.5473C50.8162 74.0549 50.8162 74.5855 50.7163 75.0623C50.5628 75.8237 50.2403 76.6159 50.1635 77.4542C50.1405 77.6926 50.1788 77.9464 50.1635 78.1925C50.0944 79.1077 49.7488 79.9768 49.7949 80.6766C49.8487 81.3842 50.2556 81.961 50.486 82.607C50.724 83.2838 50.8776 83.9299 51.177 84.4913C51.2385 84.6759 51.5379 84.622 51.6378 84.7682C51.8988 85.8141 52.8202 86.314 53.4268 87.0677C53.5881 87.2677 53.6802 87.5138 53.8415 87.7137C54.2945 88.2829 54.8704 88.7135 55.262 89.3211C56.575 89.8595 57.3966 90.8901 58.748 91.39C58.9861 91.9129 59.5159 92.159 60.038 92.4051C60.1993 92.9589 60.6216 93.3665 60.5448 94.0587C60.4987 94.4817 59.9382 95.22 59.6234 95.3892C59.1473 95.6507 58.6252 95.8737 58.0646 95.9429C55.5538 96.2352 53.1043 94.5663 51.776 93.6434C51.7069 93.4665 51.6301 93.305 51.5456 93.1358C50.8699 92.5743 50.4322 91.7668 49.6644 91.2977C49.2037 90.6824 48.7737 90.0902 48.336 89.4134C48.2055 89.2135 47.9905 89.0289 47.8753 88.8135C47.6065 88.3059 47.6603 87.6599 47.3224 87.1139M48.3821 48.4521C47.9674 47.4139 47.0614 46.4064 46.593 45.4143C46.4394 45.0989 46.3626 44.8374 46.1784 44.5836C45.8021 44.053 45.4335 43.6915 44.9805 43.1147C44.6196 42.6533 44.2741 42.1764 43.967 42.0072C43.7289 41.8765 43.583 41.938 43.368 41.8226C43.0148 41.6381 42.7998 41.2228 42.4543 40.992C42.293 40.8844 42.0473 40.8767 41.8554 40.7613C41.6788 40.6536 41.5789 40.4383 41.3947 40.346C40.9647 40.123 40.2813 39.9922 39.6517 39.9307C37.8319 39.7461 36.2424 39.8769 34.9678 40.346C34.8603 40.3845 34.5762 40.5613 34.1385 40.6229C32.5337 40.8613 33.8851 39.3001 34.2307 39.0616C34.7758 38.6925 35.4592 38.4541 35.8815 38.231C36.3115 37.485 36.4497 36.6852 36.7569 35.6085C36.9642 34.8701 37.2406 34.1011 37.2176 33.4473C37.1792 32.3629 36.7722 31.3862 36.7108 30.4095C36.4267 30.0557 36.4421 29.6865 36.2962 29.3481C36.1349 28.979 35.8278 28.7021 35.6512 28.333C35.5744 28.1714 35.5513 27.9638 35.4669 27.7792C35.3056 27.4331 34.9447 26.9409 34.6837 26.6333C33.9082 25.7104 32.5107 24.7875 31.5585 23.9184C30.8137 23.2339 30.1227 22.9186 29.2166 22.5418C28.8404 22.3803 28.3566 22.2034 28.0188 21.9419C27.6963 21.6958 27.1588 20.9267 26.9131 20.3345C26.8132 20.0884 26.8209 19.7961 26.7288 19.5962C26.6443 19.4039 26.4677 19.227 26.3602 18.9963C26.0531 18.3349 25.7383 17.4274 25.3006 16.7429C25.1701 16.5429 24.9627 16.3968 24.8399 16.1892C24.6633 15.8969 24.5481 15.5662 24.3792 15.2663C24.2333 15.0125 24.0797 14.5972 23.9185 14.3434C23.8263 14.1895 23.5576 14.0511 23.4578 13.8819C23.3579 13.7127 23.3656 13.4897 23.2735 13.3282C22.997 12.8436 22.306 12.1438 21.899 12.1284C21.0851 12.1053 20.9392 12.8667 20.7473 13.5973C20.4862 14.6125 20.4324 15.5047 20.3326 16.6814C20.2865 17.2197 20.3787 17.8042 20.3326 18.3349C20.2789 18.9502 20.0639 19.5347 20.0562 19.9423C20.0485 21.2036 21.0237 23.6339 19.918 24.3568C19.6416 24.5337 19.1962 24.5721 18.8583 24.6798C18.4898 24.7952 18.0828 24.849 17.7603 24.9567C16.9464 25.2336 16.0557 25.895 15.188 26.3795C14.3204 26.8717 13.3606 27.387 12.754 27.9869C12.2625 28.4714 11.5561 29.3789 11.2874 30.0095C11.1799 30.271 11.1492 30.6633 10.9188 30.8863C10.7422 31.0555 9.26025 31.7015 9.08365 30.9786C8.93008 30.3556 9.61346 30.3864 9.54436 29.7404C8.4233 29.6096 7.40206 29.425 6.32708 29.1866C6.07369 29.1328 5.85869 28.9867 5.58994 28.9098C4.95263 28.7252 4.22318 28.6406 3.61658 28.4022C3.03301 28.1714 2.52623 27.6715 1.82749 27.8484C1.94267 28.7559 2.72587 29.3328 3.16355 30.1018C3.48604 30.671 3.73175 31.2632 4.03889 31.8477C4.91424 32.7552 5.65905 33.9011 6.28868 35.1163C6.75707 36.0315 7.48653 36.8698 7.62474 37.9234C7.73992 38.8309 7.5326 39.6923 7.62474 40.546C7.71688 41.3996 8.05473 42.0995 8.22366 42.8917C8.63062 42.7994 8.89169 42.6456 9.32936 42.4302C9.58275 42.3072 10.3813 41.9688 10.3429 42.5225C10.3276 42.7917 9.72096 42.8763 9.46757 42.984C9.07597 43.1532 8.79955 43.2608 8.59223 43.4916C8.75347 44.0068 8.99151 44.4375 9.32936 44.7759C9.70561 44.7221 10.1433 44.0684 10.4735 44.5452C10.4427 45.0682 9.8131 44.9836 9.64418 45.3758C9.88989 45.7527 10.1356 46.1372 10.6117 46.2987C10.9111 46.168 10.6501 45.7527 10.842 45.5142C11.249 45.545 11.9477 44.8221 12.0783 45.4219C12.1704 45.8142 10.9649 46.4602 10.9726 46.7986C11.5715 47.3754 12.4238 48.0753 13.4527 48.3598C13.7445 48.4444 14.0747 48.4598 14.3741 48.5444C15.7562 48.9366 17.3918 49.4596 19.1501 49.3289C21.3692 49.1597 23.4424 48.8213 25.1163 48.2214C25.5233 47.4446 25.9609 47.1524 26.5368 46.3833C26.7749 46.068 27.2663 45.2066 27.6425 45.2374C27.75 45.2451 27.9804 45.4373 28.0111 45.6065C28.0955 46.0757 27.4429 46.5217 27.274 46.8447C27.0282 47.3216 26.9515 47.7753 26.7211 48.3598C26.4524 49.0597 25.984 49.6057 25.8458 50.2902C25.769 50.6594 25.8458 51.0286 25.7536 51.39C25.6077 52.0053 25.3006 52.5744 25.1547 53.182C24.9781 53.9203 24.9474 54.4587 24.8783 55.2508C24.7938 56.1814 24.5865 57.0966 24.5097 58.058C24.4252 59.0962 24.3024 60.196 24.2256 61.2881C24.1565 62.3033 24.2256 63.2646 24.1411 64.226C24.049 65.3181 24.0029 66.4102 24.049 67.4946C24.1104 69.0174 24.4943 70.3171 24.8322 71.6784C24.9474 72.1398 25.2161 72.5551 25.2468 72.9704C25.2622 73.2166 25.1547 73.5934 25.2008 73.8933C25.3159 74.6547 25.8841 75.3777 26.1222 76.1929C26.3295 76.8928 26.4447 77.6234 26.7211 78.2617C26.8056 78.4694 26.9745 78.6386 27.0436 78.8616C27.2125 79.4307 27.1895 80.046 27.4122 80.6074C27.489 80.8074 27.6579 80.9689 27.7347 81.1612C27.9036 81.5919 27.9113 82.1379 28.0572 82.6301C28.4027 83.8145 29.0784 85.022 29.2089 86.2602C29.2627 86.8139 29.3471 87.2677 29.3471 87.683C29.3471 87.906 29.2396 88.1444 29.255 88.3752C29.278 88.7597 29.4393 89.1904 29.4854 89.6134C29.6236 90.8747 29.923 91.9514 29.9921 93.1127C30.0152 93.5818 29.9537 94.074 29.9921 94.5355C30.0536 95.2507 30.1687 95.9968 30.0843 96.7428C30.0382 97.1581 29.8386 97.5964 29.8078 98.0271C29.7925 98.2809 29.8923 98.5501 29.8539 98.8116C29.8386 98.95 29.7157 99.1115 29.6696 99.3192C29.6236 99.5345 29.685 99.7576 29.6236 99.9191C29.47 100.319 29.0323 100.565 28.6561 100.888C28.3029 101.188 27.9573 101.611 27.6502 101.811C26.6827 102.426 25.4388 102.649 24.9858 103.557C24.6249 104.287 24.694 105.364 25.17 106.087C25.5463 106.649 26.6213 107.11 27.1434 107.187C27.4582 107.233 27.7961 107.125 28.157 107.095C28.8327 107.033 29.1475 106.987 29.7157 106.956C29.708 106.956 29.7848 106.918 29.8078 106.91C30.5143 106.725 31.0902 106.164 31.643 105.718C32.526 105.003 32.7564 104.71 33.386 103.926C33.8621 103.334 34.1385 102.911 34.4456 102.18C34.699 101.565 34.6837 101.173 34.7681 100.48C34.8603 99.7576 35.129 99.1577 35.2749 98.3655C35.3901 97.7118 35.4285 96.9581 35.5053 96.2506C35.5821 95.5122 35.6051 94.6509 35.5053 93.951C35.4746 93.7357 35.321 93.4972 35.2749 93.2127C35.2212 92.8358 35.321 92.3205 35.2749 91.836C35.2519 91.5668 35.0753 91.2592 35.0446 90.9131C34.9908 90.3363 35.083 89.6749 34.9985 89.075C34.9447 88.652 34.7297 88.1598 34.676 87.5599C34.6223 86.9524 34.5762 86.4371 34.5378 85.8603C34.4764 85.0066 34.4994 83.0147 34.7221 82.2686C35.0446 81.1919 35.6205 82.2533 35.9199 82.684C36.1656 83.0377 36.419 83.453 36.7953 83.5607C38.2158 83.9683 39.7361 83.0993 40.2352 82.4148C40.074 81.9379 40.4732 81.1535 40.9723 81.3534C41.4331 81.538 40.9109 82.4763 40.8802 82.6378C40.8188 83.0147 40.9186 83.5069 40.8802 83.9683C40.8495 84.3375 40.7497 84.6836 40.7881 85.0296C40.8418 85.4988 41.0261 85.9679 41.0184 86.4986C41.0107 87.037 40.8956 87.6215 40.8802 88.1983C40.8649 88.8135 40.934 89.4365 40.8802 90.0364C40.8341 90.5593 40.7343 90.9516 40.7881 91.413C40.9647 92.8974 41.2411 95.1892 41.1106 96.7966C41.0875 97.0735 40.9877 97.3503 41.0184 97.6272C41.0722 98.104 41.3332 98.3578 41.387 98.7731C41.4177 99.0192 41.3563 99.2807 41.387 99.5115C41.5252 100.58 42.032 101.688 42.4005 102.503C42.5541 102.849 42.6309 103.226 42.7691 103.518C43.1454 104.303 43.9746 104.749 44.7886 105.264C45.3644 105.626 46.0325 106.033 46.6237 106.187C47.6142 106.441 49.0962 106.11 50.4322 106.326C51.0158 105.972 51.9679 105.764 52.2674 105.041C52.3442 104.864 52.5285 104.011 52.4977 103.803C52.444 103.426 51.9449 103.188 52.037 102.657C51.2769 102.165 50.2172 101.965 49.3265 101.596C48.7276 101.103 48.3206 100.427 47.3992 100.265C46.808 99.796 46.4855 99.0654 46.5239 97.9656C45.7253 95.9814 45.6255 93.4434 45.8328 90.9285C45.8482 90.7132 45.9403 90.5055 45.925 90.2825C45.9096 90.0133 45.7637 89.7595 45.7407 89.498C45.6793 88.7751 46.0555 88.106 45.8328 87.4292C45.9864 86.5909 46.5623 85.8526 46.4778 84.8989C46.4625 84.7066 46.355 84.5297 46.2935 84.299C46.2321 84.076 46.2475 83.8453 46.2014 83.6068C46.163 83.4069 46.0017 83.2223 45.971 83.007C45.9403 82.7916 46.0094 82.5455 45.971 82.3148C45.8635 81.6457 45.495 80.9458 45.3721 80.1998C45.2339 79.3538 45.2416 78.4463 45.0957 77.5772C44.8346 76.0622 44.3432 74.5548 43.99 73.255C43.798 72.5475 43.8134 71.8091 43.6675 71.0939C43.6291 70.917 43.4602 70.6324 43.3911 70.3556C43.322 70.0479 43.3373 69.748 43.2529 69.5711C43.1607 69.3788 42.915 69.3019 42.7921 69.0635C42.6693 68.8251 42.6846 68.3867 42.5618 68.0483C42.4927 67.8714 42.3238 67.7791 42.1932 67.5407C42.0857 67.3562 42.0704 67.0793 41.9629 66.8947C41.6634 66.3794 41.1643 65.7642 40.9032 65.518C40.3427 64.972 39.0911 64.4798 38.9759 63.9568C38.8761 63.5261 39.0451 62.9878 39.4367 62.9416C39.9281 62.8878 40.2583 63.4954 40.5884 63.9107C40.9647 64.3798 41.3332 64.7413 41.602 65.0566C42.6539 66.3102 43.4371 67.7407 43.8978 69.5173C44.1973 70.6709 44.2664 71.886 44.5889 73.1012C44.7041 73.555 44.9268 73.9626 45.0496 74.3856C45.1955 74.8855 45.2185 75.3854 45.326 75.9007C45.4335 76.3852 45.6101 76.8466 45.6946 77.3235C45.8635 78.2925 45.756 79.4692 46.0632 80.269C46.1476 80.4844 46.3396 80.5459 46.4317 80.8228C46.6083 81.3688 46.4855 81.8457 46.616 82.384C46.6698 82.6147 46.8541 82.8455 46.9385 83.0762C47.1996 83.8453 47.3532 84.5067 47.5374 85.1912C48.2208 87.7983 49.7335 89.6595 51.2999 91.3515C51.5917 91.6668 51.7299 92.0898 51.991 92.3667C52.1829 92.5666 52.5515 92.6974 52.8202 92.9204C52.9661 93.0358 53.0583 93.2281 53.1888 93.3357C53.3424 93.4665 53.7033 93.5741 53.9259 93.751C54.1256 93.9125 54.2254 94.0817 54.3866 94.1663C54.7475 94.3509 55.3541 94.574 55.8993 94.6278C57.3352 94.7739 60.0303 94.9739 59.6157 93.2511C59.4007 92.3513 57.8343 92.359 57.1355 91.9206C56.8284 91.7283 56.6057 91.3361 56.2602 91.1362C56.0145 90.9977 55.7381 90.9593 55.5231 90.8131C55.1391 90.544 54.7782 89.9672 54.379 89.6211C53.949 89.2442 53.4652 88.8827 53.0506 88.3828C52.5208 87.7522 51.8604 87.3369 51.7606 86.5447C50.8546 85.568 50.3094 84.2221 49.9254 82.7301C49.3649 81.4842 48.9042 80.1383 48.6892 78.6847C48.5664 77.8772 48.3667 76.9543 48.2746 76.1083C48.2439 75.8084 48.2976 75.5238 48.2285 75.2315C48.1748 75.0008 48.0135 74.8086 47.9521 74.5855C47.8062 74.0395 47.7985 73.4165 47.6757 72.8397C47.5528 72.2706 47.4299 71.7015 47.3071 71.14C47.0691 70.0172 46.6851 68.9174 46.4778 67.8714C46.3396 67.187 46.186 66.8716 46.0171 66.3563C45.6101 65.1335 45.3414 63.8491 44.8653 62.8109C44.6657 62.3802 44.5275 61.9341 44.3586 61.5727C43.6445 60.0191 42.2623 58.9809 41.2795 57.8042C41.0568 57.4965 40.6499 56.7736 41.1413 56.4275C42.3929 56.4967 42.8382 57.3119 43.5293 57.9887C43.8211 58.281 44.182 58.5656 44.4046 58.8194C45.2032 59.7499 45.4335 61.4342 45.8251 62.8647C46.3857 63.7184 46.616 64.8797 46.9232 65.9487C47.0153 66.2717 47.2226 66.5486 47.2917 66.8716C47.3762 67.2562 47.3071 67.7099 47.3839 68.1098C47.4223 68.3252 47.5374 68.5098 47.5682 68.7097C47.714 69.6557 47.8369 70.6401 48.0289 71.6092C48.121 72.0629 48.2131 72.5398 48.3053 72.9858C48.4051 73.4857 48.4128 74.001 48.5356 74.4548C48.5894 74.6778 48.7583 74.8778 48.8121 75.1008C49.004 75.8622 48.7967 76.7082 49.2267 77.4004C49.4187 77.1004 49.4571 76.6467 49.6874 76.3852C49.5722 75.47 50.0713 74.6317 50.2403 73.7165C50.3478 73.1243 50.3094 72.5013 50.3785 71.8784C50.4015 71.6707 50.509 71.4554 50.5167 71.2323C50.5244 70.9708 50.4246 70.717 50.4246 70.4479C50.4246 69.9249 50.5858 69.3558 50.6549 68.7943C50.7547 67.9099 50.5244 67.0101 50.6088 66.2179C50.7931 64.4183 51.1156 62.5648 50.9774 60.8343C50.9006 59.9114 50.939 58.9962 50.8392 58.0733C50.747 57.2274 50.3938 56.3891 50.2863 55.4969C50.2633 55.2662 50.3171 55.0739 50.2863 54.8509C50.2403 54.4817 50.0253 54.1279 49.9178 53.7511C49.8256 53.4204 49.8563 53.0512 49.7796 52.7359C49.5569 51.7899 49.1422 50.9055 49.0424 49.9749C48.6508 49.475 48.5894 48.9982 48.3514 48.4137" fill="white"/>
<path fill-rule="evenodd" clip-rule="evenodd" d="M49.1996 49.832C49.2917 50.7626 49.714 51.6471 49.9367 52.593C50.0135 52.9084 49.9828 53.2698 50.0749 53.6082C50.1824 53.9851 50.3974 54.3465 50.4435 54.7157C50.4742 54.931 50.4205 55.131 50.4435 55.3617C50.5433 56.2539 50.9042 57.0922 50.9963 57.9381C51.0962 58.861 51.0578 59.7763 51.1346 60.6992C51.2728 62.4219 50.9503 64.2831 50.766 66.0827C50.6815 66.8749 50.9119 67.7747 50.8121 68.6591C50.7506 69.2283 50.5894 69.7897 50.5817 70.3127C50.5817 70.5818 50.6892 70.8356 50.6739 71.0971C50.6662 71.3202 50.5587 71.5355 50.5356 71.7432C50.4665 72.3661 50.5049 72.9891 50.3974 73.5813C50.2285 74.4965 49.7294 75.3348 49.8446 76.25C49.6142 76.5115 49.5758 76.9652 49.3839 77.2652C48.9539 76.573 49.1612 75.7347 48.9692 74.9656C48.9155 74.7426 48.7542 74.5426 48.6928 74.3196C48.5776 73.8658 48.5623 73.3429 48.4624 72.8506C48.3703 72.3969 48.2782 71.9277 48.186 71.474C47.9941 70.5049 47.8712 69.5282 47.7253 68.5745C47.6946 68.3746 47.5794 68.19 47.541 67.9747C47.4719 67.567 47.5334 67.121 47.4489 66.7364C47.3798 66.4211 47.1725 66.1366 47.0803 65.8135C46.7732 64.7445 46.5352 63.5832 45.9823 62.7295C45.583 61.2913 45.3527 59.6071 44.5618 58.6842C44.3468 58.4304 43.9782 58.1458 43.6864 57.8535C42.9954 57.1691 42.55 56.3615 41.2984 56.2923C40.807 56.6461 41.214 57.3613 41.4366 57.669C42.4195 58.8534 43.7939 59.8839 44.5157 61.4375C44.6846 61.8066 44.8229 62.245 45.0225 62.6757C45.4986 63.7063 45.7673 64.9906 46.1743 66.2212C46.3432 66.7364 46.4968 67.0518 46.635 67.7362C46.8423 68.7822 47.2262 69.882 47.4643 71.0048C47.5794 71.5663 47.71 72.1354 47.8328 72.7045C47.9557 73.2813 47.9634 73.9043 48.1092 74.4503C48.163 74.6734 48.3319 74.8656 48.3857 75.0964C48.4548 75.3809 48.401 75.6732 48.4317 75.9731C48.5162 76.8191 48.7235 77.7343 48.8464 78.5495C49.0691 80.0108 49.5221 81.349 50.0826 82.5949C50.4665 84.0946 51.0117 85.4328 51.9178 86.4095C52.0099 87.2017 52.6703 87.617 53.2001 88.2477C53.6224 88.7476 54.0984 89.1167 54.5361 89.4936C54.9431 89.8473 55.2963 90.4242 55.6802 90.6856C55.8952 90.8318 56.1716 90.8625 56.4173 91.0087C56.7629 91.2086 56.9856 91.5932 57.2927 91.7931C57.9914 92.2392 59.5578 92.2315 59.7728 93.1236C60.1798 94.8464 57.4847 94.6464 56.0488 94.5003C55.5036 94.4465 54.897 94.2234 54.5361 94.0388C54.3749 93.9619 54.2751 93.785 54.0754 93.6235C53.8527 93.4466 53.4995 93.339 53.3383 93.2082C53.2077 93.1082 53.1156 92.916 52.9697 92.7929C52.701 92.5699 52.3324 92.4392 52.1404 92.2392C51.8794 91.97 51.7412 91.5393 51.4494 91.224C49.883 89.5243 48.3703 87.6631 47.6869 85.0637C47.5103 84.3792 47.3567 83.7178 47.088 82.9487C47.0112 82.718 46.8193 82.4949 46.7655 82.2565C46.635 81.7182 46.7655 81.2413 46.5812 80.6953C46.4891 80.4261 46.2971 80.3569 46.2127 80.1415C45.9132 79.3417 46.013 78.165 45.8441 77.196C45.7596 76.7191 45.583 76.2577 45.4755 75.7731C45.368 75.2579 45.345 74.758 45.1991 74.2581C45.0762 73.8351 44.8612 73.4198 44.7384 72.9737C44.4236 71.7509 44.3468 70.5357 44.0473 69.3898C43.5866 67.6132 42.8034 66.1827 41.7515 64.9291C41.4827 64.6138 41.1141 64.2523 40.7379 63.7832C40.4077 63.3679 40.0776 62.7603 39.5861 62.8141C39.1945 62.8603 39.0256 63.3909 39.1254 63.8293C39.2483 64.3523 40.4999 64.8445 41.0527 65.3905C41.3061 65.6367 41.8129 66.2519 42.1124 66.7672C42.2199 66.9518 42.2352 67.2287 42.3427 67.4132C42.4732 67.644 42.6422 67.7439 42.7113 67.9208C42.8341 68.2592 42.8111 68.6899 42.9416 68.936C43.0645 69.1744 43.3102 69.2513 43.4023 69.4436C43.4868 69.6128 43.4638 69.9204 43.5405 70.2281C43.6097 70.5049 43.7786 70.7895 43.817 70.9664C43.9629 71.6816 43.9475 72.42 44.1395 73.1275C44.485 74.4273 44.9841 75.9347 45.2452 77.4497C45.3911 78.3188 45.3834 79.2263 45.5216 80.0723C45.6368 80.8183 46.013 81.5182 46.1205 82.1873C46.1589 82.4103 46.0898 82.6641 46.1205 82.8795C46.1512 83.0948 46.3125 83.2794 46.3509 83.4793C46.3969 83.7101 46.3816 83.9485 46.443 84.1715C46.5044 84.3946 46.6119 84.5791 46.6273 84.7714C46.7194 85.7251 46.1436 86.4634 45.9823 87.3017C46.205 87.9862 45.8287 88.6476 45.8902 89.3705C45.9132 89.632 46.0591 89.8781 46.0744 90.155C46.0898 90.378 45.9977 90.5857 45.9823 90.801C45.775 93.3236 45.8748 95.8539 46.6734 97.8381C46.635 98.9379 46.9575 99.6685 47.5487 100.138C48.4701 100.307 48.8848 100.976 49.476 101.468C50.3667 101.83 51.4187 102.03 52.1865 102.529C52.0944 103.068 52.5935 103.306 52.6472 103.675C52.6779 103.883 52.4936 104.737 52.4169 104.921C52.1174 105.652 51.1576 105.86 50.5817 106.206C49.238 105.99 47.7637 106.321 46.7732 106.067C46.1819 105.913 45.5139 105.506 44.938 105.144C44.1164 104.629 43.2872 104.175 42.9186 103.399C42.7804 103.106 42.7036 102.737 42.55 102.383C42.1891 101.568 41.6747 100.461 41.5365 99.3916C41.5058 99.1609 41.5672 98.8994 41.5365 98.6533C41.4827 98.238 41.2217 97.9765 41.1679 97.5074C41.1372 97.2305 41.237 96.9613 41.26 96.6768C41.3906 95.0771 41.1142 92.7852 40.9375 91.2932C40.8838 90.8318 40.9836 90.4318 41.0297 89.9166C41.0834 89.3167 41.0143 88.6937 41.0297 88.0785C41.0374 87.5016 41.1602 86.9171 41.1679 86.3788C41.1756 85.8481 40.9913 85.3713 40.9375 84.9098C40.8992 84.5714 40.999 84.2254 41.0297 83.8485C41.0681 83.3794 40.9683 82.8948 41.0297 82.518C41.0527 82.3488 41.5749 81.4182 41.1218 81.2336C40.6227 81.026 40.2234 81.8181 40.3847 82.295C39.8856 82.9794 38.3653 83.8562 36.9447 83.4409C36.5685 83.3332 36.3151 82.9256 36.0694 82.5641C35.7776 82.1335 35.194 81.0721 34.8716 82.1488C34.6489 82.8948 34.6258 84.8868 34.6873 85.7328C34.7257 86.3096 34.7717 86.8249 34.8255 87.4324C34.8792 88.0323 35.0942 88.5322 35.148 88.9475C35.2248 89.5474 35.148 90.2165 35.194 90.7856C35.2248 91.1317 35.4014 91.4393 35.4244 91.7085C35.4705 92.2007 35.3707 92.7083 35.4244 93.0852C35.4628 93.3697 35.624 93.6005 35.6548 93.8235C35.7546 94.5234 35.7315 95.3847 35.6548 96.1231C35.578 96.8306 35.5396 97.5843 35.4244 98.238C35.2862 99.0302 35.0098 99.6301 34.9176 100.353C34.8332 101.053 34.8485 101.445 34.5951 102.053C34.2957 102.791 34.0116 103.214 33.5355 103.798C32.9059 104.583 32.6755 104.875 31.7925 105.59C31.232 106.044 30.6561 106.598 29.9573 106.783C29.9343 106.783 29.8575 106.829 29.8652 106.829C29.297 106.859 28.9822 106.906 28.3065 106.967C27.9456 106.998 27.6154 107.106 27.3006 107.059C26.7784 106.982 25.6958 106.521 25.3272 105.96C24.8511 105.237 24.782 104.152 25.1429 103.429C25.596 102.522 26.8322 102.291 27.8074 101.684C28.1145 101.484 28.46 101.061 28.8132 100.761C29.1895 100.445 29.6195 100.191 29.7807 99.7916C29.8421 99.6301 29.7807 99.407 29.8268 99.1917C29.8729 98.984 29.988 98.8225 30.0111 98.6841C30.0495 98.4226 29.9496 98.1534 29.965 97.8996C29.9957 97.4689 30.1954 97.0306 30.2414 96.6153C30.3259 95.8693 30.2107 95.1156 30.1493 94.408C30.1109 93.9389 30.1723 93.4543 30.1493 92.9852C30.0879 91.8239 29.7884 90.7472 29.6425 89.4936C29.5964 89.0629 29.4352 88.6322 29.4122 88.2477C29.3968 88.0169 29.5043 87.7862 29.5043 87.5555C29.5043 87.1402 29.4275 86.6787 29.3661 86.1327C29.2356 84.8945 28.5598 83.687 28.222 82.5026C28.0761 82.0104 28.0684 81.4644 27.8995 81.0337C27.8227 80.8414 27.6538 80.6799 27.577 80.4799C27.3543 79.9185 27.3774 79.3032 27.2084 78.7341C27.147 78.5188 26.9781 78.3419 26.8859 78.1342C26.6095 77.4959 26.4943 76.7653 26.287 76.0654C26.049 75.2579 25.4808 74.5272 25.3656 73.7659C25.3195 73.4736 25.427 73.0891 25.4117 72.8429C25.3886 72.4276 25.1122 72.0123 24.997 71.5586C24.6592 70.1973 24.2829 68.8976 24.2138 67.3748C24.1678 66.2904 24.2138 65.1983 24.306 64.1139C24.3828 63.1525 24.3213 62.1912 24.3904 61.176C24.4672 60.0839 24.5901 58.9918 24.6745 57.9458C24.7513 56.9845 24.9586 56.0693 25.0431 55.1387C25.1122 54.3465 25.1429 53.8082 25.3195 53.0699C25.4654 52.4623 25.7726 51.8855 25.9184 51.2779C26.0029 50.9164 25.9338 50.5396 26.0106 50.1781C26.1488 49.4936 26.6172 48.9476 26.8859 48.2477C27.1163 47.6632 27.1931 47.2018 27.4388 46.7326C27.6077 46.4019 28.2527 45.9559 28.1759 45.4867C28.1452 45.3252 27.9225 45.1252 27.8074 45.1176C27.4311 45.0868 26.9474 45.9482 26.7017 46.2635C26.1258 47.0326 25.6881 47.3248 25.2811 48.1016C23.5995 48.6938 21.5264 49.0322 19.315 49.2014C17.5566 49.3398 15.9211 48.8092 14.5389 48.4169C14.2472 48.3323 13.917 48.3169 13.6175 48.2323C12.5886 47.9401 11.7363 47.2402 11.1374 46.6711C11.122 46.325 12.3275 45.679 12.2431 45.2944C12.1049 44.6946 11.4138 45.4175 10.9992 45.3867C10.8072 45.6175 11.0683 46.0328 10.7688 46.1712C10.3004 46.0097 10.0547 45.6328 9.80901 45.2483C9.97026 44.8638 10.6076 44.9407 10.6383 44.4177C10.3004 43.9332 9.86276 44.5946 9.48651 44.6484C9.14866 44.31 8.91063 43.8716 8.74938 43.3641C8.9567 43.1333 9.23312 43.0257 9.62473 42.8565C9.87811 42.7488 10.477 42.6642 10.5001 42.395C10.5385 41.8413 9.74758 42.1797 9.48651 42.3027C9.04884 42.5181 8.79545 42.6719 8.38849 42.7642C8.21956 41.972 7.88171 41.2798 7.78957 40.4185C7.69743 39.5648 7.90475 38.7111 7.78957 37.7959C7.65904 36.7423 6.92958 35.904 6.46119 34.9888C5.83156 33.7736 5.08675 32.6354 4.2114 31.7202C3.90426 31.128 3.65855 30.5358 3.33605 29.9743C2.89838 29.2129 2.12286 28.6284 2 27.7209C2.69874 27.544 3.20552 28.0439 3.78908 28.2747C4.40336 28.5131 5.12514 28.5977 5.76245 28.7823C6.0312 28.8592 6.2462 29.0053 6.49959 29.0591C7.57457 29.2975 8.59581 29.4821 9.71687 29.6129C9.78597 30.2589 9.11027 30.2281 9.25616 30.8511C9.43276 31.574 10.9147 30.928 11.0913 30.7588C11.3217 30.5358 11.3524 30.1435 11.4599 29.882C11.7286 29.2514 12.435 28.3439 12.9265 27.8594C13.5331 27.2595 14.4929 26.7365 15.3605 26.252C16.2282 25.7598 17.1189 25.0984 17.9328 24.8292C18.2553 24.7215 18.6623 24.6677 19.0309 24.5523C19.3687 24.4446 19.8141 24.4139 20.0905 24.2293C21.1962 23.5064 20.221 21.0761 20.2287 19.8148C20.2287 19.4072 20.4514 18.8227 20.5051 18.2074C20.5512 17.6767 20.4591 17.0845 20.5051 16.5539C20.5973 15.3772 20.6587 14.485 20.9198 13.4698C21.1117 12.7315 21.2499 11.9701 22.0639 12.0009C22.4708 12.0163 23.1619 12.7085 23.4383 13.193C23.5304 13.3468 23.5228 13.5775 23.6226 13.7467C23.7224 13.9159 23.9912 14.0543 24.0833 14.2082C24.2445 14.462 24.3981 14.8696 24.544 15.1311C24.7129 15.431 24.8281 15.7617 25.0047 16.054C25.1276 16.2616 25.3349 16.4077 25.4654 16.6077C25.9031 17.2922 26.2179 18.1997 26.525 18.8611C26.6325 19.0918 26.8092 19.2687 26.8936 19.461C26.9858 19.661 26.9781 19.9532 27.0779 20.1993C27.3236 20.7992 27.8611 21.5606 28.1759 21.8067C28.5061 22.0682 28.9975 22.2451 29.3738 22.4066C30.2798 22.7911 30.9709 23.1064 31.7157 23.7832C32.6601 24.6523 34.0653 25.5675 34.8408 26.4981C35.0942 26.8057 35.4628 27.3056 35.624 27.6517C35.7085 27.8286 35.7239 28.0363 35.8083 28.2055C35.9849 28.5669 36.2844 28.8438 36.4533 29.2206C36.5992 29.559 36.5838 29.9282 36.868 30.282C36.9217 31.251 37.3363 32.2354 37.3747 33.3198C37.3978 33.9736 37.129 34.7426 36.914 35.481C36.6069 36.5577 36.4687 37.3575 36.0387 38.1035C35.6164 38.3189 34.933 38.5573 34.3878 38.9341C34.0423 39.1726 32.6909 40.7338 34.2957 40.4954C34.7333 40.4339 35.0098 40.257 35.1249 40.2185C36.3996 39.7494 37.989 39.6263 39.8088 39.8032C40.4461 39.8647 41.1218 39.9955 41.5518 40.2185C41.7284 40.3108 41.8359 40.5261 42.0125 40.6338C42.2045 40.7492 42.4502 40.7569 42.6115 40.8645C42.957 41.0953 43.1797 41.5106 43.5329 41.6951C43.7479 41.8028 43.8938 41.749 44.1318 41.8797C44.4389 42.0489 44.7845 42.5181 45.1453 42.9795C45.5984 43.564 45.9593 43.9178 46.3432 44.4485C46.5198 44.7023 46.6043 44.9637 46.7578 45.2791C47.2339 46.2712 48.14 47.2787 48.5469 48.3169C48.7773 48.9014 48.8464 49.386 49.238 49.8782M32.1611 29.7744C31.7618 29.8974 31.3011 30.0051 31.0553 30.1435C30.8941 30.2358 30.7482 30.4127 30.5946 30.5127C29.5964 31.151 28.4831 31.6048 27.5156 32.3047C27.0549 32.6354 26.6018 33.0353 26.1795 33.4044C25.7572 33.789 25.189 34.1735 25.0738 34.7811C25.5576 35.081 25.9108 34.5196 26.1795 34.2735C28.0147 32.5892 30.2414 31.0126 32.8828 30.2281C33.2667 30.1128 33.9578 30.1512 33.9885 29.536C33.2821 29.3129 32.7676 29.5821 32.1534 29.7667M26.1488 36.35C27.7536 35.4579 29.4275 34.7119 31.017 33.8197C31.7311 33.4198 32.4835 33.3352 33.2207 33.0353C33.4664 32.9353 33.6507 32.7507 33.9117 32.6661C34.0807 32.6123 34.8562 32.6354 34.741 32.1585C34.6873 31.9509 34.3264 31.897 34.05 31.9278C33.7275 31.9586 33.2437 32.2201 32.806 32.3893C31.5084 32.9045 30.4564 33.4737 29.2739 33.9966C28.0838 34.5273 27.0395 35.2195 25.9184 35.7425C25.5806 35.904 24.9433 36.0655 25.1352 36.6192C25.4961 36.8499 25.8647 36.4962 26.1411 36.3423M35.3783 34.4658C34.7717 34.5273 33.9425 34.958 33.2667 35.2041C31.8155 35.7194 30.4411 36.25 28.9514 36.673C28.5752 36.7807 26.8322 37.0653 26.7938 37.4114C26.7247 37.9651 27.792 37.7113 27.8995 37.6882C28.3832 37.5575 28.7441 37.396 29.0973 37.2729C31.1475 36.55 32.9366 35.804 35.0635 35.2502C35.4244 35.158 36.0233 35.1503 36.1231 34.6965C36.008 34.4965 35.6931 34.435 35.386 34.4658M20.6817 40.4031C20.3132 40.2877 20.0367 39.9724 19.53 40.0801C19.361 39.8801 18.4703 39.6263 18.2937 39.8493C17.7409 40.5261 17.9635 42.7334 18.0173 43.6178C18.1325 43.6563 18.263 43.6794 18.4319 43.664C18.7775 42.8872 18.7928 41.7874 19.2612 41.1337C19.8371 41.0491 20.6587 41.1568 21.3267 41.1337C21.7797 41.1183 22.5246 41.1568 22.609 40.6723C22.0869 40.2877 21.3037 40.5954 20.6817 40.3954" fill="#9B9A9B"/>
<path fill-rule="evenodd" clip-rule="evenodd" d="M33.8698 29.7327C33.8391 30.3402 33.148 30.3095 32.7641 30.4248C30.1227 31.2093 27.8959 32.7859 26.0608 34.4702C25.7997 34.7163 25.4465 35.2777 24.9551 34.9778C25.0626 34.3625 25.6308 33.978 26.0608 33.5935C26.4754 33.2166 26.9361 32.8244 27.3892 32.4937C28.3566 31.7938 29.47 31.34 30.4682 30.7017C30.6218 30.6017 30.76 30.4248 30.9289 30.3325C31.1746 30.1941 31.6354 30.0864 32.0346 29.9634C32.6489 29.7788 33.1634 29.5173 33.8698 29.7327Z" fill="white"/>
<path fill-rule="evenodd" clip-rule="evenodd" d="M25.0088 36.8161C24.8168 36.2624 25.4465 36.1009 25.792 35.9394C26.9054 35.4164 27.9496 34.7242 29.1475 34.1935C30.33 33.6629 31.3819 33.1014 32.6796 32.5862C33.1096 32.417 33.5933 32.1632 33.9158 32.1247C34.1922 32.094 34.5531 32.1478 34.6069 32.3554C34.7297 32.8323 33.9465 32.8092 33.7776 32.863C33.5165 32.9399 33.3399 33.1322 33.0865 33.2322C32.3494 33.5321 31.5969 33.609 30.8828 34.0167C29.2934 34.9088 27.6195 35.6548 26.0147 36.5469C25.7306 36.7007 25.362 37.0468 25.0088 36.8238" fill="white"/>
<path fill-rule="evenodd" clip-rule="evenodd" d="M35.9813 34.8857C35.8815 35.3318 35.2826 35.3472 34.9217 35.4395C32.7948 35.9932 30.998 36.7469 28.9478 37.4621C28.6023 37.5852 28.2414 37.7467 27.75 37.8774C27.6502 37.9082 26.5752 38.162 26.6443 37.6006C26.6904 37.2545 28.4257 36.9699 28.802 36.8623C30.2916 36.4316 31.6737 35.9086 33.1173 35.3933C33.793 35.1549 34.6222 34.7165 35.2288 34.655C35.536 34.6242 35.8508 34.6781 35.966 34.8857" fill="white"/>
<path fill-rule="evenodd" clip-rule="evenodd" d="M22.4826 40.869C22.3904 41.3535 21.6456 41.3151 21.1926 41.3305C20.5246 41.3535 19.703 41.2459 19.1271 41.3305C18.6664 41.9842 18.6433 43.084 18.2978 43.8607C18.1289 43.8761 17.9984 43.853 17.8832 43.8146C17.8294 42.9301 17.6068 40.7152 18.1596 40.0461C18.3439 39.8231 19.2269 40.0769 19.4035 40.2768C19.9026 40.1615 20.1867 40.4845 20.5476 40.5998C21.1696 40.7921 21.9528 40.4922 22.4749 40.8767" fill="white"/>
<path fill-rule="evenodd" clip-rule="evenodd" d="M21.8605 33.0013C21.2155 33.4089 20.9545 32.6475 20.893 32.1322C20.87 31.9707 20.8162 31.8092 20.8086 31.64C20.8009 31.4478 20.893 31.2632 20.8777 31.0632C20.8546 30.7018 20.9545 30.3634 21.062 30.025C21.1618 29.7019 21.3537 29.4635 21.6302 29.2713C21.7607 29.179 21.8835 29.0636 22.0371 28.9944C22.2137 28.9175 22.4134 28.879 22.5976 28.8175C22.9662 28.6944 23.3117 28.8636 23.6726 28.8175C24.0335 28.7714 24.4021 28.8636 24.7399 29.0021C25.0471 29.1328 25.2774 29.3943 25.5155 29.6173C25.8149 29.9019 25.8456 30.2249 25.9762 30.5864C26.099 30.9325 26.099 31.3247 26.0376 31.6785C26.0069 31.8477 25.884 31.9784 25.861 32.1476C25.8226 32.3707 25.7689 32.5168 25.6076 32.686C25.1162 33.2013 24.4251 33.5704 23.711 33.6473C23.3425 33.6858 22.9585 33.6012 22.6207 33.4474C22.4364 33.3628 22.1062 32.8475 21.8682 33.0013" fill="white"/>
<path fill-rule="evenodd" clip-rule="evenodd" d="M14.7888 37.3699C14.7504 37.2699 14.7504 37.193 14.7581 37.0853C14.7734 36.9007 14.6736 36.8238 14.5661 36.6931C14.3588 36.4546 14.2282 36.1393 13.9979 35.9163C13.7829 35.7086 13.5295 35.5779 13.3145 35.3779C13.0534 35.1395 12.7309 35.1549 12.4008 35.1395C11.8095 35.1088 11.1645 35.3856 10.9572 35.9701C10.9188 36.0855 10.842 36.147 10.7576 36.2316C10.6501 36.3393 10.6194 36.4854 10.5733 36.6238C10.4888 36.893 10.3199 37.3006 10.366 37.5775C10.412 37.8467 10.4812 38.1389 10.5579 38.3927C10.6501 38.6927 10.8113 38.9619 11.0954 39.131C11.3027 39.2541 11.4794 39.4848 11.7097 39.5617C12.0245 39.6694 12.3701 39.6617 12.7002 39.6925C13.0074 39.7232 13.2915 39.6386 13.5833 39.5617C13.852 39.4848 14.2513 39.3464 14.4279 39.1234C14.6122 38.8926 14.7965 38.6927 14.8656 38.3927C14.9116 38.2158 14.9116 38.0697 14.8656 37.8928C14.8195 37.7236 14.8656 37.5391 14.8041 37.3699" fill="white"/>
<path d="M11.5483 37.2083C11.5099 36.916 11.6097 36.6084 11.7556 36.3546C11.8401 36.2161 11.986 36.27 12.1165 36.2546C12.2547 36.2392 12.3699 36.1392 12.5004 36.2315C12.7154 36.3853 13.0379 36.5468 13.1992 36.7468C13.2836 36.8545 13.3374 37.0006 13.3988 37.1237C13.4602 37.2467 13.6215 37.4774 13.6292 37.6159C13.6522 37.885 13.5063 38.2311 13.3297 38.4311C13.084 38.6926 12.892 38.6926 12.5772 38.5849C12.3008 38.4849 12.0397 38.408 11.9092 38.1312C11.8401 37.985 11.771 37.8389 11.7249 37.6851C11.6788 37.539 11.556 37.3544 11.5406 37.2083" fill="#9B9A9B"/>
<path d="M22.2062 30.4786C22.3214 30.1864 22.3521 29.871 22.7207 29.8095C22.9127 29.7787 23.0662 29.8787 23.2582 29.9172C23.4271 29.9556 23.6114 29.9941 23.7803 30.0402C23.9109 30.0787 23.98 30.2248 24.0721 30.3171C24.2257 30.4786 24.3178 30.594 24.3639 30.817C24.4023 31.0016 24.5482 31.1169 24.5251 31.3169C24.5098 31.5246 24.41 31.7399 24.41 31.9399C24.41 32.2936 24.0644 32.4321 23.7803 32.5782C23.5884 32.6782 23.4194 32.6013 23.2351 32.5013C23.1123 32.4321 22.905 32.3782 22.7975 32.2859C22.5594 32.0783 22.3061 31.7399 22.1678 31.4553C22.0987 31.3015 22.1218 31.1093 22.0603 30.9477C21.9836 30.7247 22.1218 30.6632 22.1986 30.4786" fill="#9B9A9B"/>
<path d="M146.643 112.609C146.751 112.863 146.835 113.255 146.843 113.486C147.319 112.978 148.156 112.578 148.931 112.578C150.383 112.578 150.874 113.47 150.874 114.739V118.792H149.922V114.962C149.922 114.124 149.676 113.378 148.655 113.378C148.002 113.378 147.281 113.724 146.881 114.193V118.792H145.922V113.932C145.922 113.539 145.875 113.093 145.776 112.74L146.643 112.609Z" fill="#6B1427"/>
<path d="M157.885 118.131C158.56 118.131 159.236 117.985 159.72 117.769L159.896 118.539C159.474 118.738 158.683 118.954 157.808 118.954C155.842 118.954 154.821 117.793 154.821 115.824C154.821 113.855 155.811 112.47 157.639 112.47C159.221 112.47 159.981 113.509 159.981 115.255V115.808H155.765C155.712 117.469 156.61 118.139 157.869 118.139H157.877L157.885 118.131ZM157.531 113.232C156.525 113.232 155.903 114.078 155.796 115.108H159.105C159.082 113.893 158.629 113.232 157.539 113.232H157.531Z" fill="#6B1427"/>
<path d="M168.75 118.784H167.583L164.903 115.731V118.784H163.935V110.34L164.903 110.194V115.624L167.467 112.678H168.611L165.886 115.616L168.75 118.784Z" fill="#6B1427"/>
<path d="M177.542 115.716C177.542 117.323 176.874 119 174.678 119C172.482 119 171.813 117.331 171.813 115.708C171.813 114.085 172.489 112.478 174.678 112.478C176.866 112.478 177.542 114.116 177.542 115.708V115.716ZM174.685 118.177C175.921 118.177 176.559 117.308 176.559 115.7C176.559 114.093 175.921 113.278 174.678 113.278C173.434 113.278 172.796 114.116 172.796 115.7C172.796 117.285 173.434 118.177 174.678 118.177H174.685Z" fill="#6B1427"/>
<path d="M183.538 114.87H181.012V115.67H183.538V114.87Z" fill="#6B1427"/>
<path d="M188.384 111.563H187.324V110.602H188.384V111.563ZM188.338 118.785H187.378V112.678H188.338V118.785Z" fill="#6B1427"/>
<path d="M192.292 115.801C192.292 114.009 193.006 112.486 195.225 112.486C195.786 112.486 196.292 112.594 196.653 112.709L196.477 113.532C196.085 113.386 195.64 113.309 195.248 113.309C193.782 113.309 193.259 114.409 193.259 115.793C193.259 117.108 193.797 118.123 195.279 118.123C195.701 118.123 196.216 118.046 196.561 117.9L196.699 118.738C196.385 118.854 195.824 118.962 195.233 118.962C192.983 118.962 192.3 117.439 192.3 115.808L192.292 115.801Z" fill="#6B1427"/>
<path d="M203.395 112.578C204.838 112.578 205.345 113.47 205.345 114.739V118.792H204.393V114.962C204.393 114.124 204.147 113.378 203.126 113.378C202.473 113.378 201.744 113.724 201.352 114.201V118.792H200.393V110.348L201.352 110.202V113.447C201.813 112.963 202.612 112.578 203.395 112.578Z" fill="#6B1427"/>
<path d="M210.651 111.563H209.592V110.602H210.651V111.563ZM210.613 118.785H209.653V112.678H210.613V118.785Z" fill="#6B1427"/>
<path d="M220.648 112.609C220.756 112.863 220.84 113.255 220.848 113.486C221.324 112.978 222.153 112.578 222.937 112.578C224.38 112.578 224.879 113.47 224.879 114.739V118.792H223.927V114.962C223.927 114.124 223.681 113.378 222.66 113.378C222.008 113.378 221.286 113.724 220.886 114.193V118.792H219.927V113.932C219.927 113.539 219.881 113.093 219.781 112.74L220.648 112.609Z" fill="#6B1427"/>
<path d="M231.897 118.131C232.573 118.131 233.249 117.985 233.733 117.769L233.909 118.539C233.487 118.738 232.696 118.954 231.821 118.954C229.855 118.954 228.834 117.793 228.834 115.824C228.834 113.855 229.824 112.47 231.652 112.47C233.234 112.47 233.994 113.509 233.994 115.255V115.808H229.778C229.724 117.469 230.623 118.139 231.882 118.139H231.89L231.897 118.131ZM231.544 113.232C230.538 113.232 229.916 114.078 229.809 115.108H233.118C233.095 113.893 232.642 113.232 231.552 113.232H231.544Z" fill="#6B1427"/>
<path d="M242.755 118.784H241.596L238.916 115.731V118.784H237.948V110.34L238.916 110.194V115.624L241.48 112.678H242.624L239.891 115.616L242.755 118.784Z" fill="#6B1427"/>
<path d="M251.547 115.716C251.547 117.323 250.879 119 248.683 119C246.487 119 245.819 117.331 245.819 115.708C245.819 114.085 246.494 112.478 248.683 112.478C250.871 112.478 251.547 114.116 251.547 115.708V115.716ZM248.698 118.177C249.934 118.177 250.572 117.308 250.572 115.7C250.572 114.093 249.934 113.278 248.69 113.278C247.446 113.278 246.809 114.116 246.809 115.7C246.809 117.285 247.446 118.177 248.69 118.177H248.698Z" fill="#6B1427"/>
<path d="M257.551 114.87H255.025V115.67H257.551V114.87Z" fill="#6B1427"/>
<path d="M260.953 113.478V112.678H265.191V113.455L261.836 117.985H265.406V118.785H260.699V118.023L264.055 113.478H260.953Z" fill="#6B1427"/>
<path d="M273.645 118.715L272.839 118.877C272.593 118.592 272.448 118.146 272.409 117.777C272.064 118.515 271.265 118.931 270.451 118.931C269.491 118.931 268.493 118.446 268.493 117.093C268.493 115.662 269.23 115.208 272.286 115.047V114.532C272.286 113.816 272.148 113.324 271.058 113.324C270.405 113.324 269.775 113.516 269.184 113.839L268.962 113.032C269.499 112.747 270.359 112.517 271.158 112.517C272.732 112.517 273.177 113.216 273.177 114.516V116.962C273.177 117.723 273.338 118.377 273.63 118.715M269.399 117.054C269.399 117.962 270.159 118.131 270.62 118.131C271.511 118.131 272.125 117.531 272.294 116.854V115.778C270.052 115.908 269.399 116.108 269.399 117.062" fill="#6B1427"/>
<path d="M73.6135 46.837C73.3602 46.837 73.1528 46.6294 73.1528 46.3756V34.9624C73.1528 34.7086 73.3602 34.501 73.6135 34.501C73.8669 34.501 74.0743 34.7086 74.0743 34.9624V46.3756C74.0743 46.6294 73.8669 46.837 73.6135 46.837Z" fill="#6B1427"/>
<path d="M81.3533 46.837C81.0999 46.837 80.8926 46.6294 80.8926 46.3756V34.9624C80.8926 34.7086 81.0999 34.501 81.3533 34.501C81.6067 34.501 81.814 34.7086 81.814 34.9624V46.3756C81.814 46.6294 81.6067 46.837 81.3533 46.837Z" fill="#6B1427"/>
<path d="M73.6135 104.272C73.3602 104.272 73.1528 104.065 73.1528 103.811V75.9854C73.1528 75.7316 73.3602 75.5239 73.6135 75.5239C73.8669 75.5239 74.0743 75.7316 74.0743 75.9854V103.811C74.0743 104.065 73.8669 104.272 73.6135 104.272Z" fill="#6B1427"/>
<path d="M81.3533 104.272C81.0999 104.272 80.8926 104.064 80.8926 103.811V74.5239C80.8926 74.2702 81.0999 74.0625 81.3533 74.0625C81.6067 74.0625 81.814 74.2702 81.814 74.5239V103.811C81.814 104.064 81.6067 104.272 81.3533 104.272Z" fill="#6B1427"/>
<path d="M133.16 100.727C132.907 100.727 132.699 100.519 132.699 100.265V45.0298C132.699 44.776 132.907 44.5684 133.16 44.5684C133.413 44.5684 133.621 44.776 133.621 45.0298V100.265C133.621 100.519 133.413 100.727 133.16 100.727Z" fill="#6B1427"/>
<path d="M125.666 99.8113C125.412 99.8113 125.205 99.6037 125.205 99.3499V46.314C125.205 46.0602 125.412 45.8525 125.666 45.8525C125.919 45.8525 126.126 46.0602 126.126 46.314V99.3499C126.126 99.6037 125.919 99.8113 125.666 99.8113Z" fill="#6B1427"/>
<path d="M187.9 100.411C187.646 100.411 187.439 100.204 187.439 99.95V39.0156C187.439 38.7619 187.646 38.5542 187.9 38.5542C188.153 38.5542 188.36 38.7619 188.36 39.0156V99.9577C188.36 100.211 188.153 100.419 187.9 100.419V100.411Z" fill="#6B1427"/>
<path d="M181.35 100.411C181.097 100.411 180.889 100.204 180.889 99.95V39.0156C180.889 38.7619 181.097 38.5542 181.35 38.5542C181.603 38.5542 181.811 38.7619 181.811 39.0156V99.9577C181.811 100.211 181.603 100.419 181.35 100.419V100.411Z" fill="#6B1427"/>
<path d="M170.07 92.9435C169.817 92.9435 169.61 92.7358 169.61 92.482V61.9649C169.61 61.7111 169.817 61.5034 170.07 61.5034C170.324 61.5034 170.531 61.7111 170.531 61.9649V92.482C170.531 92.7358 170.324 92.9435 170.07 92.9435Z" fill="#6B1427"/>
<path d="M163.935 92.9434C163.682 92.9434 163.475 92.7357 163.475 92.4819V61.1572C163.475 60.9035 163.682 60.6958 163.935 60.6958C164.189 60.6958 164.396 60.9035 164.396 61.1572V92.4819C164.396 92.7357 164.189 92.9434 163.935 92.9434Z" fill="#6B1427"/>
<path d="M206.105 91.8746C205.852 91.8746 205.645 91.667 205.645 91.4132V61.2344C205.645 60.9806 205.852 60.7729 206.105 60.7729C206.359 60.7729 206.566 60.9806 206.566 61.2344V91.4132C206.566 91.667 206.359 91.8746 206.105 91.8746Z" fill="#6B1427"/>
<path d="M199.824 92.0512C199.571 92.0512 199.364 91.8436 199.364 91.5898V61.5264C199.364 61.2726 199.571 61.0649 199.824 61.0649C200.078 61.0649 200.285 61.2726 200.285 61.5264V91.5898C200.285 91.8436 200.078 92.0512 199.824 92.0512Z" fill="#6B1427"/>
<path d="M185.282 50.3518V60.7344H203.602V89.1212C203.602 91.5284 202.643 92.1437 199.686 92.1437C197.905 92.1437 195.363 92.0745 193.72 92.0745V90.767C195.294 90.767 197.836 90.8362 199.686 90.8362C201.675 90.8362 202.297 90.4902 202.297 89.052V61.9726H185.282V100.327H183.976V61.9726H167.506V92.9743H166.2V60.7421H183.976V50.3595H160.987V49.1213H183.976V38.4695H185.282V49.1213H208.885V50.3595H185.282V50.3518Z" fill="#6B1427"/>
<path d="M361.595 97.8965C361.341 97.8965 361.134 97.6889 361.134 97.4351V39.0156C361.134 38.7619 361.341 38.5542 361.595 38.5542C361.848 38.5542 362.055 38.7619 362.055 39.0156V97.4351C362.055 97.6889 361.848 97.8965 361.595 97.8965Z" fill="#6B1427"/>
<path d="M355.475 97.8965C355.221 97.8965 355.014 97.6889 355.014 97.4351V39.0156C355.014 38.7619 355.221 38.5542 355.475 38.5542C355.728 38.5542 355.936 38.7619 355.936 39.0156V97.4351C355.936 97.6889 355.728 97.8965 355.475 97.8965Z" fill="#6B1427"/>
<path d="M337.523 47.0526V64.4415C337.453 76.6084 335.879 88.9137 331.687 99.0117L330.589 98.1196C334.774 88.2907 336.217 76.1931 336.217 64.4415V45.8143H357.832V38.4619H359.207V45.8143H379.654V47.0526H337.523ZM359.207 96.7506H379.585V97.9888H337.584V96.7506H357.894V82.661H341.976V81.4228H357.894V49.5982H359.199V81.4228H375.669V82.661H359.199V96.7506H359.207ZM349.532 52.0054C348.979 55.7816 348.157 59.2886 347.128 62.588C350.422 67.264 352.964 71.3863 354.814 75.0933L353.786 75.7162C352.066 72.2092 349.601 68.2946 346.652 63.9647C345.009 68.6407 342.744 72.9014 339.649 77.0929L338.621 76.3392C344.111 69.056 346.921 61.4959 348.295 51.7978L349.532 52.0054ZM372.314 51.9362C371.838 55.5125 371.147 58.6734 370.325 61.6959C372.383 67.5409 376.36 72.9706 380 75.9239L379.04 76.9545C375.539 74.0704 371.899 69.1175 369.711 63.5494C368.067 68.3638 365.802 72.6245 362.439 76.816L361.41 76.0623C367.177 68.8483 369.849 61.8343 371.085 51.7978L372.321 51.9362H372.314Z" fill="#6B1427"/>
<path d="M90.1836 48.5982C87.6036 56.1122 84.0101 63.3954 79.7792 69.9479C79.4337 70.4863 79.5028 71.1862 79.9635 71.6322C84.3863 75.9237 89.6307 81.6841 93.2242 86.4371C93.6312 86.9677 93.5621 87.7214 93.0937 88.1906L93.0553 88.229C92.4794 88.8058 91.5196 88.7443 91.0282 88.0829C88.287 84.3759 84.5629 80.0152 81.169 76.4082C80.3321 75.5161 78.8425 76.1083 78.8425 77.3311V103.011C78.8425 103.757 78.2435 104.357 77.4987 104.357H77.3912C76.6464 104.357 76.0475 103.749 76.0475 103.011V79.3307C76.0475 78.0618 74.458 77.508 73.6595 78.4924C70.4115 82.4994 66.9408 86.0602 63.401 88.9981C62.8328 89.4672 61.9959 89.3826 61.5198 88.8135L61.4737 88.7597C60.9746 88.1752 61.0821 87.2984 61.6811 86.8293C72.1468 78.5924 81.7603 64.1875 86.4749 50.8593C86.782 49.9903 86.1216 49.0751 85.1925 49.0751H64.6987C63.9539 49.0751 63.355 48.4752 63.355 47.7292V47.6984C63.355 46.9524 63.9616 46.3525 64.6987 46.3525H74.6884C75.4332 46.3525 76.0321 45.7526 76.0321 45.0066V35.7392C76.0321 34.9932 76.6311 34.3933 77.3759 34.3933H77.4834C78.2282 34.3933 78.8271 35.0009 78.8271 35.7392V45.0066C78.8271 45.7526 79.426 46.3525 80.1708 46.3525H88.1104C88.3407 46.3525 88.5634 46.4141 88.7707 46.5217L89.5386 46.9524C90.1068 47.2677 90.3755 47.9522 90.1605 48.5675" fill="#6B1427"/>
<path d="M130.81 45.8294V99.4729C130.81 100.219 130.211 100.819 129.467 100.819H106.377C105.633 100.819 105.034 100.219 105.034 99.4729V99.4498C105.034 98.7038 105.633 98.1039 106.377 98.1039H126.664C127.409 98.1039 128.008 97.504 128.008 96.758V48.5597C128.008 47.8136 127.401 47.2138 126.664 47.2138H106.462C105.717 47.2138 105.118 46.6139 105.118 45.8679V45.8371C105.118 45.0911 105.717 44.4912 106.462 44.4912H129.467C130.211 44.4912 130.81 45.0911 130.81 45.8371" fill="#6B1427"/>
<path d="M244.498 46.837C244.244 46.837 244.037 46.6294 244.037 46.3756V34.9624C244.037 34.7086 244.244 34.501 244.498 34.501C244.751 34.501 244.959 34.7086 244.959 34.9624V46.3756C244.959 46.6294 244.751 46.837 244.498 46.837Z" fill="#6B1427"/>
<path d="M252.245 46.837C251.992 46.837 251.785 46.6294 251.785 46.3756V34.9624C251.785 34.7086 251.992 34.501 252.245 34.501C252.499 34.501 252.706 34.7086 252.706 34.9624V46.3756C252.706 46.6294 252.499 46.837 252.245 46.837Z" fill="#6B1427"/>
<path d="M244.498 104.272C244.244 104.272 244.037 104.065 244.037 103.811V75.9854C244.037 75.7316 244.244 75.5239 244.498 75.5239C244.751 75.5239 244.959 75.7316 244.959 75.9854V103.811C244.959 104.065 244.751 104.272 244.498 104.272Z" fill="#6B1427"/>
<path d="M252.245 104.272C251.992 104.272 251.785 104.064 251.785 103.811V74.5239C251.785 74.2702 251.992 74.0625 252.245 74.0625C252.499 74.0625 252.706 74.2702 252.706 74.5239V103.811C252.706 104.064 252.499 104.272 252.245 104.272Z" fill="#6B1427"/>
<path d="M304.044 100.727C303.791 100.727 303.584 100.519 303.584 100.265V45.0298C303.584 44.776 303.791 44.5684 304.044 44.5684C304.298 44.5684 304.505 44.776 304.505 45.0298V100.265C304.505 100.519 304.298 100.727 304.044 100.727Z" fill="#6B1427"/>
<path d="M296.55 99.8113C296.297 99.8113 296.089 99.6037 296.089 99.3499V46.314C296.089 46.0602 296.297 45.8525 296.55 45.8525C296.803 45.8525 297.011 46.0602 297.011 46.314V99.3499C297.011 99.6037 296.803 99.8113 296.55 99.8113Z" fill="#6B1427"/>
<path d="M261.068 48.5982C258.488 56.1122 254.894 63.3954 250.664 69.9479C250.318 70.4863 250.387 71.1862 250.848 71.6322C255.271 75.9237 260.515 81.6841 264.109 86.4371C264.508 86.9677 264.446 87.7214 263.978 88.1906L263.94 88.229C263.364 88.8058 262.404 88.7443 261.912 88.0829C259.171 84.3759 255.447 80.0152 252.053 76.4082C251.216 75.5161 249.727 76.1083 249.727 77.3311V103.011C249.727 103.757 249.128 104.357 248.383 104.357H248.276C247.531 104.357 246.932 103.749 246.932 103.011V79.3307C246.932 78.0618 245.342 77.508 244.544 78.4924C241.296 82.4994 237.825 86.0602 234.285 88.9981C233.717 89.4672 232.88 89.3826 232.404 88.8135L232.358 88.7597C231.859 88.1752 231.966 87.2984 232.565 86.8293C243.031 78.5924 252.645 64.1875 257.359 50.8593C257.666 49.9903 257.006 49.0751 256.077 49.0751H235.591C234.846 49.0751 234.247 48.4752 234.247 47.7292V47.6984C234.247 46.9524 234.846 46.3525 235.591 46.3525H245.58C246.325 46.3525 246.924 45.7526 246.924 45.0066V35.7392C246.924 34.9932 247.523 34.3933 248.268 34.3933H248.375C249.12 34.3933 249.719 35.0009 249.719 35.7392V45.0066C249.719 45.7526 250.318 46.3525 251.063 46.3525H259.002C259.233 46.3525 259.463 46.4141 259.663 46.5217L260.431 46.9524C260.999 47.2677 261.267 47.9522 261.052 48.5675" fill="#6B1427"/>
<path d="M301.695 45.8294V99.4729C301.695 100.219 301.088 100.819 300.351 100.819H277.262C276.517 100.819 275.918 100.219 275.918 99.4729V99.4498C275.918 98.7038 276.517 98.1039 277.262 98.1039H297.548C298.293 98.1039 298.892 97.504 298.892 96.758V48.5597C298.892 47.8136 298.286 47.2138 297.548 47.2138H277.346C276.602 47.2138 276.003 46.6139 276.003 45.8679V45.8371C276.003 45.0911 276.602 44.4912 277.346 44.4912H300.351C301.096 44.4912 301.695 45.0911 301.695 45.8371" fill="#6B1427"/>
<path d="M118.502 8.79828C117.949 8.43681 117.181 8.15994 116.828 8.07535C116.72 8.04458 116.674 7.99075 116.659 7.89846C116.636 7.75233 116.759 7.53699 116.943 7.50623C117.227 7.46008 118.471 7.96767 118.817 8.1984C118.917 8.25993 118.955 8.35222 118.97 8.43681C119.001 8.62139 118.893 8.81366 118.725 8.84443C118.648 8.85981 118.571 8.84443 118.502 8.79059V8.79828ZM117.281 11.9208C117.097 11.9515 116.943 11.7977 116.92 11.6439C116.905 11.5362 116.951 11.3978 117.081 11.3286C118.01 10.844 118.333 10.5826 118.932 9.99036C118.986 9.94421 119.032 9.91345 119.078 9.89807C119.239 9.86731 119.377 10.0134 119.4 10.1749C119.416 10.2749 119.385 10.3826 119.308 10.4595C118.364 11.4132 117.419 11.9054 117.273 11.9284L117.281 11.9208ZM122.971 12.8206C124.468 13.7512 126.219 14.328 127.824 14.6125C128.008 14.6433 128.085 14.7433 128.108 14.8663C128.138 15.0509 128.008 15.2586 127.793 15.297C127.501 15.3509 124.844 14.6356 122.771 13.2743L123.278 16.1276C123.309 16.3122 123.163 16.4276 123.009 16.4506C122.84 16.4814 122.664 16.4199 122.633 16.2353L122.172 13.3666C120.613 15.4893 118.31 16.989 118.08 17.0351C117.872 17.0736 117.696 16.9198 117.665 16.766C117.642 16.6429 117.696 16.5199 117.857 16.4276C119.37 15.5893 120.744 14.4203 121.781 13.0205L117.68 13.7589C117.481 13.7896 117.358 13.6589 117.335 13.5128C117.312 13.3666 117.388 13.2128 117.565 13.182L122.003 12.436L121.857 11.6285V11.6131C121.827 11.4285 121.965 11.3132 122.126 11.2901C122.287 11.2593 122.456 11.3209 122.487 11.5054V11.5208L122.602 12.3361L127.102 11.5593C127.286 11.5285 127.409 11.6593 127.432 11.7977C127.455 11.9438 127.386 12.1053 127.202 12.1438L122.963 12.8283L122.971 12.8206ZM122.364 6.88327C123.009 6.79867 123.37 7.15245 123.47 7.59082C123.577 8.07535 123.708 8.67523 123.792 9.2059C123.831 9.41355 123.861 9.61351 123.877 9.79809C123.954 10.3288 123.677 10.7902 123.024 10.944C122.779 10.9979 122.464 11.0517 122.134 11.1055C121.804 11.1594 121.481 11.2132 121.228 11.2517C120.537 11.3439 120.107 11.0363 119.991 10.4903C119.945 10.3057 119.915 10.098 119.876 9.89038C119.784 9.35971 119.715 8.7829 119.646 8.32145C119.577 7.85231 119.807 7.33703 120.514 7.19859C120.652 7.17552 120.782 7.13707 120.928 7.11399C120.944 6.76791 120.974 6.03728 120.974 6.03728C120.982 5.86808 121.12 5.77579 121.266 5.74503C121.435 5.71426 121.612 5.78348 121.65 5.98344C121.673 6.1065 121.619 6.66793 121.558 7.00632C121.85 6.96018 122.134 6.90634 122.372 6.88327H122.364ZM123.078 8.53679C122.871 7.30626 122.856 7.28319 121.481 7.52161C120.475 7.6908 120.145 7.76002 120.222 8.3676C120.253 8.5291 120.276 8.75983 120.322 9.00593L123.078 8.53679ZM120.406 9.50584L120.537 10.2672C120.667 10.8671 121.189 10.7748 122.049 10.6287C122.94 10.4749 123.37 10.3672 123.293 9.77502C123.27 9.57505 123.232 9.32126 123.178 9.0367L120.406 9.50584ZM124.391 8.04458C124.222 8.07535 124.053 7.92153 124.03 7.76771C124.015 7.68311 124.03 7.59082 124.13 7.53699C124.583 7.22936 125.19 6.66024 125.604 6.11419C125.666 6.02959 125.735 5.99113 125.819 5.97575C125.988 5.94499 126.165 6.08342 126.196 6.268C126.211 6.3526 126.196 6.46027 126.104 6.56025C125.704 7.04478 124.606 8.01382 124.391 8.05227V8.04458ZM126.48 10.1749C125.904 9.82116 125.159 9.59044 124.606 9.46738C124.476 9.43662 124.414 9.35971 124.391 9.25973C124.368 9.1213 124.476 8.94441 124.645 8.91364C124.89 8.87519 126.019 9.15975 126.772 9.55198C126.91 9.62889 126.979 9.72887 126.994 9.84423C127.025 10.0134 126.902 10.198 126.733 10.2288C126.656 10.2442 126.572 10.2288 126.472 10.1749H126.48Z" fill="#6B1427"/>
<path d="M135.417 4.57593C135.617 4.55286 135.84 4.64515 135.87 4.86818C135.878 4.92971 135.932 5.42192 136.047 7.72916C136.108 8.87509 136.139 9.91336 136.27 10.9362C136.293 11.1362 136.316 11.3208 136.354 11.513C136.523 12.5436 137.306 12.9974 138.304 12.8666C139.218 12.7513 140.308 12.1591 141.314 11.0977C141.414 10.9824 141.522 10.9362 141.614 10.9209C141.821 10.8978 141.998 11.0593 142.021 11.2669C142.036 11.3746 142.005 11.5207 141.89 11.6361C140.854 12.7359 139.548 13.4204 138.412 13.5588C137.053 13.7357 135.901 13.1512 135.655 11.59C135.617 11.4054 135.594 11.2362 135.579 11.0593C135.44 9.98257 135.44 9.02122 135.348 7.8676C135.287 7.12159 135.225 6.05257 135.126 5.26041L135.087 4.97585C135.056 4.71436 135.225 4.58362 135.41 4.56055L135.417 4.57593Z" fill="#6B1427"/>
<path d="M152.279 8.09833C151.918 9.0443 151.197 10.8747 149.784 11.0055C149.162 11.0593 148.717 10.6748 148.663 10.1056C148.555 8.89048 150.099 7.92144 151.826 7.57535L151.941 7.30617C152.325 6.26791 152.986 4.68361 153.262 3.86838C153.285 3.81454 153.293 3.7684 153.285 3.73763C153.285 3.71456 153.27 3.69149 153.216 3.69149C153.201 3.69149 153.17 3.69149 153.139 3.71456C152.064 4.0991 151.312 4.20677 151.227 4.21447C150.966 4.23754 150.843 4.0991 150.828 3.9376C150.813 3.77609 150.92 3.60689 151.135 3.56844C151.65 3.49922 152.64 3.24542 153.185 3.06853C153.285 3.03777 153.37 3.0147 153.454 3.00701C153.8 2.97624 154.015 3.14544 154.045 3.43C154.061 3.56844 154.022 3.72994 153.938 3.91452C153.423 5.01431 152.924 6.34482 152.502 7.47537C153.37 7.39846 154.475 7.36001 156.042 7.82915C156.088 7.5369 156.103 7.26003 156.08 6.99085C156.049 6.60631 155.927 6.25253 155.727 5.98335C155.696 5.9449 155.681 5.89875 155.681 5.8603C155.666 5.71417 155.819 5.56036 156.003 5.54498C156.41 5.50652 156.694 6.29868 156.756 6.91394C156.787 7.26003 156.756 7.63688 156.679 8.0368C157.455 8.31367 158.161 8.67514 158.745 9.05968C158.891 9.15966 158.967 9.2904 158.975 9.39808C158.99 9.60573 158.852 9.798 158.652 9.81338C158.553 9.82107 158.461 9.79031 158.353 9.7134C157.8 9.2904 157.171 8.94432 156.495 8.66745C155.873 10.4979 154.322 11.7284 153.992 11.7592C153.807 11.7745 153.684 11.6592 153.669 11.5131C153.661 11.4054 153.708 11.2593 153.876 11.1439C154.898 10.3902 155.55 9.40577 155.881 8.44441C154.852 8.11371 153.738 7.97527 152.648 8.05218L152.279 8.08295V8.09833ZM149.308 9.97489C149.323 10.121 149.454 10.3825 149.83 10.3517C150.759 10.2671 151.396 8.74436 151.596 8.21369C150.329 8.52901 149.246 9.27502 149.308 9.97489Z" fill="#6B1427"/>
<path d="M166.446 3.73767C166.085 3.76074 165.294 3.79151 165.264 3.36851C165.256 3.20701 165.356 3.05319 165.555 3.03781C165.601 3.03781 165.655 3.03781 165.717 3.05319C165.97 3.11472 166.269 3.1301 166.592 3.11472C166.961 3.09164 167.368 3.02243 167.751 2.89937C167.882 2.41485 167.943 1.87649 167.989 1.39966C168.005 1.21508 168.158 1.1151 168.312 1.10741C168.489 1.09972 168.65 1.18432 168.665 1.38428C168.681 1.59193 168.489 2.46869 168.427 2.69941C168.788 2.5379 169.134 2.36102 169.395 2.15336C169.456 2.09953 169.517 2.08415 169.579 2.08415C169.756 2.07646 169.894 2.19951 169.909 2.36102C169.932 2.72248 169.126 3.05319 168.274 3.36851C167.782 4.84515 167.03 6.37562 166.17 7.90609C166.078 8.07529 165.932 8.15989 165.801 8.16758C165.624 8.17527 165.471 8.05991 165.463 7.87533C165.463 7.79842 165.479 7.71382 165.532 7.62153C166.63 5.75267 167.03 5.06818 167.59 3.53771C167.214 3.64538 166.83 3.72229 166.454 3.73767H166.446ZM170.631 8.02915C170.6 7.54463 170.516 6.89091 170.485 6.391C170.431 5.49887 170.493 5.29122 170.792 5.27583C170.953 5.26814 171.107 5.36812 171.122 5.56809V5.64499C171.107 5.88341 171.092 6.0603 171.107 6.34486L171.122 6.5602C171.153 7.02934 171.207 7.59077 171.245 8.02146C171.253 8.16758 171.291 8.34447 171.299 8.50598C172.236 8.82899 173.18 9.44426 173.211 9.85187C173.226 10.0595 173.073 10.2364 172.888 10.2441C172.789 10.2441 172.673 10.2056 172.581 10.098C172.274 9.75189 171.821 9.42888 171.322 9.18277L171.307 9.34428C171.145 10.2672 170.255 10.8132 169.326 10.8671C168.281 10.9286 167.375 10.3441 167.337 9.61346C167.298 8.9059 168.128 8.26756 169.387 8.19835C169.794 8.17527 170.232 8.22142 170.662 8.31371L170.646 8.02915H170.631ZM169.372 8.77516C168.75 8.81361 167.897 9.09817 167.928 9.59807C167.951 10.0057 168.596 10.3441 169.264 10.3056C169.924 10.2672 170.523 9.88263 170.631 9.22891C170.646 9.12893 170.654 9.02895 170.662 8.93666C170.232 8.81361 169.794 8.75208 169.372 8.77516ZM173.119 4.56828C172.527 4.23757 171.867 4.09145 171.161 4.1299C171.076 4.1299 170.984 4.15298 170.9 4.16067H170.877C170.692 4.17605 170.585 4.053 170.577 3.91456C170.562 3.69153 170.669 3.5454 171.253 3.51464C171.813 3.48387 173.526 3.64538 173.564 4.22988C173.572 4.41446 173.433 4.58366 173.265 4.59904C173.226 4.59904 173.18 4.59135 173.126 4.56828H173.119Z" fill="#6B1427"/>
<path d="M182.225 4.49909C181.719 4.576 181.243 4.62215 180.935 4.62984C180.713 4.62984 180.598 4.47602 180.59 4.3299C180.59 4.16839 180.69 4.00688 180.905 3.98381C181.312 3.96074 181.703 3.95305 182.156 3.89921L182.963 3.79154C183.108 3.19935 183.285 2.3149 183.385 1.49968C183.408 1.28433 183.577 1.18435 183.738 1.17666C183.915 1.17666 184.091 1.29202 184.091 1.50737C184.091 1.69195 183.892 2.94555 183.677 3.69925C184.644 3.58389 184.659 3.58389 184.69 3.58389C185.857 3.55312 186.157 4.4068 186.18 5.35278C186.257 8.37527 185.128 9.47505 183.876 9.51351C183.393 9.52889 182.74 9.42122 182.732 9.04437C182.732 8.86748 182.863 8.70597 183.07 8.69828C183.108 8.69828 183.147 8.69828 183.185 8.70597C183.439 8.77519 183.669 8.80595 183.899 8.79826C185.427 8.75981 185.55 6.32951 185.527 5.42968C185.504 4.62984 185.343 4.1607 184.598 4.18377C184.414 4.18377 184.076 4.22223 183.531 4.29913C182.963 6.30644 182.133 8.08301 181.181 9.51351C181.058 9.6904 180.905 9.7673 180.751 9.77499C180.551 9.77499 180.39 9.65963 180.383 9.47505C180.383 9.37507 180.413 9.25202 180.536 9.10589C181.365 8.11378 182.256 6.26798 182.809 4.39911L182.218 4.4914L182.225 4.49909ZM189.497 5.93728C189.19 5.18358 188.407 4.19915 187.362 3.6608C187.262 3.61465 187.209 3.53005 187.209 3.43776C187.209 3.29164 187.339 3.13782 187.524 3.13013C188.122 3.11475 190.157 4.97593 190.18 5.76039C190.18 5.9988 190.019 6.16031 189.835 6.168C189.712 6.168 189.574 6.09878 189.505 5.92959L189.497 5.93728ZM189.044 2.89941C188.775 2.60715 188.153 2.22261 187.777 2.08418C187.662 2.03803 187.616 1.96113 187.608 1.87653C187.608 1.75347 187.723 1.61504 187.915 1.60735C188.161 1.60735 189.535 2.19954 189.543 2.67637C189.543 2.85326 189.405 3.00708 189.251 3.00708C189.174 3.00708 189.098 2.97631 189.036 2.89941H189.044ZM190.019 1.93036C189.75 1.65349 189.121 1.28433 188.729 1.13821C188.606 1.09206 188.552 1.00746 188.552 0.915175C188.552 0.792122 188.668 0.653687 188.867 0.645996C189.09 0.645996 190.51 1.19204 190.526 1.68426C190.526 1.86884 190.388 2.01496 190.234 2.01496C190.157 2.01496 190.08 1.99189 190.019 1.92267V1.93036Z" fill="#6B1427"/>
<path d="M200.116 10.2826C199.855 10.2826 199.709 10.1057 199.709 9.92884C199.709 9.76734 199.824 9.60583 200.093 9.55969C200.761 9.42894 201.452 9.22898 201.882 8.98287C203.119 8.26763 203.656 7.44471 203.656 6.79868C203.656 6.05267 203.019 5.76042 202.32 5.76042C201.015 5.76042 199.479 6.72177 198.819 7.29089C198.581 7.49855 198.373 7.59853 198.197 7.59853C197.851 7.59853 197.628 7.29859 197.628 6.36031C197.628 5.8604 197.698 5.29897 197.751 4.89136C197.851 4.08382 198.02 3.27629 198.112 2.73024C198.135 2.53028 198.312 2.4303 198.465 2.4303C198.611 2.4303 198.765 2.53028 198.765 2.71486V2.77638C198.688 3.31474 198.534 4.04537 198.435 4.65294C198.358 5.15285 198.281 5.67582 198.281 6.08344C198.281 6.2834 198.281 6.64487 198.427 6.64487C198.488 6.64487 198.588 6.58334 198.703 6.50643C199.778 5.85271 201.061 5.13747 202.374 5.14516C203.641 5.14516 204.393 5.85271 204.393 6.7833C204.393 7.62929 203.764 8.65986 202.358 9.51354C201.683 9.92115 200.477 10.2749 200.132 10.2749L200.116 10.2826ZM200.239 2.24572C200.193 2.2611 200.155 2.26879 200.101 2.26879C199.901 2.26879 199.778 2.10728 199.778 1.95347C199.778 1.85349 199.817 1.76889 199.932 1.73043C200.254 1.60738 200.408 1.52278 200.408 1.4228C200.408 1.3382 200.285 1.24591 200.047 1.09979C199.156 0.522975 199.095 0.484521 199.095 0.28456C199.095 0.123053 199.233 0 199.417 0C199.502 0 199.602 0.0384541 199.694 0.0999806C199.932 0.276869 200.285 0.499903 200.585 0.676792C200.946 0.899826 201.376 1.17669 201.391 1.47664C201.391 1.82272 201.268 1.94578 200.247 2.24572H200.239Z" fill="#6B1427"/>
<path d="M218.875 8.57538C218.667 8.56769 218.521 8.39849 218.529 8.23699C218.529 8.09855 218.629 7.96781 218.844 7.8909C221.439 7.00645 224.311 4.36081 224.326 3.99165C224.326 3.90706 224.242 3.86091 224.058 3.85322C223.896 3.84553 222.153 3.81477 220.549 3.80707H220.526C220.287 3.79169 220.172 3.63788 220.18 3.49175C220.18 3.34563 220.318 3.18412 220.556 3.18412C221.455 3.16105 223.927 3.23026 224.273 3.24565C224.856 3.27641 225.14 3.54559 225.125 3.89936C225.11 4.18393 224.925 4.52232 223.635 5.66056C223.727 5.83745 223.727 6.05279 223.72 6.29121L223.704 6.52962C223.643 7.26025 223.551 8.41387 223.505 9.45983C223.489 9.74439 223.474 10.0289 223.474 10.2904C223.466 10.4673 223.39 10.7211 223.059 10.7057C222.883 10.698 222.714 10.575 222.729 10.3443V10.3212C222.829 9.26755 222.983 7.93704 223.029 6.92955L223.044 6.60653C223.052 6.42964 223.059 6.28352 223.052 6.14508C220.994 7.8063 219.105 8.58307 218.867 8.57538H218.875ZM224.288 2.03819C223.82 1.67672 222.752 1.30756 222.084 1.23834C221.923 1.21527 221.854 1.09991 221.862 0.976855C221.862 0.815348 221.984 0.661531 222.215 0.669222C222.476 0.684604 224.818 1.13836 224.787 1.7767C224.787 1.95359 224.626 2.1151 224.457 2.1074C224.395 2.1074 224.349 2.07664 224.288 2.03819ZM227.021 8.22929C226.492 7.62172 225.524 6.96031 224.772 6.66037C224.649 6.61422 224.603 6.51424 224.61 6.41426C224.61 6.27583 224.733 6.12201 224.933 6.1297C225.24 6.14508 227.636 7.391 227.605 7.99088C227.597 8.17546 227.428 8.34466 227.244 8.33697C227.167 8.33697 227.098 8.3062 227.021 8.22929Z" fill="#6B1427"/>
<path d="M240.367 10.2749C239.023 10.2441 236.904 10.0672 235.598 9.96724C235.314 9.94417 235.184 9.73651 235.191 9.55963C235.207 9.38274 235.345 9.23661 235.591 9.25199H235.614C236.105 9.30583 236.75 9.36735 237.411 9.42119C238.539 9.51348 239.722 9.5827 240.321 9.59039C240.966 9.59039 241.288 9.35966 241.357 8.85207C241.396 8.50598 241.449 7.98301 241.496 7.46003C241.549 6.814 241.588 6.16798 241.603 5.80651C241.626 5.20662 241.281 5.02204 240.843 4.96821C240.574 4.93744 240.236 4.90668 239.875 4.87592C238.685 4.78363 237.15 4.69134 236.136 4.66058H236.113C235.867 4.6375 235.752 4.48369 235.767 4.32218C235.783 4.16067 235.921 3.99917 236.167 4.00686C237.126 4.04531 238.455 4.12991 239.622 4.2222C240.152 4.26834 240.651 4.3068 241.05 4.35294C242.041 4.46061 242.417 5.05281 242.363 5.76036C242.325 6.26796 242.271 7.0678 242.21 7.85996C242.179 8.26757 242.148 8.66749 242.102 9.03665C242.01 9.9134 241.342 10.2979 240.382 10.2749H240.367Z" fill="#6B1427"/>
<path d="M254.081 10.0135C254.226 10.0289 254.311 10.175 254.296 10.3134C254.28 10.4288 254.219 10.5211 254.088 10.5672C252.576 11.121 249.397 11.6286 249.097 11.5901C248.898 11.567 248.782 11.3748 248.805 11.2056C248.821 11.0671 248.921 10.9595 249.113 10.9441C249.328 10.9287 249.543 10.921 249.773 10.8979C249.85 10.1135 249.973 9.06752 250.095 7.99081C250.264 6.52186 250.441 4.99908 250.564 4.04542C250.664 3.16866 251.04 3.09945 252.422 3.26095C253.574 3.3917 254.165 3.4763 254.057 4.41458C253.927 5.62973 253.75 7.15251 253.589 8.55224L253.397 10.2135C253.397 10.2135 254.019 10.0212 254.081 10.0289V10.0135ZM250.656 8.53685C250.556 9.39053 250.479 10.1981 250.403 10.8133C251.216 10.698 252.038 10.5288 252.76 10.3596C252.814 9.91351 252.883 9.38284 252.952 8.79834L250.656 8.52916V8.53685ZM253.228 6.44495L250.932 6.17577L250.717 8.00619L253.013 8.27537L253.228 6.44495ZM253.29 5.90659C253.351 5.37593 253.397 4.87603 253.436 4.45303C253.482 3.96851 253.274 3.90698 252.468 3.81469C251.47 3.69933 251.232 3.66857 251.17 4.19923C251.109 4.59147 251.055 5.09137 250.994 5.63742L253.29 5.90659ZM257.09 6.37573L257.037 6.72182C256.591 9.55204 255.562 11.99 252.875 13.2206C252.798 13.259 252.721 13.2667 252.645 13.259C252.445 13.2359 252.307 13.0591 252.322 12.8822C252.337 12.7822 252.391 12.6899 252.529 12.6284C255.132 11.4363 255.977 9.15212 256.392 6.6526C256.407 6.53724 256.43 6.42188 256.445 6.29883C255.816 6.22192 255.171 6.16039 254.725 6.11425C254.541 6.09117 254.472 5.94505 254.487 5.79892C254.503 5.6528 254.618 5.51436 254.802 5.53744C255.286 5.59127 255.893 5.6528 256.522 5.72202C256.584 5.3144 256.637 4.86064 256.684 4.42227C256.722 4.09925 256.76 3.79162 256.776 3.50706V3.49168C256.799 3.31479 256.96 3.24557 257.114 3.26864C257.29 3.29172 257.459 3.40708 257.436 3.60704C257.405 3.8916 257.382 4.19154 257.344 4.49918C257.298 4.92217 257.229 5.36055 257.167 5.79892C257.674 5.86045 258.158 5.92967 258.565 5.97581C259.256 6.05272 259.686 6.54493 259.617 7.26787C259.586 7.51398 259.571 7.76777 259.54 8.03695C259.087 11.9208 258.281 13.7358 256.399 13.5128C256.077 13.4744 255.739 13.3821 255.378 13.2283C255.225 13.159 255.163 13.0052 255.186 12.8514C255.209 12.6745 255.34 12.5207 255.539 12.5438C255.578 12.5438 255.624 12.5668 255.67 12.5822C255.939 12.713 256.207 12.8053 256.469 12.836C257.236 12.9283 258.319 12.736 258.864 8.02157C258.895 7.76008 258.91 7.51397 258.933 7.29094C258.972 6.82949 258.718 6.56031 258.296 6.51417L257.075 6.37573H257.09Z" fill="#6B1427"/>
<path d="M266.873 13.6204C266.527 12.5975 266.535 11.6131 266.681 10.6671C266.842 9.62118 267.18 8.5983 267.418 7.60618C267.595 6.89094 267.733 6.49871 267.84 5.96035C267.886 5.72962 268.063 5.65272 268.224 5.67579C268.393 5.70655 268.547 5.85268 268.516 6.05264C268.462 6.39873 268.209 7.31393 268.055 7.79845C267.771 8.75212 267.456 9.72116 267.311 10.6287C267.295 10.7056 267.103 11.9361 267.326 11.9669C267.372 11.9746 267.433 11.9207 267.503 11.8054L268.186 10.7287C268.286 10.5902 268.393 10.5441 268.493 10.5595C268.639 10.5825 268.754 10.7287 268.731 10.8902C268.731 10.9286 268.716 10.9748 268.685 11.0055C268.124 11.8746 267.741 12.636 267.625 13.2205C267.618 13.282 267.61 13.4051 267.595 13.5204C267.541 13.8742 267.28 13.8973 267.165 13.8819C267.042 13.8665 266.942 13.7819 266.881 13.6204H266.873ZM273.645 8.60599C274.091 8.59061 274.482 8.54446 274.805 8.5137C274.843 8.5137 274.882 8.5137 274.92 8.5137C275.112 8.54446 275.227 8.72904 275.204 8.88286C275.158 9.16742 274.981 9.19818 273.553 9.22895C273.484 9.65963 273.438 10.0672 273.361 10.6979C273.346 10.8594 273.323 11.0055 273.3 11.1517C272.954 13.3512 272.01 14.8356 270.09 15.7969C269.983 15.8584 269.867 15.8661 269.783 15.8507C269.583 15.82 269.461 15.6585 269.484 15.5047C269.499 15.4047 269.568 15.3047 269.729 15.2432C271.541 14.4279 272.34 12.9436 272.662 10.8748C272.693 10.6748 272.724 10.4902 272.877 9.25971C272.271 9.25971 271.672 9.23664 271.134 9.15204C270.236 9.0136 270.113 8.86748 270.152 8.5983C270.175 8.43679 270.32 8.29836 270.559 8.33681C270.597 8.33681 270.628 8.35219 270.681 8.36758C270.881 8.43679 271.127 8.49832 271.396 8.54446C271.872 8.62137 272.424 8.64444 272.97 8.63675L273.054 8.0984C273.177 7.31393 273.146 7.03706 273.192 6.56792V6.52947C273.238 6.26798 273.43 6.19107 273.615 6.21415C273.983 6.27567 274.006 6.51409 273.899 7.24472C273.86 7.49082 273.807 7.76 273.753 8.08301L273.668 8.62137L273.645 8.60599Z" fill="#6B1427"/>
</g>
<defs>
<clipPath id="clip0_59_690">
<rect width="380" height="119" fill="white"/>
</clipPath>
</defs>
</svg>
