<svg width="516" height="260" viewBox="0 0 516 260" fill="none" xmlns="http://www.w3.org/2000/svg">
<g clip-path="url(#clip0_52_317)">
<path d="M42.8481 251.549L63.9313 143.533L98.8903 221.568L134.147 143.533L153.131 251.549H137.472L127.218 190.993L97.9987 256.23L69.0767 190.844L58.5258 251.549H42.8667H42.8481Z" fill="#F5EFE6"/>
<path d="M211.866 188.132H226.634V251.549H211.866V244.917C205.384 252.44 197.396 253.499 192.882 253.499C173.304 253.499 162.158 237.227 162.158 219.748C162.158 199.11 176.313 186.46 193.049 186.46C197.712 186.46 205.848 187.668 211.885 195.507V188.132H211.866ZM177.205 220.063C177.205 231.06 184.133 240.255 194.833 240.255C204.176 240.255 212.758 233.475 212.758 220.212C212.758 206.949 204.176 199.723 194.833 199.723C184.133 199.723 177.205 208.77 177.205 220.063Z" fill="#F5EFE6"/>
<path d="M242.293 188.132H257.06V193.853C258.714 191.903 261.128 189.785 263.246 188.578C266.107 186.925 268.967 186.479 272.292 186.479C275.915 186.479 279.834 187.073 283.902 189.488L277.884 202.9C274.577 200.782 271.865 200.634 270.342 200.634C267.184 200.634 264.008 201.079 261.147 204.107C257.079 208.472 257.079 214.509 257.079 218.726V251.567H242.312V188.151L242.293 188.132Z" fill="#F5EFE6"/>
<path d="M336.731 207.562C329.95 200.931 323.319 199.723 318.805 199.723C311.877 199.723 307.511 202.584 304.799 205.296C302.087 208.008 299.375 212.838 299.375 219.915C299.375 226.992 302.236 232.268 305.097 235.128C308.403 238.286 313.084 240.255 318.508 240.255C324.526 240.255 331.622 237.84 336.731 232.119V248.54C333.108 250.806 327.238 253.518 317.449 253.518C306.898 253.518 299.375 250.509 293.338 244.174C288.824 239.512 284.292 231.97 284.292 220.379C284.292 208.788 289.27 200.485 293.933 195.822C298.911 190.844 306.88 186.479 319.4 186.479C324.229 186.479 329.95 187.241 336.731 190.993V207.562Z" fill="#F5EFE6"/>
<path d="M347.876 141.731L362.643 130.481V193.556C368.978 187.073 375.906 186.479 379.659 186.479C391.25 186.479 396.525 192.498 398.345 195.061C402.265 200.782 402.414 208.175 402.414 212.689V251.549H387.646V214.045C387.646 210.274 387.646 206.206 384.785 203.048C383.132 201.247 380.272 199.742 376.501 199.742C371.523 199.742 367.603 202.157 365.653 205.017C363.535 208.027 362.643 212.856 362.643 220.992V251.567H347.876V130.5V141.731Z" fill="#F5EFE6"/>
<path d="M473.204 237.078C470.492 241.908 466.573 246.125 462.505 248.688C457.378 251.995 450.598 253.499 443.818 253.499C435.385 253.499 428.456 251.4 422.419 245.363C416.401 239.345 413.076 230.596 413.076 221.104C413.076 211.612 416.549 201.822 423.162 195.042C428.438 189.767 435.366 186.46 444.412 186.46C454.499 186.46 460.982 190.826 464.753 194.745C472.889 203.178 473.632 214.937 473.632 221.568V223.37H428.14C428.438 227.884 430.407 233.01 433.564 236.168C437.038 239.642 441.255 240.236 444.858 240.236C448.926 240.236 451.936 239.326 454.945 237.078C457.508 235.128 459.459 232.565 460.815 230.15L473.167 237.078H473.204ZM458.604 211.333C458.01 207.859 456.338 204.85 454.09 202.751C452.14 200.949 448.963 199.129 444.152 199.129C439.026 199.129 435.719 201.246 433.75 203.197C431.633 205.147 429.979 208.175 429.236 211.333H458.604ZM463.564 156.795L440.066 178.491L431.93 173.365L450.004 149.867L463.564 156.795Z" fill="#F5EFE6"/>
<path d="M303.425 123.39H302.013V129.966H303.462C306.248 129.966 307.567 128.61 307.567 126.659C307.567 125.489 307.103 123.409 303.425 123.409V123.39Z" fill="#F5EFE6"/>
<path d="M275.469 126.641C275.469 123.669 272.664 123.39 271.085 123.39H269.989V130.077H270.992C271.884 130.077 275.469 129.984 275.469 126.641Z" fill="#F5EFE6"/>
<path d="M253.029 123C248.516 123 245.302 126.288 245.302 130.95C245.302 135.613 248.516 138.901 253.029 138.901C257.543 138.901 260.757 135.613 260.757 130.95C260.757 126.288 257.543 123 253.029 123Z" fill="#F5EFE6"/>
<path d="M340.446 108L175.304 108C163.044 108 153.125 117.938 153.125 130.179C153.125 142.42 163.062 152.358 175.304 152.358L340.446 152.358C352.705 152.358 362.625 142.42 362.625 130.179C362.625 117.938 352.687 108 340.446 108ZM204.984 142.903L189.697 126.891V141.603H186.483V119.127L201.771 135.139V120.557H204.984V142.903ZM221.015 123.566H212.619V128.897H220.773V131.925H212.619V138.557H221.015V141.584H209.387V120.52H221.015V123.548V123.566ZM240.166 125.461C237.826 123.343 235.652 123.12 234.445 123.12C229.875 123.12 226.773 126.501 226.773 131.145C226.773 135.789 229.987 139.04 234.482 139.04C237.008 139.04 238.959 137.739 240.166 136.606V140.433C238.048 141.696 235.838 142.012 234.389 142.012C230.563 142.012 228.166 140.284 226.94 139.114C224.47 136.811 223.56 134.117 223.56 131.164C223.56 127.281 225.176 124.588 226.94 122.916C229.114 120.873 231.64 120.167 234.556 120.167C236.488 120.167 238.346 120.52 240.185 121.69V125.48L240.166 125.461ZM252.797 142.012C246.482 142.012 241.838 137.275 241.838 131.089C241.838 124.904 246.482 120.167 252.797 120.167C259.113 120.167 263.757 124.904 263.757 131.089C263.757 137.275 259.113 142.012 252.797 142.012ZM276.351 141.603L270.314 132.984H269.738V141.603H266.525V120.538H270.277C272.84 120.538 274.475 120.854 275.831 121.764C278.134 123.306 278.32 125.814 278.32 126.724C278.32 129.752 276.462 131.962 273.639 132.594L280.215 141.584H276.332L276.351 141.603ZM294.369 123.566H285.973V128.897H294.128V131.925H285.973V138.557H294.369V141.584H282.741V120.52H294.369V123.548V123.566ZM308.375 131.405C306.703 132.817 304.772 133.04 303.23 133.04H301.781V141.603H298.567V120.538H303.211C304.511 120.538 306.313 120.668 307.818 121.672C309.583 122.842 310.437 124.867 310.437 126.78C310.437 128.006 310.121 129.901 308.394 131.387L308.375 131.405ZM326.078 141.603L323.867 136.513H314.877L312.573 141.603H309.1L319.576 119.312L329.551 141.603H326.078Z" fill="#F5EFE6"/>
<path d="M316.427 133.365H322.817L319.678 126.232L316.427 133.365Z" fill="#F5EFE6"/>
<path d="M515.835 175.482L459.143 96.8338C458.586 96.0536 457.713 95.5335 456.728 95.6264C366.061 97.5025 265.884 43.9123 259.94 40.6802V30.2408L305.635 16.7736C306.23 16.6064 306.638 16.0491 306.638 15.4361C306.638 14.8232 306.23 14.2659 305.635 14.0987L257.933 0.0556661C257.506 -0.0743621 257.06 0.0185152 256.708 0.278572C256.355 0.538628 256.15 0.965864 256.15 1.3931V29.4792C256.15 29.5907 256.206 29.7021 256.225 29.8136V40.8474C247.606 45.4912 149.081 97.4097 59.7705 95.6078C58.7674 95.5335 57.9129 96.0351 57.3557 96.8152L0.663353 175.482C-0.26542 176.783 0.0132121 178.584 1.31349 179.532C2.61378 180.461 4.4156 180.163 5.36294 178.882L61.1636 101.459C62.2967 101.459 63.4113 101.478 64.5444 101.478C151.812 101.478 245.692 53.0515 258.249 46.3643C270.806 53.0515 364.668 101.478 451.954 101.478C453.069 101.478 454.202 101.478 455.335 101.459L511.136 178.882C511.693 179.662 512.584 180.089 513.495 180.089C514.089 180.089 514.665 179.903 515.185 179.55C516.485 178.622 516.783 176.801 515.835 175.501V175.482Z" fill="#F5EFE6"/>
</g>
<defs>
<clipPath id="clip0_52_317">
<rect width="516" height="260" fill="white"/>
</clipPath>
</defs>
</svg>
