<svg width="114" height="10" viewBox="0 0 114 10" fill="none" xmlns="http://www.w3.org/2000/svg">
<g clip-path="url(#clip0_50_358)">
<path d="M7.32519 5.4796L1.96488 -0.0258789H0V9.79002H2.10594V3.82469L7.9621 9.93337H9.41831V-0.0258789H7.32519V5.4796Z" fill="white"/>
<path d="M11.6411 9.79002H19.7072V8.29975H14.6547V5.15883H18.8523V3.82327H14.6547V1.30117H19.7072V-0.0258789H11.6411V9.79002Z" fill="white"/>
<path d="M30.0403 2.60838C30.2811 2.8454 30.5033 3.09946 30.7071 3.36487L30.8581 3.56357L32.3457 2.61264L32.1975 2.38413C31.9524 2.0066 31.666 1.65177 31.344 1.32959C31.0191 1.00599 30.643 0.722127 30.2312 0.487942C29.8208 0.253757 29.3549 0.0706692 28.8477 -0.0599066C28.3447 -0.189063 27.7847 -0.25293 27.1849 -0.25293C26.585 -0.25293 26.0264 -0.196159 25.4936 -0.085453C24.9592 0.0280911 24.462 0.192729 24.0131 0.405624C23.5643 0.6171 23.1525 0.878251 22.792 1.18056C22.4301 1.48571 22.1181 1.83202 21.8659 2.21381C21.6151 2.59419 21.4185 3.0143 21.2845 3.45996C21.1492 3.90704 21.0836 4.38393 21.0836 4.87785C21.0836 5.64569 21.2432 6.35534 21.5567 6.98551C21.8701 7.61142 22.3118 8.15786 22.8718 8.60777C23.4261 9.05202 24.0915 9.39974 24.8467 9.64103C25.599 9.88089 26.434 10.0029 27.3259 10.0029C27.8617 10.0029 28.3817 9.92772 28.869 9.78154C29.3506 9.63677 29.8023 9.43949 30.2127 9.19395C30.6216 8.94983 30.9921 8.66455 31.3198 8.34662C31.6475 8.03012 31.9296 7.69516 32.159 7.35311L32.3086 7.13028L30.8396 6.13819L30.6843 6.34256C30.4848 6.60514 30.2654 6.86487 30.036 7.11325C29.818 7.34885 29.5815 7.55749 29.3321 7.7349C29.087 7.90806 28.8206 8.04999 28.5399 8.15502C28.2663 8.25437 27.9657 8.30546 27.6451 8.30546C27.2219 8.30546 26.8087 8.23024 26.414 8.08263C26.0222 7.93502 25.6731 7.71645 25.3739 7.43117C25.0746 7.14447 24.8281 6.78397 24.6458 6.3596C24.4634 5.93381 24.3708 5.43563 24.3708 4.87643C24.3708 4.31722 24.4577 3.80769 24.6315 3.3819C24.8039 2.95611 25.0376 2.59845 25.3268 2.31317C25.6175 2.02931 25.9595 1.81074 26.3413 1.66313C26.7289 1.51552 27.1421 1.4403 27.5681 1.4403C27.8745 1.4403 28.1737 1.48997 28.4544 1.5879C28.7422 1.68725 29.0215 1.82777 29.2879 1.99808C29.5558 2.17266 29.8094 2.37845 30.0403 2.6098" fill="white"/>
<path d="M44.7191 2.17387C44.4598 1.80202 44.1421 1.46281 43.7745 1.16901C43.4125 0.875214 43.0022 0.618318 42.5591 0.412519C42.1173 0.20814 41.6357 0.047762 41.1214 -0.0629436C40.6098 -0.173649 40.0656 -0.229004 39.507 -0.229004C38.9485 -0.229004 38.4042 -0.173649 37.8941 -0.0629436C37.3783 0.047762 36.8967 0.205303 36.4564 0.409682C36.0133 0.614062 35.6029 0.868118 35.2381 1.16475C34.8705 1.46281 34.5528 1.80344 34.2935 2.17387C34.0341 2.54715 33.8318 2.96017 33.6893 3.40157C33.5468 3.84582 33.4756 4.32128 33.4756 4.81661C33.4756 5.31195 33.5483 5.80303 33.6893 6.25579C33.8318 6.70713 34.0327 7.13008 34.292 7.51329C34.5514 7.89792 34.8662 8.24707 35.2339 8.55506C35.5958 8.85737 36.0061 9.11852 36.4521 9.33426C36.8952 9.54715 37.3783 9.71321 37.8898 9.82818C38.4042 9.94172 38.947 10.0013 39.507 10.0013C40.067 10.0013 40.6084 9.94456 41.1214 9.83527C41.6357 9.72315 42.1188 9.56135 42.5605 9.35129C43.0022 9.14123 43.4125 8.8815 43.7787 8.58061C44.1463 8.27546 44.4641 7.92489 44.7206 7.5431C44.9799 7.15847 45.1822 6.73126 45.3247 6.27282C45.4672 5.81439 45.5384 5.32189 45.5384 4.80526C45.5384 4.28864 45.4658 3.84014 45.3247 3.40015C45.1822 2.95875 44.977 2.54857 44.7191 2.17387ZM42.2513 4.81661C42.2513 5.38717 42.1886 5.918 42.0646 6.39772C41.9449 6.86893 41.764 7.27911 41.5289 7.61832C41.2981 7.9476 41.0117 8.20875 40.674 8.39468C40.3434 8.57635 39.9516 8.67144 39.5084 8.67144C39.0653 8.67144 38.6663 8.57777 38.3301 8.39468C37.9924 8.20875 37.706 7.9476 37.4794 7.61974C37.2443 7.2791 37.0662 6.86893 36.9437 6.39772C36.8212 5.91941 36.7585 5.38717 36.7585 4.81661C36.7585 4.24606 36.8197 3.73653 36.9437 3.27383C37.0634 2.81966 37.2429 2.42509 37.4752 2.10149C37.7003 1.78499 37.9867 1.53661 38.3229 1.36345C38.6592 1.18888 39.0582 1.10088 39.507 1.10088C39.9558 1.10088 40.3463 1.18888 40.6811 1.36203C41.0159 1.53661 41.3023 1.78499 41.5317 2.10149C41.7668 2.42509 41.9449 2.81966 42.0661 3.27383C42.19 3.73653 42.2527 4.25457 42.2527 4.81661H42.2513Z" fill="white"/>
<path d="M56.403 4.78124C56.7008 4.63647 56.9558 4.46332 57.1681 4.26603C57.3804 4.06733 57.5457 3.84592 57.6597 3.6018C57.7765 3.35768 57.8335 3.09227 57.8335 2.80983C57.8335 2.46777 57.758 2.15127 57.6084 1.86173C57.4574 1.5722 57.2308 1.3224 56.9359 1.11234C56.6381 0.900866 56.2676 0.736226 55.8216 0.618423C55.3742 0.502041 54.8556 0.443848 54.26 0.443848H50.8489V9.51887H52.5046V5.25245H53.6644L57.0898 9.51887H59.0076L55.4184 5.11619C55.7775 5.03671 56.1052 4.926 56.4015 4.78124M54.4908 4.6606C54.1773 4.75143 53.8325 4.79685 53.4592 4.79685H52.5046V1.01299H53.9622C54.2628 1.01299 54.5421 1.05841 54.7972 1.14924C55.0522 1.2415 55.2716 1.36782 55.4554 1.52962C55.6407 1.69284 55.7846 1.8887 55.8872 2.11721C55.9912 2.34571 56.0425 2.59409 56.0425 2.86234C56.0425 3.15897 55.9784 3.42581 55.8487 3.66283C55.719 3.90269 55.5381 4.10423 55.3073 4.27455C55.0764 4.44203 54.8029 4.56834 54.4908 4.6606Z" fill="white"/>
<path d="M59.522 9.52033H66.3727V8.93416H61.1777V4.86218H64.6543V4.27601H61.1777V1.03291H66.3727V0.445312H59.522V9.52033Z" fill="white"/>
<path d="M73.2319 1.12232C72.8999 0.900907 72.5081 0.733431 72.0564 0.618468C71.6062 0.502085 71.1246 0.445312 70.6102 0.445312H67.4897V9.52033H69.1469V5.32062C69.2352 5.34049 69.3535 5.36178 69.5031 5.37739C69.6513 5.39584 69.8137 5.41287 69.9875 5.42707C70.1628 5.44126 70.3437 5.45261 70.5332 5.46255C70.7213 5.47106 70.9009 5.47674 71.0704 5.47674C71.4708 5.47674 71.8669 5.42706 72.2573 5.32913C72.6449 5.2312 72.9925 5.08075 73.2975 4.88063C73.601 4.67767 73.846 4.42362 74.0327 4.11847C74.2193 3.81048 74.312 3.45281 74.312 3.0398C74.312 2.62678 74.2165 2.25918 74.0213 1.937C73.8289 1.61624 73.5653 1.34657 73.2319 1.12374M72.397 3.86157C72.31 4.09008 72.179 4.2902 72.0008 4.46194C71.8227 4.63367 71.6019 4.76709 71.3354 4.86644C71.0676 4.96437 70.7555 5.01121 70.3965 5.01121C70.1742 5.01121 69.9562 4.9885 69.7424 4.94734C69.5287 4.90334 69.3292 4.85934 69.1454 4.80967V1.11806H70.3195C70.6259 1.11806 70.9151 1.16632 71.183 1.26141C71.4523 1.35509 71.6874 1.49134 71.8854 1.66449C72.0835 1.83765 72.2402 2.04912 72.3571 2.29892C72.471 2.54872 72.5295 2.82548 72.5295 3.12921C72.5295 3.39037 72.4853 3.63307 72.3984 3.86157H72.397Z" fill="white"/>
<path d="M83.1376 6.33537C83.1376 6.72142 83.0678 7.08477 82.9253 7.42682C82.7842 7.76745 82.5819 8.0655 82.3169 8.32098C82.0533 8.57929 81.7327 8.77941 81.3537 8.92702C80.9761 9.07605 80.5515 9.14985 80.0798 9.14985C79.6082 9.14985 79.1893 9.07605 78.8117 8.92702C78.4341 8.77941 78.1107 8.57929 77.8414 8.32098C77.5735 8.0655 77.3669 7.76745 77.223 7.42682C77.0805 7.08477 77.0093 6.72142 77.0093 6.33537V0.445268H75.3522V6.30273C75.3522 6.77252 75.4434 7.21534 75.6257 7.6312C75.8067 8.04847 76.0746 8.41324 76.4279 8.72406C76.7827 9.03631 77.2202 9.28327 77.7459 9.46352C78.2689 9.64377 78.8716 9.7346 79.5498 9.7346C80.3149 9.7346 80.969 9.64377 81.5147 9.46352C82.0604 9.28327 82.5064 9.03773 82.8569 8.7269C83.206 8.41749 83.461 8.05699 83.6249 7.64681C83.7873 7.23663 83.8671 6.79807 83.8671 6.33395V0.443848H83.139V6.33395" fill="white"/>
<path d="M92.3721 5.5733C92.1712 5.38169 91.929 5.22415 91.6426 5.10067C91.3562 4.97719 91.0399 4.88919 90.6908 4.8381V4.81113C91.0399 4.66069 91.3305 4.50882 91.5614 4.35837C91.7922 4.20935 91.9774 4.05039 92.1142 3.88291C92.251 3.71685 92.3465 3.53518 92.4049 3.3379C92.4605 3.14487 92.4904 2.92204 92.4904 2.67366C92.4904 2.34439 92.4035 2.04207 92.2282 1.76957C92.053 1.49564 91.8107 1.26146 91.4958 1.06417C91.1824 0.86973 90.8048 0.717863 90.3673 0.609996C89.9271 0.50071 89.4469 0.446777 88.9225 0.446777H84.9529V9.5218H89.5523C90.0767 9.5218 90.5497 9.45935 90.9758 9.33445C91.4004 9.20955 91.7623 9.03498 92.0629 8.81215C92.3621 8.59074 92.593 8.33242 92.7554 8.03153C92.9193 7.73206 93.0005 7.40987 93.0005 7.0664C93.0005 6.76267 92.9449 6.48449 92.838 6.23611C92.7283 5.98631 92.5744 5.76632 92.3735 5.57472M86.6071 1.0514H87.9722C88.468 1.0514 88.8926 1.09398 89.2474 1.1763C89.6008 1.2572 89.8929 1.37642 90.1251 1.52971C90.3559 1.68441 90.5255 1.87034 90.6338 2.08749C90.7435 2.30464 90.7962 2.54593 90.7962 2.81134C90.7962 3.05971 90.7506 3.2868 90.6594 3.49402C90.5668 3.70408 90.4315 3.88433 90.2548 4.03903C90.0795 4.19374 89.8615 4.31296 89.6008 4.39954C89.3414 4.48753 89.0465 4.53011 88.7159 4.53011H86.6071V1.0514ZM91.0413 7.82289C90.9302 8.03863 90.7592 8.22172 90.5269 8.37358C90.2961 8.52687 90.0026 8.64467 89.6492 8.72841C89.2944 8.81357 88.8784 8.85472 88.3968 8.85472H86.6057V5.08931H88.3469C88.8755 5.08931 89.3229 5.14325 89.6848 5.24828C90.0482 5.35188 90.3431 5.49523 90.5697 5.67407C90.7948 5.85432 90.9601 6.06863 91.057 6.31701C91.1567 6.56539 91.2066 6.83222 91.2066 7.1175C91.2066 7.37297 91.151 7.61141 91.0399 7.82431L91.0413 7.82289Z" fill="white"/>
<path d="M95.6436 0.445312H93.9879V9.52033H100.606V8.93416H95.6436V0.445312Z" fill="white"/>
<path d="M103.255 0.445312H101.599V9.52033H103.255V0.445312Z" fill="white"/>
<path d="M112.77 7.74477C112.552 7.99457 112.306 8.2174 112.031 8.41468C111.753 8.61339 111.457 8.77377 111.135 8.89725C110.813 9.02215 110.481 9.08318 110.137 9.08318C109.557 9.08318 109.017 8.99092 108.52 8.80641C108.023 8.6219 107.592 8.35366 107.228 8.00451C106.864 7.65678 106.579 7.22957 106.373 6.72572C106.163 6.22186 106.061 5.6513 106.061 5.01262C106.061 4.37393 106.168 3.80195 106.38 3.29384C106.591 2.78573 106.88 2.35285 107.25 1.99802C107.617 1.64036 108.048 1.36785 108.544 1.17766C109.04 0.984638 109.573 0.890966 110.144 0.890966C110.804 0.890966 111.39 1.0627 111.9 1.40475C112.408 1.74964 112.872 2.28614 113.288 3.02134L114.001 2.57709C113.798 2.27336 113.555 1.98099 113.273 1.69855C112.991 1.41469 112.665 1.16631 112.3 0.950574C111.934 0.737678 111.532 0.564526 111.09 0.43395C110.65 0.303374 110.169 0.239502 109.644 0.239502C109.091 0.239502 108.573 0.299114 108.087 0.414078C107.601 0.53188 107.154 0.695101 106.747 0.907996C106.339 1.11805 105.971 1.37211 105.646 1.6659C105.321 1.96254 105.046 2.28614 104.822 2.63954C104.597 2.99295 104.426 3.37191 104.305 3.77357C104.186 4.17523 104.126 4.58967 104.126 5.01404C104.126 5.43841 104.184 5.85285 104.301 6.25309C104.419 6.65191 104.587 7.02661 104.807 7.37576C105.026 7.72491 105.297 8.04567 105.615 8.33662C105.932 8.62758 106.293 8.87738 106.698 9.0846C107.101 9.29039 107.544 9.45078 108.024 9.56432C108.504 9.6807 109.016 9.73748 109.56 9.73748C110.104 9.73748 110.637 9.67077 111.096 9.54303C111.555 9.41246 111.965 9.24072 112.329 9.0264C112.691 8.81067 113.011 8.56229 113.288 8.27843C113.563 7.99741 113.802 7.70361 114.004 7.39846L113.312 6.98829C113.169 7.2466 112.99 7.49781 112.775 7.74903" fill="white"/>
<path d="M27.4755 2.03491C27.3331 2.03491 26.1732 3.30802 26.1732 4.80823C26.1732 6.30843 27.2803 7.58154 27.4755 7.58154C27.695 7.58154 28.6753 6.26727 28.6753 4.80823C28.6753 3.34918 27.6964 2.03491 27.4755 2.03491Z" fill="white"/>
</g>
<defs>
<clipPath id="clip0_50_358">
<rect width="114" height="10" fill="white"/>
</clipPath>
</defs>
</svg>
