<svg fill="none" height="119" viewBox="0 0 380 119" width="380" xmlns="http://www.w3.org/2000/svg" xmlns:xlink="http://www.w3.org/1999/xlink"><clipPath id="a"><path d="m0 0h380v119h-380z"/></clipPath><g clip-path="url(#a)"><path clip-rule="evenodd" d="m47.3685 87.0908c-.5912.7383-.6987 1.8535-.8293 3.0379-.261 2.4226-.2994 5.2682.4608 7.3139.1151.3.3224.6691.5528.9691.5912.769 1.5127 1.7383 2.4802 2.1613.4376.192.9982.269 1.5126.461.4761.185 1.2823.6 1.4666.877.2534.385.1459 1.223.2304 1.838.046.331.1612.454.0921.831-.0461.261-.215.346-.3686.646-.1996.392-.1766.692-.4607 1.015-.3993.454-1.3437 1.2-1.6969 1.284-.4991.123-1.4282.062-2.1577 0-1.2439-.107-2.7182-.3-3.6242-.738-.3072-.146-.5759-.523-.8754-.692-.7678-.439-1.5433-.554-1.5587-1.608-.4453-.892-1.1441-2.222-1.4666-3.353-.1152-.407-.1075-.846-.2764-1.1995-.0845-.1846-.3148-.3615-.3686-.5538-.1459-.5537-.046-1.2536-.1382-1.8842-.0921-.623-.0614-1.2767-.1382-1.8843-.0384-.2999-.1996-.5922-.2304-.8767-.0691-.6768-.1996-1.3459-.1382-2.0689.0384-.4614.2765-.9306.2765-1.4228 0-.5845-.1306-1.169-.1843-1.7458-.0691-.7921.0537-1.5997.046-2.3918 0-.4153-.1612-.8076-.2303-1.2383-.1075-.6921 0-1.3228-.2764-1.8381-.5682-.023-1.0289.2308-1.6048.2769-.5222.0385-1.0213-.0923-1.29.1846-.1075.1154-.2841.7537-.3225 1.0613-.1305 1.169-.0307 2.4765-.1382 3.8147-.1152 1.3997-.1075 2.8763 0 4.1838.0691.8229.1535 1.592.0921 2.3918-.0461.5461-.1843 1.0767-.2303 1.6074-.0538.5768 0 1.1305-.0461 1.6997-.023.2768-.1689.5922-.2304.923-.0614.315-.0614.692-.1382 1.007-.1689.769-.6603 1.585-.8753 2.346-.1536.546-.1536 1.038-.3225 1.423-.1152.261-.4147.577-.645.923-.2304.338-.5068.753-.7832.923-.453.269-1.6125.884-2.2959.961-.2764.031-.5759-.023-.8753 0-.6297.046-1.6816.292-2.5723.185-1.1518-.139-2.1039-1.023-2.8948-1.654-.215-.169-.4761-.346-.5528-.508-.1766-.376-.215-1.584-.0922-2.022.0922-.331.4684-.777.7371-1.015.5683-.493 1.4436-.8 2.2038-1.285.7601-.484 1.1978-1.169 1.7891-1.6533.1305-.6383.5144-1.0152.7832-1.5151.4914-1.6997.2917-4.2915 0-6.2065-.0691-.446-.0461-.9229-.1383-1.2843-.0691-.3-.3608-.5461-.4607-.8306-.1305-.3692-.1535-.8691-.2764-1.2844-.0845-.3-.2841-.5461-.3225-.7845-.0768-.446.0845-1.1075 0-1.5151-.0844-.423-.4453-.746-.5068-1.1459-.0307-.2077.0154-.4307 0-.646-.0384-.4384-.1535-.7845-.2303-1.3767-.192-1.4536-1.098-2.8687-1.4666-4.4607-.1996-.869-.4146-1.615-.5989-2.5302-.1382-.6999-.4223-1.3459-.5989-1.9766-.0615-.2307-.0538-.4768-.1383-.6922-.0844-.223-.3301-.4383-.3685-.6921-.0845-.5461-.1766-1.1921-.3225-1.8381-.1306-.5999-.407-1.1844-.4607-1.6536-.1536-1.3843-.0845-2.8225-.2765-4.276-.0383-.2769-.1689-.5461-.1842-.8307-.0308-.8152.3762-1.8996.2303-2.8533-.0768-.4691-.3455-.8998-.3225-1.3382.0077-.2153.1689-.4306.1843-.646.0154-.1999-.0921-.3999-.0921-.5999 0-.323.1612-.6537.1842-.969.0231-.2923-.0537-.5845-.046-.8768 0-.2614.1151-.5076.1382-.7844.0384-.4538-.0461-.9306 0-1.3767.023-.2307.1228-.4691.1843-.7383.0537-.2461.0384-.5614.0921-.7845.0845-.3384.2995-.6383.3686-.969.0768-.3461.023-.7076.0921-1.0613.0922-.4461.4454-.8537.3686-1.3305-1.8812.3076-4.1157.5229-6.519.3691-3.0561-.1999-5.6668-1.392-7.3483-2.8533-.68342.3692-1.13645 1.0614-1.69698 1.6074-.33018.3153-.69106.5768-.82928 1.0998-.4991.2692-.90606.6845-1.42051 1.1536-.31482.2846-.58357.7691-.92142.5999-.68338-.3538.35321-1.069.50678-1.3305 1.59712-.8998 2.57229-2.4226 3.90066-3.5839-.29946-.423-.69106-.7537-1.01356-1.1537-1.04427.7153-2.29586 1.4613-3.30942 2.3457-.33785.2923-.61427.6461-.96748.8768-.19964.1307-.45303.1846-.645.323-.27642.2-.52981.6691-.87534.8306-.11518.0539-.40696.1154-.64499.1846-.28411.0846-.43.1923-.55285 0-.26875-.423 1.04427-1.2228 1.42051-1.469 1.26695-.8382 2.32658-1.4228 3.5321-2.3456.215-.1616.46839-.4077.82928-.6461.29178-.1922.79088-.423.82927-.646.06143-.4076-.58356-.9614-.69106-1.2844-.44535.0846-.8216.3999-1.19784.6461-.73714.4922-1.47427.9459-2.20373 1.4689-.36856.2615-.65267.6383-1.01355.8306-.36089.1923-1.09035.4538-1.51266.0923.05375-.4461.57588-.8614 1.01356-1.1075.58356-.3307 1.21319-.6383 1.97336-.8306.88303-.5537 1.75837-1.1228 2.61836-1.6997-.08446-.8152-.52213-1.5535-.64499-2.5302-.09982-.8153.09982-1.6843 0-2.5303-.04607-.3538-.27642-.7076-.3225-1.0613-.19964-.4769-.56052-.823-.7832-1.2844-.06911-.1384-.06911-.3076-.13821-.4615-.20732-.4383-.54517-.9152-.82928-1.3766-.23035-.3769-.58356-.9152-.87534-1.2844-.13054-.1692-.37625-.2769-.50678-.4614-.15357-.2154-.30714-.5768-.46071-.8768-.14589-.2769-.25339-.5922-.41464-.8767-.31482-.5538-.79088-1.0152-1.1057-1.5151-.215-.3384-.32249-.746-.598919-1.0614-.261068-.2999-.7448121-.4922-.8292753-.8306-.0921417-.3768.05374927-.6383.2764253-.8767.668027.1076 1.282309.2538 1.927299.3691.61428.1154 1.1057.4384 1.65087.5999.3225.0923.65267.1154 1.01356.2307.29178.0923.6066.1923.92141.2769.68339.1846 1.38981.223 2.06551.3692.50678.1076 1.88891.5845 2.66446.4153.1535-.0385.3378-.2231.5989-.4615.5989-.546 1.0827-.9613 1.743-1.4689.7755-.5999 1.7737-1.1306 2.7566-1.6535.4991-.2692.9137-.6461 1.3744-.8307.5759-.223 1.5588-.223 1.8352-.6921.1766-.2923.3302-1.3921.3686-1.8381.0307-.4307-.0384-.8999 0-1.3305.0691-.8999.2917-1.5151.3685-2.2535.0538-.5306-.0461-1.0997 0-1.6535.0614-.7306.1229-1.4997.1843-2.2072.0537-.6384.1305-1.2844.2764-1.792.215-.7922.645-2.1996 1.4205-2.3457.1613-.0308.215.0231.4608 0 .3762.5537 1.0289.8152 1.4205 1.3305.5912.7845 1.0519 1.792 1.6508 2.6226.192.2615.4838.4691.645.7383.215.3538.3686.7768.5529 1.1536.1919.3922.43.7076.5989 1.0998.4223.9998.837 2.0688 1.4666 2.8994.1459.1923.2303.4307.3686.5999.1151.1462.2917.2538.4146.4153.3455.4461.7371.9229 1.2823 1.1998 1.4589.2999 2.6721.846 3.4016 1.8842 1.5049.6076 2.2037 2.0304 3.1251 3.2225.0998.9844.6527 1.5382.9675 2.4841.0537.1615.1843.3.2303.4615.0845.323.0308.7921.1383 1.1921.1305.4922.4069.9075.4607 1.3305.1228 1.0613-.0461 2.1226-.3686 3.084-.0461 1.4612.883 1.9381 1.6969 2.5303.8293.223 1.6125.6075 2.342 1.0998.3532.2384.6526.5768 1.0135.8306.3686.2615.7986.4383 1.1518.6921.5759.4153 1.0827.9614 1.5587 1.5613.3532.4537.5836.6152.8754 1.1459.1996.3692.3685.7768.645 1.1459.1305.1769.3301.2923.4146.4615.3071.5845.4991 1.269.7832 1.8842.2534.5538.5222 1.0921.7832 1.6536-.0537 1.2305.8216 1.9919.9675 3.1301.0461.3461-.0307.7076 0 1.0614.0538.5768.3072 1.1228.4147 1.6996.046.2538.0076.523.046.7845.1229.8306.43 1.6458.5068 2.4841.0307.3307-.023.6845 0 1.0152.1152 1.7458.3225 3.5378.0921 5.3836-.0691.546-.3071 1.5381-.3225 2.2072-.0153.7614.1766 1.5305.0922 2.2996-.0614.5614-.2534 1.0921-.2304 1.6997.0154.4999.1997.9998.1382 1.5151-.0537.4537-.1996.9459-.2764 1.4228-.0844.5076-.0844 1.0382-.1843 1.515-.1535.7614-.476 1.5536-.5528 2.3919-.023.2384.0153.4922 0 .7383-.0691.9152-.4147 1.7843-.3686 2.4841.0538.7076.4607 1.2844.6911 1.9304.238.6768.3916 1.3229.691 1.8843.0615.1846.3609.1307.4608.2769.261 1.0459 1.1824 1.5458 1.789 2.2995.1613.2.2534.4461.4147.646.453.5692 1.0289.9998 1.4205 1.6074 1.313.5384 2.1346 1.569 3.486 2.0689.2381.5229.7679.769 1.29 1.0151.1613.5538.5836.9614.5068 1.6536-.0461.423-.6066 1.1613-.9214 1.3305-.4761.2615-.9982.4845-1.5588.5537-2.5108.2923-4.9603-1.3766-6.2886-2.2995-.0691-.1769-.1459-.3384-.2304-.5076-.6757-.5615-1.1134-1.369-1.8812-1.8381-.4607-.6153-.8907-1.2075-1.3284-1.8843-.1305-.1999-.3455-.3845-.4607-.5999-.2688-.5076-.215-1.1536-.5529-1.6996m1.0597-38.6618c-.4147-1.0382-1.3207-2.0457-1.7891-3.0378-.1536-.3154-.2304-.5769-.4146-.8307-.3763-.5306-.7449-.8921-1.1979-1.4689-.3609-.4614-.7064-.9383-1.0135-1.1075-.2381-.1307-.384-.0692-.599-.1846-.3532-.1845-.5682-.5998-.9137-.8306-.1613-.1076-.407-.1153-.5989-.2307-.1766-.1077-.2765-.323-.4607-.4153-.43-.223-1.1134-.3538-1.743-.4153-1.8198-.1846-3.4093-.0538-4.6839.4153-.1075.0385-.3916.2153-.8293.2769-1.6048.2384-.2534-1.3228.0922-1.5613.5451-.3691 1.2285-.6075 1.6508-.8306.43-.746.5682-1.5458.8754-2.6225.2073-.7384.4837-1.5074.4607-2.1612-.0384-1.0844-.4454-2.0611-.5068-3.0378-.2841-.3538-.2687-.723-.4146-1.0614-.1613-.3691-.4684-.646-.645-1.0151-.0768-.1616-.0999-.3692-.1843-.5538-.1613-.3461-.5222-.8383-.7832-1.1459-.7755-.9229-2.173-1.8458-3.1252-2.7149-.7448-.6845-1.4358-.9998-2.3419-1.3766-.3762-.1615-.86-.3384-1.1978-.5999-.3225-.2461-.86-1.0152-1.1057-1.6074-.0999-.2461-.0922-.5384-.1843-.7383-.0845-.1923-.2611-.3692-.3686-.5999-.3071-.6614-.6219-1.5689-1.0596-2.2534-.1305-.2-.3379-.3461-.4607-.5537-.1766-.2923-.2918-.623-.4607-.9229-.1459-.2538-.2995-.6691-.4607-.9229-.0922-.1539-.3609-.2923-.4607-.4615-.0999-.1692-.0922-.3922-.1843-.5537-.2765-.4846-.9675-1.1844-1.3745-1.1998-.8139-.0231-.9598.7383-1.1517 1.4689-.2611 1.0152-.3149 1.9074-.4147 3.0841-.0461.5383.0461 1.1228 0 1.6535-.0537.6153-.2687 1.1998-.2764 1.6074-.0077 1.2613.9675 3.6916-.1382 4.4145-.2764.1769-.7218.2153-1.0597.323-.3685.1154-.7755.1692-1.098.2769-.8139.2769-1.7046.9383-2.5723 1.4228-.8676.4922-1.8274 1.0075-2.434 1.6074-.4915.4845-1.1979 1.392-1.4666 2.0226-.1075.2615-.1382.6538-.3686.8768-.1766.1692-1.65855.8152-1.83515.0923-.15357-.623.52981-.5922.46071-1.2382-1.12106-.1308-2.1423-.3154-3.21728-.5538-.25339-.0538-.46839-.1999-.73714-.2768-.63731-.1846-1.36676-.2692-1.97336-.5076-.58357-.2308-1.09035-.7307-1.78909-.5538.11518.9075.89838 1.4844 1.33606 2.2534.32249.5692.5682 1.1614.87534 1.7459.87535.9075 1.62016 2.0534 2.24979 3.2686.46839.9152 1.19785 1.7535 1.33606 2.8071.11518.9075-.09214 1.7689 0 2.6226.09214.8536.42999 1.5535.59892 2.3457.40696-.0923.66803-.2461 1.1057-.4615.25339-.123 1.05194-.4614 1.01354.0923-.0153.2692-.62194.3538-.87533.4615-.3916.1692-.66802.2768-.87534.5076.16124.5152.39928.9459.73713 1.2843.37625-.0538.81394-.7075 1.14414-.2307-.0308.523-.6604.4384-.82932.8306.24571.3769.49142.7614.96752.9229.2994-.1307.0384-.546.2303-.7845.407.0308 1.1057-.6921 1.2363-.0923.0921.3923-1.1134 1.0383-1.1057 1.3767.5989.5768 1.4512 1.2767 2.4801 1.5612.2918.0846.622.1.9214.1846 1.3821.3922 3.0177.9152 4.776.7845 2.2191-.1692 4.2923-.5076 5.9662-1.1075.407-.7768.8446-1.069 1.4205-1.8381.2381-.3153.7295-1.1767 1.1057-1.1459.1075.0077.3379.1999.3686.3691.0844.4692-.5682.9152-.7371 1.2382-.2458.4769-.3225.9306-.5529 1.5151-.2687.6999-.7371 1.2459-.8753 1.9304-.0768.3692 0 .7384-.0922 1.0998-.1459.6153-.453 1.1844-.5989 1.792-.1766.7383-.2073 1.2767-.2764 2.0688-.0845.9306-.2918 1.8458-.3686 2.8072-.0845 1.0382-.2073 2.138-.2841 3.2301-.0691 1.0152 0 1.9765-.0845 2.9379-.0921 1.0921-.1382 2.1842-.0921 3.2686.0614 1.5228.4453 2.8225.7832 4.1838.1152.4614.3839.8767.4146 1.292.0154.2462-.0921.623-.046.9229.1151.7614.6833 1.4844.9214 2.2996.2073.6999.3225 1.4305.5989 2.0688.0845.2077.2534.3769.3225.5999.1689.5691.1459 1.1844.3686 1.7458.0768.2.2457.3615.3225.5538.1689.4307.1766.9767.3225 1.4689.3455 1.1844 1.0212 2.3919 1.1517 3.6301.0538.5537.1382 1.0075.1382 1.4228 0 .223-.1075.4614-.0921.6922.023.3845.1843.8152.2304 1.2382.1382 1.2613.4376 2.338.5067 3.4993.0231.4691-.0384.9613 0 1.4228.0615.7152.1766 1.4613.0922 2.2073-.0461.4153-.2457.8536-.2765 1.2843-.0153.2538.0845.523.0461.7845-.0153.1384-.1382.2999-.1843.5076-.046.2153.0154.4384-.046.5999-.1536.3999-.5913.6459-.9675.9689-.3532.3-.6988.723-1.0059.923-.9675.615-2.2114.838-2.6644 1.746-.3609.73-.2918 1.807.1842 2.53.3763.562 1.4513 1.023 1.9734 1.1.3148.046.6527-.062 1.0136-.092.6757-.062.9905-.108 1.5587-.139-.0077 0 .0691-.038.0921-.046.7065-.185 1.2824-.746 1.8352-1.192.883-.715 1.1134-1.008 1.743-1.792.4761-.592.7525-1.015 1.0596-1.746.2534-.615.2381-1.007.3225-1.7.0922-.7224.3609-1.3223.5068-2.1145.1152-.6537.1536-1.4074.2304-2.1149.0768-.7384.0998-1.5997 0-2.2996-.0307-.2153-.1843-.4538-.2304-.7383-.0537-.3769.0461-.8922 0-1.3767-.023-.2692-.1996-.5768-.2303-.9229-.0538-.5768.0384-1.2382-.0461-1.8381-.0538-.423-.2688-.9152-.3225-1.5151-.0537-.6075-.0998-1.1228-.1382-1.6996-.0614-.8537-.0384-2.8456.1843-3.5917.3225-1.0767.8984-.0153 1.1978.4154.2457.3537.4991.769.8754.8767 1.4205.4076 2.9408-.4614 3.4399-1.1459-.1612-.4769.238-1.2613.7371-1.0614.4608.1846-.0614 1.1229-.0921 1.2844-.0614.3769.0384.8691 0 1.3305-.0307.3692-.1305.7153-.0921 1.0613.0537.4692.238.9383.2303 1.469-.0077.5384-.1228 1.1229-.1382 1.6997-.0153.6152.0538 1.2382 0 1.8381-.0461.5229-.1459.9152-.0921 1.3766.1766 1.4844.453 3.7762.3225 5.3836-.0231.2769-.1229.5537-.0922.8306.0538.4768.3148.7306.3686 1.1459.0307.2461-.0307.5076 0 .7384.1382 1.0685.645 2.1765 1.0135 2.9915.1536.346.2304.723.3686 1.015.3763.785 1.2055 1.231 2.0195 1.746.5758.362 1.2439.769 1.8351.923.9905.254 2.4725-.077 3.8085.139.5836-.354 1.5357-.562 1.8352-1.285.0768-.177.2611-1.03.2303-1.238-.0537-.377-.5528-.615-.4607-1.146-.7601-.492-1.8198-.692-2.7105-1.061-.5989-.493-1.0059-1.169-1.9273-1.331-.5912-.469-.9137-1.1996-.8753-2.2994-.7986-1.9842-.8984-4.5222-.6911-7.0371.0154-.2153.1075-.423.0922-.646-.0154-.2692-.1613-.523-.1843-.7845-.0614-.7229.3148-1.392.0921-2.0688.1536-.8383.7295-1.5766.645-2.5303-.0153-.1923-.1228-.3692-.1843-.5999-.0614-.223-.046-.4537-.0921-.6922-.0384-.1999-.1997-.3845-.2304-.5998-.0307-.2154.0384-.4615 0-.6922-.1075-.6691-.476-1.369-.5989-2.115-.1382-.846-.1305-1.7535-.2764-2.6226-.2611-1.515-.7525-3.0224-1.1057-4.3222-.192-.7075-.1766-1.4459-.3225-2.1611-.0384-.1769-.2073-.4615-.2764-.7383-.0691-.3077-.0538-.6076-.1382-.7845-.0922-.1923-.3379-.2692-.4608-.5076-.1228-.2384-.1075-.6768-.2303-1.0152-.0691-.1769-.238-.2692-.3686-.5076-.1075-.1845-.1228-.4614-.2303-.646-.2995-.5153-.7986-1.1305-1.0597-1.3767-.5605-.546-1.8121-1.0382-1.9273-1.5612-.0998-.4307.0692-.969.4608-1.0152.4914-.0538.8216.5538 1.1517.9691.3763.4691.7448.8306 1.0136 1.1459 1.0519 1.2536 1.8351 2.6841 2.2958 4.4607.2995 1.1536.3686 2.3687.6911 3.5839.1152.4538.3379.8614.4607 1.2844.1459.4999.1689.9998.2764 1.5151.1075.4845.2841.9459.3686 1.4228.1689.969.0614 2.1457.3686 2.9455.0844.2154.2764.2769.3685.5538.1766.546.0538 1.0229.1843 1.5612.0538.2307.2381.4615.3225.6922.2611.7691.4147 1.4305.5989 2.115.6834 2.6071 2.1961 4.4683 3.7625 6.1603.2918.3153.43.7383.6911 1.0152.1919.1999.5605.3307.8292.5537.1459.1154.2381.3077.3686.4153.1536.1308.5145.2384.7371.4153.1997.1615.2995.3307.4607.4153.3609.1846.9675.4077 1.5127.4615 1.4359.1461 4.131.3461 3.7164-1.3767-.215-.8998-1.7814-.8921-2.4802-1.3305-.3071-.1923-.5298-.5845-.8753-.7844-.2457-.1385-.5221-.1769-.7371-.3231-.384-.2691-.7449-.8459-1.1441-1.192-.43-.3769-.9138-.7384-1.3284-1.2383-.5298-.6306-1.1902-1.0459-1.29-1.8381-.906-.9767-1.4512-2.3226-1.8352-3.8146-.5605-1.2459-1.0212-2.5918-1.2362-4.0454-.1228-.8075-.3225-1.7304-.4146-2.5764-.0307-.2999.023-.5845-.0461-.8768-.0537-.2307-.215-.4229-.2764-.646-.1459-.546-.1536-1.169-.2764-1.7458-.1229-.5691-.2458-1.1382-.3686-1.6997-.238-1.1228-.622-2.2226-.8293-3.2686-.1382-.6844-.2918-.9998-.4607-1.5151-.407-1.2228-.6757-2.5072-1.1518-3.5454-.1996-.4307-.3378-.8768-.5067-1.2382-.7141-1.5536-2.0963-2.5918-3.0791-3.7685-.2227-.3077-.6296-1.0306-.1382-1.3767 1.2516.0692 1.6969.8844 2.388 1.5612.2918.2923.6527.5769.8753.8307.7986.9305 1.0289 2.6148 1.4205 4.0453.5606.8537.7909 2.015 1.0981 3.084.0921.323.2994.5999.3685.9229.0845.3846.0154.8383.0922 1.2382.0384.2154.1535.4.1843.5999.1458.946.2687 1.9304.4607 2.8995.0921.4537.1842.9306.2764 1.3766.0998.4999.1075 1.0152.2303 1.469.0538.223.2227.423.2765.646.1919.7614-.0154 1.6074.4146 2.2996.192-.3.2304-.7537.4607-1.0152-.1152-.9152.3839-1.7535.5529-2.6687.1075-.5922.0691-1.2152.1382-1.8381.023-.2077.1305-.423.1382-.6461.0077-.2615-.0921-.5153-.0921-.7844 0-.523.1612-1.0921.2303-1.6536.0998-.8844-.1305-1.7842-.0461-2.5764.1843-1.7996.5068-3.6531.3686-5.3836-.0768-.9229-.0384-1.8381-.1382-2.761-.0922-.8459-.4454-1.6842-.5529-2.5764-.023-.2307.0308-.423 0-.646-.046-.3692-.261-.723-.3685-1.0998-.0922-.3307-.0615-.6999-.1382-1.0152-.2227-.946-.6374-1.8304-.7372-2.761-.3916-.4999-.453-.9767-.691-1.5612" fill="#fff" fill-rule="evenodd"/><path clip-rule="evenodd" d="m49.1996 49.832c.0921.9306.5144 1.8151.7371 2.761.0768.3154.0461.6768.1382 1.0152.1075.3769.3225.7383.3686 1.1075.0307.2153-.023.4153 0 .646.0998.8922.4607 1.7305.5528 2.5764.0999.9229.0615 1.8382.1383 2.7611.1382 1.7227-.1843 3.5839-.3686 5.3835-.0845.7922.1459 1.692.0461 2.5764-.0615.5692-.2227 1.1306-.2304 1.6536 0 .2691.1075.5229.0922.7844-.0077.2231-.1152.4384-.1383.6461-.0691.6229-.0307 1.2459-.1382 1.8381-.1689.9152-.668 1.7535-.5528 2.6687-.2304.2615-.2688.7152-.4607 1.0152-.43-.6922-.2227-1.5305-.4147-2.2996-.0537-.223-.215-.423-.2764-.646-.1152-.4538-.1305-.9767-.2304-1.469-.0921-.4537-.1842-.9229-.2764-1.3766-.1919-.9691-.3148-1.9458-.4607-2.8995-.0307-.1999-.1459-.3845-.1843-.5998-.0691-.4077-.0076-.8537-.0921-1.2383-.0691-.3153-.2764-.5998-.3686-.9229-.3071-1.069-.5451-2.2303-1.098-3.084-.3993-1.4382-.6296-3.1224-1.4205-4.0453-.215-.2538-.5836-.5384-.8754-.8307-.691-.6844-1.1364-1.492-2.388-1.5612-.4914.3538-.0844 1.069.1382 1.3767.9829 1.1844 2.3573 2.2149 3.0791 3.7685.1689.3691.3072.8075.5068 1.2382.4761 1.0306.7448 2.3149 1.1518 3.5455.1689.5152.3225.8306.4607 1.515.2073 1.046.5912 2.1458.8293 3.2686.1151.5615.2457 1.1306.3685 1.6997.1229.5768.1306 1.1998.2764 1.7458.0538.2231.2227.4153.2765.6461.0691.2845.0153.5768.046.8767.0845.846.2918 1.7612.4147 2.5764.2227 1.4613.6757 2.7995 1.2362 4.0454.3839 1.4997.9291 2.8379 1.8352 3.8146.0921.7922.7525 1.2075 1.2823 1.8382.4223.4999.8983.869 1.336 1.2459.407.3537.7602.9306 1.1441 1.192.215.1462.4914.1769.7371.3231.3456.1999.5683.5845.8754.7844.6987.4461 2.2651.4384 2.4801 1.3305.407 1.7228-2.2881 1.5228-3.724 1.3767-.5452-.0538-1.1518-.2769-1.5127-.4615-.1612-.0769-.261-.2538-.4607-.4153-.2227-.1769-.5759-.2845-.7371-.4153-.1306-.1-.2227-.2922-.3686-.4153-.2687-.223-.6373-.3537-.8293-.5537-.261-.2692-.3992-.6999-.691-1.0152-1.5664-1.6997-3.0791-3.5609-3.7625-6.1603-.1766-.6845-.3302-1.3459-.5989-2.115-.0768-.2307-.2687-.4538-.3225-.6922-.1305-.5383 0-1.0152-.1843-1.5612-.0921-.2692-.2841-.3384-.3685-.5538-.2995-.7998-.1997-1.9765-.3686-2.9455-.0845-.4769-.2611-.9383-.3686-1.4229-.1075-.5152-.1305-1.0151-.2764-1.515-.1229-.423-.3379-.8383-.4607-1.2844-.3148-1.2228-.3916-2.438-.6911-3.5839-.4607-1.7766-1.2439-3.2071-2.2958-4.4607-.2688-.3153-.6374-.6768-1.0136-1.1459-.3302-.4153-.6603-1.0229-1.1518-.9691-.3916.0462-.5605.5768-.4607 1.0152.1229.523 1.3745 1.0152 1.9273 1.5612.2534.2462.7602.8614 1.0597 1.3767.1075.1846.1228.4615.2303.646.1305.2308.2995.3307.3686.5076.1228.3384.0998.7691.2303 1.0152.1229.2384.3686.3153.4607.5076.0845.1692.0615.4768.1382.7845.0692.2768.2381.5614.2765.7383.1459.7152.1305 1.4536.3225 2.1611.3455 1.2998.8446 2.8072 1.1057 4.3222.1459.8691.1382 1.7766.2764 2.6226.1152.746.4914 1.4459.5989 2.115.0384.223-.0307.4768 0 .6922.0307.2153.192.3999.2304.5998.046.2308.0307.4692.0921.6922.0614.2231.1689.4076.1843.5999.0921.9537-.4837 1.692-.645 2.5303.2227.6845-.1536 1.3459-.0921 2.0688.023.2615.1689.5076.1842.7845.0154.223-.0767.4307-.0921.646-.2073 2.5226-.1075 5.0529.6911 7.0371-.0384 1.0998.2841 1.8304.8753 2.2999.9214.169 1.3361.838 1.9273 1.33.8907.362 1.9427.562 2.7105 1.061-.0921.539.407.777.4607 1.146.0307.208-.1536 1.062-.2303 1.246-.2995.731-1.2593.939-1.8352 1.285-1.3437-.216-2.818.115-3.8085-.139-.5913-.154-1.2593-.561-1.8352-.923-.8216-.515-1.6508-.969-2.0194-1.745-.1382-.293-.215-.662-.3686-1.016-.3609-.815-.8753-1.922-1.0135-2.9914-.0307-.2307.0307-.4922 0-.7383-.0538-.4153-.3148-.6768-.3686-1.1459-.0307-.2769.0691-.5461.0921-.8306.1306-1.5997-.1458-3.8916-.3225-5.3836-.0537-.4614.0461-.8614.0922-1.3766.0537-.5999-.0154-1.2229 0-1.8381.0077-.5769.1305-1.1614.1382-1.6997.0077-.5307-.1766-1.0075-.2304-1.469-.0383-.3384.0615-.6844.0922-1.0613.0384-.4691-.0614-.9537 0-1.3305.023-.1692.5452-1.0998.0921-1.2844-.4991-.2076-.8984.5845-.7371 1.0614-.4991.6844-2.0194 1.5612-3.44 1.1459-.3762-.1077-.6296-.5153-.8753-.8768-.2918-.4306-.8754-1.492-1.1978-.4153-.2227.746-.2458 2.738-.1843 3.584.0384.5768.0844 1.0921.1382 1.6996.0537.5999.2687 1.0998.3225 1.5151.0768.5999 0 1.269.046 1.8381.0308.3461.2074.6537.2304.9229.0461.4922-.0537.9998 0 1.3767.0384.2845.1996.5153.2304.7383.0998.6999.0767 1.5612 0 2.2996-.0768.7075-.1152 1.4612-.2304 2.1149-.1382.7922-.4146 1.3921-.5068 2.115-.0844.7-.0691 1.092-.3225 1.7-.2994.738-.5835 1.161-1.0596 1.745-.6296.785-.86 1.077-1.743 1.792-.5605.454-1.1364 1.008-1.8352 1.193-.023 0-.0998.046-.0921.046-.5682.03-.883.077-1.5587.138-.3609.031-.6911.139-1.0059.092-.5222-.077-1.6048-.538-1.9734-1.099-.4761-.723-.5452-1.808-.1843-2.531.4531-.907 1.6893-1.138 2.6645-1.745.3071-.2.6526-.623 1.0058-.923.3763-.316.8063-.57.9675-.9694.0614-.1615 0-.3846.0461-.5999.0461-.2077.1612-.3692.1843-.5076.0384-.2615-.0615-.5307-.0461-.7845.0307-.4307.2304-.869.2764-1.2843.0845-.746-.0307-1.4997-.0921-2.2073-.0384-.4691.023-.9537 0-1.4228-.0614-1.1613-.3609-2.238-.5068-3.4916-.0461-.4307-.2073-.8614-.2303-1.2459-.0154-.2308.0921-.4615.0921-.6922 0-.4153-.0768-.8768-.1382-1.4228-.1305-1.2382-.8063-2.4457-1.1441-3.6301-.1459-.4922-.1536-1.0382-.3225-1.4689-.0768-.1923-.2457-.3538-.3225-.5538-.2227-.5614-.1996-1.1767-.3686-1.7458-.0614-.2153-.2303-.3922-.3225-.5999-.2764-.6383-.3916-1.3689-.5989-2.0688-.238-.8075-.8062-1.5382-.9214-2.2995-.0461-.2923.0614-.6768.0461-.923-.0231-.4153-.2995-.8306-.4147-1.2843-.3378-1.3613-.7141-2.661-.7832-4.1838-.046-1.0844 0-2.1765.0922-3.2609.0768-.9614.0153-1.9227.0844-2.9379.0768-1.0921.1997-2.1842.2841-3.2302.0768-.9613.2841-1.8765.3686-2.8071.0691-.7922.0998-1.3305.2764-2.0688.1459-.6076.4531-1.1844.5989-1.792.0845-.3615.0154-.7383.0922-1.0998.1382-.6845.6066-1.2305.8753-1.9304.2304-.5845.3072-1.0459.5529-1.5151.1689-.3307.8139-.7767.7371-1.2459-.0307-.1615-.2534-.3615-.3685-.3691-.3763-.0308-.86.8306-1.1057 1.1459-.5759.7691-1.0136 1.0613-1.4206 1.8381-1.6816.5922-3.7547.9306-5.9661 1.0998-1.7584.1384-3.3939-.3922-4.7761-.7845-.2917-.0846-.6219-.1-.9214-.1846-1.0289-.2922-1.8812-.9921-2.4801-1.5612-.0154-.3461 1.1901-.9921 1.1057-1.3767-.1382-.5998-.8293.1231-1.2439.0923-.192.2308.0691.6461-.2304.7845-.4684-.1615-.7141-.5384-.95979-.9229.16125-.3845.79859-.3076.82929-.8306-.3379-.4845-.77554.1769-1.15179.2307-.33785-.3384-.57588-.7768-.73713-1.2843.20732-.2308.48374-.3384.87535-.5076.25338-.1077.85227-.1923.87537-.4615.0384-.5537-.75252-.2153-1.01359-.0923-.43767.2154-.69106.3692-1.09802.4615-.16893-.7922-.50678-1.4844-.59892-2.3457-.09214-.8537.11518-1.7074 0-2.6226-.13053-1.0536-.85999-1.8919-1.32838-2.8071-.62963-1.2152-1.37444-2.3534-2.24979-3.2686-.30714-.5922-.55285-1.1844-.87535-1.7459-.43767-.7614-1.21319-1.3459-1.33605-2.2534.69874-.1769 1.20552.323 1.78908.5538.61428.2384 1.33606.323 1.97337.5076.26875.0769.48375.223.73714.2768 1.07498.2384 2.09622.423 3.21728.5538.0691.646-.6066.6152-.46071 1.2382.1766.7229 1.65854.0769 1.83514-.0923.2304-.223.2611-.6153.3686-.8768.2687-.6306.9751-1.5381 1.4666-2.0226.6066-.5999 1.5664-1.1229 2.434-1.6074.8677-.4922 1.7584-1.1536 2.5723-1.4228.3225-.1077.7295-.1615 1.0981-.2769.3378-.1077.7832-.1384 1.0596-.323 1.1057-.7229.1305-3.1532.1382-4.4145 0-.4076.2227-.9921.2764-1.6074.0461-.5307-.046-1.1229 0-1.6535.0922-1.1767.1536-2.0689.4147-3.0841.1919-.7383.3301-1.4997 1.1441-1.4689.4069.0154 1.098.7076 1.3744 1.1921.0921.1538.0845.3845.1843.5537s.3686.3076.4607.4615c.1612.2538.3148.6614.4607.9229.1689.2999.2841.6306.4607.9229.1229.2076.3302.3537.4607.5537.4377.6845.7525 1.592 1.0596 2.2534.1075.2307.2842.4076.3686.5999.0922.2.0845.4922.1843.7383.2457.5999.7832 1.3613 1.098 1.6074.3302.2615.8216.4384 1.1979.5999.906.3845 1.5971.6998 2.3419 1.3766.9444.8691 2.3496 1.7843 3.1251 2.7149.2534.3076.622.8075.7832 1.1536.0845.1769.0999.3846.1843.5538.1766.3614.4761.6383.645 1.0151.1459.3384.1305.7076.4147 1.0614.0537.969.4683 1.9534.5067 3.0378.0231.6538-.2457 1.4228-.4607 2.1612-.3071 1.0767-.4453 1.8765-.8753 2.6225-.4223.2154-1.1057.4538-1.6509.8306-.3455.2385-1.6969 1.7997-.0921 1.5613.4376-.0615.7141-.2384.8292-.2769 1.2747-.4691 2.8641-.5922 4.6839-.4153.6373.0615 1.313.1923 1.743.4153.1766.0923.2841.3076.4607.4153.192.1154.4377.1231.599.2307.3455.2308.5682.6461.9214.8306.215.1077.3609.0539.5989.1846.3071.1692.6527.6384 1.0135 1.0998.4531.5845.814.9383 1.1979 1.469.1766.2538.2611.5152.4146.8306.4761.9921 1.3822 1.9996 1.7891 3.0378.2304.5845.2995 1.0691.6911 1.5613m-17.0769-20.1038c-.3993.123-.86.2307-1.1058.3691-.1612.0923-.3071.2692-.4607.3692-.9982.6383-2.1115 1.0921-3.079 1.792-.4607.3307-.9138.7306-1.3361 1.0997-.4223.3846-.9905.7691-1.1057 1.3767.4838.2999.837-.2615 1.1057-.5076 1.8352-1.6843 4.0619-3.2609 6.7033-4.0454.3839-.1153 1.075-.0769 1.1057-.6921-.7064-.2231-1.2209.0461-1.8351.2307m-6.0046 6.5833c1.6048-.8921 3.2787-1.6381 4.8682-2.5303.7141-.3999 1.4665-.4845 2.2037-.7844.2457-.1.43-.2846.691-.3692.169-.0538.9445-.0307.8293-.5076-.0537-.2076-.4146-.2615-.691-.2307-.3225.0308-.8063.2923-1.244.4615-1.2976.5152-2.3496 1.0844-3.5321 1.6073-1.1901.5307-2.2344 1.2229-3.3555 1.7459-.3378.1615-.9751.323-.7832.8767.3609.2307.7295-.123 1.0059-.2769m9.2372-1.8765c-.6066.0615-1.4358.4922-2.1116.7383-1.4512.5153-2.8256 1.0459-4.3153 1.4689-.3762.1077-2.1192.3923-2.1576.7384-.0691.5537.9982.2999 1.1057.2768.4837-.1307.8446-.2922 1.1978-.4153 2.0502-.7229 3.8393-1.4689 5.9662-2.0227.3609-.0922.9598-.0999 1.0596-.5537-.1151-.2-.43-.2615-.7371-.2307m-14.7043 5.9373c-.3685-.1154-.645-.4307-1.1517-.323-.169-.2-1.0597-.4538-1.2363-.2308-.5528.6768-.3302 2.8841-.2764 3.7685.1152.0385.2457.0616.4146.0462.3456-.7768.3609-1.8766.8293-2.5303.5759-.0846 1.3975.0231 2.0655 0 .453-.0154 1.1979.0231 1.2823-.4614-.5221-.3846-1.3053-.0769-1.9273-.2769" fill="#9b9a9b" fill-rule="evenodd"/><path clip-rule="evenodd" d="m33.8698 29.7327c-.0307.6075-.7218.5768-1.1057.6921-2.6414.7845-4.8682 2.3611-6.7033 4.0454-.2611.2461-.6143.8075-1.1057.5076.1075-.6153.6757-.9998 1.1057-1.3843.4146-.3769.8753-.7691 1.3284-1.0998.9674-.6999 2.0808-1.1537 3.079-1.792.1536-.1.2918-.2769.4607-.3692.2457-.1384.7065-.2461 1.1057-.3691.6143-.1846 1.1288-.4461 1.8352-.2307z" fill="#fff" fill-rule="evenodd"/><path clip-rule="evenodd" d="m25.0088 36.8161c-.192-.5537.4377-.7152.7832-.8767 1.1134-.523 2.1576-1.2152 3.3555-1.7459 1.1825-.5306 2.2344-1.0921 3.5321-1.6073.43-.1692.9137-.423 1.2362-.4615.2764-.0307.6373.0231.6911.2307.1228.4769-.6604.4538-.8293.5076-.2611.0769-.4377.2692-.6911.3692-.7371.2999-1.4896.3768-2.2037.7845-1.5894.8921-3.2633 1.6381-4.8681 2.5302-.2841.1538-.6527.4999-1.0059.2769" fill="#fff" fill-rule="evenodd"/><path clip-rule="evenodd" d="m35.9813 34.8857c-.0998.4461-.6987.4615-1.0596.5538-2.1269.5537-3.9237 1.3074-5.9739 2.0226-.3455.1231-.7064.2846-1.1978.4153-.0998.0308-1.1748.2846-1.1057-.2768.0461-.3461 1.7814-.6307 2.1577-.7383 1.4896-.4307 2.8717-.9537 4.3153-1.469.6757-.2384 1.5049-.6768 2.1115-.7383.3072-.0308.622.0231.7372.2307" fill="#fff" fill-rule="evenodd"/><path clip-rule="evenodd" d="m22.4826 40.869c-.0922.4845-.837.4461-1.29.4615-.668.023-1.4896-.0846-2.0655 0-.4607.6537-.4838 1.7535-.8293 2.5302-.1689.0154-.2994-.0077-.4146-.0461-.0538-.8845-.2764-3.0994.2764-3.7685.1843-.223 1.0673.0308 1.2439.2307.4991-.1153.7832.2077 1.1441.323.622.1923 1.4052-.1076 1.9273.2769" fill="#fff" fill-rule="evenodd"/><path clip-rule="evenodd" d="m21.8605 33.0013c-.645.4076-.906-.3538-.9675-.8691-.023-.1615-.0768-.323-.0844-.4922-.0077-.1922.0844-.3768.0691-.5768-.0231-.3614.0768-.6998.1843-1.0382.0998-.3231.2917-.5615.5682-.7537.1305-.0923.2533-.2077.4069-.2769.1766-.0769.3763-.1154.5605-.1769.3686-.1231.7141.0461 1.075 0s.7295.0461 1.0673.1846c.3072.1307.5375.3922.7756.6152.2994.2846.3301.6076.4607.9691.1228.3461.1228.7383.0614 1.0921-.0307.1692-.1536.2999-.1766.4691-.0384.2231-.0921.3692-.2534.5384-.4914.5153-1.1825.8844-1.8966.9613-.3685.0385-.7525-.0461-1.0903-.1999-.1843-.0846-.5145-.5999-.7525-.4461" fill="#fff" fill-rule="evenodd"/><path clip-rule="evenodd" d="m14.7888 37.3699c-.0384-.1-.0384-.1769-.0307-.2846.0153-.1846-.0845-.2615-.192-.3922-.2073-.2385-.3379-.5538-.5682-.7768-.215-.2077-.4684-.3384-.6834-.5384-.2611-.2384-.5836-.223-.9137-.2384-.5913-.0307-1.2363.2461-1.4436.8306-.0384.1154-.1152.1769-.1996.2615-.1075.1077-.1382.2538-.1843.3922-.0845.2692-.2534.6768-.2073.9537.046.2692.1152.5614.1919.8152.0922.3.2534.5692.5375.7383.2073.1231.384.3538.6143.4307.3148.1077.6604.1.9905.1308.3072.0307.5913-.0539.8831-.1308.2687-.0769.668-.2153.8446-.4383.1843-.2308.3686-.4307.4377-.7307.046-.1769.046-.323 0-.4999-.0461-.1692 0-.3537-.0615-.5229" fill="#fff" fill-rule="evenodd"/><path d="m11.5483 37.2083c-.0384-.2923.0614-.5999.2073-.8537.0845-.1385.2304-.0846.3609-.1.1382-.0154.2534-.1154.3839-.0231.215.1538.5375.3153.6988.5153.0844.1077.1382.2538.1996.3769.0614.123.2227.3537.2304.4922.023.2691-.1229.6152-.2995.8152-.2457.2615-.4377.2615-.7525.1538-.2764-.1-.5375-.1769-.668-.4537-.0691-.1462-.1382-.2923-.1843-.4461-.0461-.1461-.1689-.3307-.1843-.4768" fill="#9b9a9b"/><path d="m22.2062 30.4786c.1152-.2922.1459-.6076.5145-.6691.192-.0308.3455.0692.5375.1077.1689.0384.3532.0769.5221.123.1306.0385.1997.1846.2918.2769.1536.1615.2457.2769.2918.4999.0384.1846.1843.2999.1612.4999-.0153.2077-.1151.423-.1151.623 0 .3537-.3456.4922-.6297.6383-.1919.1-.3609.0231-.5452-.0769-.1228-.0692-.3301-.1231-.4376-.2154-.2381-.2076-.4914-.546-.6297-.8306-.0691-.1538-.046-.346-.1075-.5076-.0767-.223.0615-.2845.1383-.4691" fill="#9b9a9b"/><g fill="#fff"><path d="m146.643 112.609c.108.254.192.646.2.877.476-.508 1.313-.908 2.088-.908 1.452 0 1.943.892 1.943 2.161v4.053h-.952v-3.83c0-.838-.246-1.584-1.267-1.584-.653 0-1.374.346-1.774.815v4.599h-.959v-4.86c0-.393-.047-.839-.146-1.192z"/><path d="m157.885 118.131c.675 0 1.351-.146 1.835-.362l.176.77c-.422.199-1.213.415-2.088.415-1.966 0-2.987-1.161-2.987-3.13s.99-3.354 2.818-3.354c1.582 0 2.342 1.039 2.342 2.785v.553h-4.216c-.053 1.661.845 2.331 2.104 2.331h.008zm-.354-4.899c-1.006 0-1.628.846-1.735 1.876h3.309c-.023-1.215-.476-1.876-1.566-1.876z"/><path d="m168.75 118.784h-1.167l-2.68-3.053v3.053h-.968v-8.444l.968-.146v5.43l2.564-2.946h1.144l-2.725 2.938z"/><path d="m177.542 115.716c0 1.607-.668 3.284-2.864 3.284s-2.865-1.669-2.865-3.292.676-3.23 2.865-3.23c2.188 0 2.864 1.638 2.864 3.23zm-2.857 2.461c1.236 0 1.874-.869 1.874-2.477 0-1.607-.638-2.422-1.881-2.422-1.244 0-1.882.838-1.882 2.422 0 1.585.638 2.477 1.882 2.477z"/><path d="m183.538 114.87h-2.526v.8h2.526z"/><path d="m188.384 111.563h-1.06v-.961h1.06zm-.046 7.222h-.96v-6.107h.96z"/><path d="m192.292 115.801c0-1.792.714-3.315 2.933-3.315.561 0 1.067.108 1.428.223l-.176.823c-.392-.146-.837-.223-1.229-.223-1.466 0-1.989 1.1-1.989 2.484 0 1.315.538 2.33 2.02 2.33.422 0 .937-.077 1.282-.223l.138.838c-.314.116-.875.224-1.466.224-2.25 0-2.933-1.523-2.933-3.154z"/><path d="m203.395 112.578c1.443 0 1.95.892 1.95 2.161v4.053h-.952v-3.83c0-.838-.246-1.584-1.267-1.584-.653 0-1.382.346-1.774.823v4.591h-.959v-8.444l.959-.146v3.245c.461-.484 1.26-.869 2.043-.869z"/><path d="m210.651 111.563h-1.059v-.961h1.059zm-.038 7.222h-.96v-6.107h.96z"/><path d="m220.648 112.609c.108.254.192.646.2.877.476-.508 1.305-.908 2.089-.908 1.443 0 1.942.892 1.942 2.161v4.053h-.952v-3.83c0-.838-.246-1.584-1.267-1.584-.652 0-1.374.346-1.774.815v4.599h-.959v-4.86c0-.393-.046-.839-.146-1.192z"/><path d="m231.897 118.131c.676 0 1.352-.146 1.836-.362l.176.77c-.422.199-1.213.415-2.088.415-1.966 0-2.987-1.161-2.987-3.13s.99-3.354 2.818-3.354c1.582 0 2.342 1.039 2.342 2.785v.553h-4.216c-.054 1.661.845 2.331 2.104 2.331h.008zm-.353-4.899c-1.006 0-1.628.846-1.735 1.876h3.309c-.023-1.215-.476-1.876-1.566-1.876z"/><path d="m242.755 118.784h-1.159l-2.68-3.053v3.053h-.968v-8.444l.968-.146v5.43l2.564-2.946h1.144l-2.733 2.938z"/><path d="m251.547 115.716c0 1.607-.668 3.284-2.864 3.284s-2.864-1.669-2.864-3.292.675-3.23 2.864-3.23c2.188 0 2.864 1.638 2.864 3.23zm-2.849 2.461c1.236 0 1.874-.869 1.874-2.477 0-1.607-.638-2.422-1.882-2.422s-1.881.838-1.881 2.422c0 1.585.637 2.477 1.881 2.477z"/><path d="m257.551 114.87h-2.526v.8h2.526z"/><path d="m260.953 113.478v-.8h4.238v.777l-3.355 4.53h3.57v.8h-4.707v-.762l3.356-4.545z"/><path d="m273.645 118.715-.806.162c-.246-.285-.391-.731-.43-1.1-.345.738-1.144 1.154-1.958 1.154-.96 0-1.958-.485-1.958-1.838 0-1.431.737-1.885 3.793-2.046v-.515c0-.716-.138-1.208-1.228-1.208-.653 0-1.283.192-1.874.515l-.222-.807c.537-.285 1.397-.515 2.196-.515 1.574 0 2.019.699 2.019 1.999v2.446c0 .761.161 1.415.453 1.753m-4.231-1.661c0 .908.76 1.077 1.221 1.077.891 0 1.505-.6 1.674-1.277v-1.076c-2.242.13-2.895.33-2.895 1.284"/><path d="m73.6135 46.837c-.2533 0-.4607-.2076-.4607-.4614v-11.4132c0-.2538.2074-.4614.4607-.4614.2534 0 .4608.2076.4608.4614v11.4132c0 .2538-.2074.4614-.4608.4614z"/><path d="m81.3533 46.837c-.2534 0-.4607-.2076-.4607-.4614v-11.4132c0-.2538.2073-.4614.4607-.4614s.4607.2076.4607.4614v11.4132c0 .2538-.2073.4614-.4607.4614z"/><path d="m73.6135 104.272c-.2533 0-.4607-.207-.4607-.461v-27.8256c0-.2538.2074-.4615.4607-.4615.2534 0 .4608.2077.4608.4615v27.8256c0 .254-.2074.461-.4608.461z"/><path d="m81.3533 104.272c-.2534 0-.4607-.208-.4607-.461v-29.2871c0-.2537.2073-.4614.4607-.4614s.4607.2077.4607.4614v29.2871c0 .253-.2073.461-.4607.461z"/><path d="m133.16 100.727c-.253 0-.461-.208-.461-.462v-55.2352c0-.2538.208-.4614.461-.4614s.461.2076.461.4614v55.2352c0 .254-.208.462-.461.462z"/><path d="m125.666 99.8113c-.254 0-.461-.2076-.461-.4614v-53.0359c0-.2538.207-.4615.461-.4615.253 0 .46.2077.46.4615v53.0359c0 .2538-.207.4614-.46.4614z"/><path d="m187.9 100.411c-.254 0-.461-.207-.461-.461v-60.9344c0-.2537.207-.4614.461-.4614.253 0 .46.2077.46.4614v60.9421c0 .2533-.207.4613-.46.4613z"/><path d="m181.35 100.411c-.253 0-.461-.207-.461-.461v-60.9344c0-.2537.208-.4614.461-.4614s.461.2077.461.4614v60.9421c0 .2533-.208.4613-.461.4613z"/><path d="m170.07 92.9435c-.253 0-.46-.2077-.46-.4615v-30.5171c0-.2538.207-.4615.46-.4615.254 0 .461.2077.461.4615v30.5171c0 .2538-.207.4615-.461.4615z"/><path d="m163.935 92.9434c-.253 0-.46-.2077-.46-.4615v-31.3247c0-.2537.207-.4614.46-.4614.254 0 .461.2077.461.4614v31.3247c0 .2538-.207.4615-.461.4615z"/><path d="m206.105 91.8746c-.253 0-.46-.2076-.46-.4614v-30.1788c0-.2538.207-.4615.46-.4615.254 0 .461.2077.461.4615v30.1788c0 .2538-.207.4614-.461.4614z"/><path d="m199.824 92.0512c-.253 0-.46-.2076-.46-.4614v-30.0634c0-.2538.207-.4615.46-.4615.254 0 .461.2077.461.4615v30.0634c0 .2538-.207.4614-.461.4614z"/><path d="m185.282 50.3518v10.3826h18.32v28.3868c0 2.4072-.959 3.0225-3.916 3.0225-1.781 0-4.323-.0692-5.966-.0692v-1.3075c1.574 0 4.116.0692 5.966.0692 1.989 0 2.611-.346 2.611-1.7842v-27.0794h-17.015v38.3544h-1.306v-38.3544h-16.47v31.0017h-1.306v-32.2322h17.776v-10.3826h-22.989v-1.2382h22.989v-10.6518h1.306v10.6518h23.603v1.2382h-23.603z"/><path d="m361.595 97.8965c-.254 0-.461-.2076-.461-.4614v-58.4195c0-.2537.207-.4614.461-.4614.253 0 .46.2077.46.4614v58.4195c0 .2538-.207.4614-.46.4614z"/><path d="m355.475 97.8965c-.254 0-.461-.2076-.461-.4614v-58.4195c0-.2537.207-.4614.461-.4614.253 0 .461.2077.461.4614v58.4195c0 .2538-.208.4614-.461.4614z"/><path d="m337.523 47.0526v17.3889c-.07 12.1669-1.644 24.4722-5.836 34.5702l-1.098-.8921c4.185-9.8289 5.628-21.9265 5.628-33.6781v-18.6272h21.615v-7.3524h1.375v7.3524h20.447v1.2383zm21.684 49.698h20.378v1.2382h-42.001v-1.2382h20.31v-14.0896h-15.918v-1.2382h15.918v-31.8246h1.305v31.8246h16.47v1.2382h-16.47v14.0896zm-9.675-44.7452c-.553 3.7762-1.375 7.2832-2.404 10.5826 3.294 4.676 5.836 8.7983 7.686 12.5053l-1.028.6229c-1.72-3.507-4.185-7.4216-7.134-11.7515-1.643 4.676-3.908 8.9367-7.003 13.1282l-1.028-.7537c5.49-7.2832 8.3-14.8433 9.674-24.5414zm22.782-.0692c-.476 3.5763-1.167 6.7372-1.989 9.7597 2.058 5.845 6.035 11.2747 9.675 14.228l-.96 1.0306c-3.501-2.8841-7.141-7.837-9.329-13.4051-1.644 4.8144-3.909 9.0751-7.272 13.2666l-1.029-.7537c5.767-7.214 8.439-14.228 9.675-24.2645l1.236.1384z"/><path d="m90.1836 48.5982c-2.58 7.514-6.1735 14.7972-10.4044 21.3497-.3455.5384-.2764 1.2383.1843 1.6843 4.4228 4.2915 9.6672 10.0519 13.2607 14.8049.407.5306.3379 1.2843-.1305 1.7535l-.0384.0384c-.5759.5768-1.5357.5153-2.0271-.1461-2.7412-3.707-6.4653-8.0677-9.8592-11.6747-.8369-.8921-2.3265-.2999-2.3265.9229v25.6799c0 .746-.599 1.346-1.3438 1.346h-.1075c-.7448 0-1.3437-.608-1.3437-1.346v-23.6803c0-1.2689-1.5895-1.8227-2.388-.8383-3.248 4.007-6.7187 7.5678-10.2585 10.5057-.5682.4691-1.4051.3845-1.8812-.1846l-.0461-.0538c-.4991-.5845-.3916-1.4613.2074-1.9304 10.4657-8.2369 20.0792-22.6418 24.7938-35.97.3071-.869-.3533-1.7842-1.2824-1.7842h-20.4938c-.7448 0-1.3437-.5999-1.3437-1.3459v-.0308c0-.746.6066-1.3459 1.3437-1.3459h9.9897c.7448 0 1.3437-.5999 1.3437-1.3459v-9.2674c0-.746.599-1.3459 1.3438-1.3459h.1075c.7448 0 1.3437.6076 1.3437 1.3459v9.2674c0 .746.5989 1.3459 1.3437 1.3459h7.9396c.2303 0 .453.0616.6603.1692l.7679.4307c.5682.3153.8369.9998.6219 1.6151"/><path d="m130.81 45.8294v53.6435c0 .7461-.599 1.3461-1.343 1.3461h-23.09c-.744 0-1.343-.6-1.343-1.3461v-.0231c0-.746.599-1.3459 1.343-1.3459h20.287c.745 0 1.344-.5999 1.344-1.3459v-48.1983c0-.7461-.607-1.3459-1.344-1.3459h-20.202c-.745 0-1.344-.5999-1.344-1.3459v-.0308c0-.746.599-1.3459 1.344-1.3459h23.005c.744 0 1.343.5999 1.343 1.3459"/><path d="m244.498 46.837c-.254 0-.461-.2076-.461-.4614v-11.4132c0-.2538.207-.4614.461-.4614.253 0 .461.2076.461.4614v11.4132c0 .2538-.208.4614-.461.4614z"/><path d="m252.245 46.837c-.253 0-.46-.2076-.46-.4614v-11.4132c0-.2538.207-.4614.46-.4614.254 0 .461.2076.461.4614v11.4132c0 .2538-.207.4614-.461.4614z"/><path d="m244.498 104.272c-.254 0-.461-.207-.461-.461v-27.8256c0-.2538.207-.4615.461-.4615.253 0 .461.2077.461.4615v27.8256c0 .254-.208.461-.461.461z"/><path d="m252.245 104.272c-.253 0-.46-.208-.46-.461v-29.2871c0-.2537.207-.4614.46-.4614.254 0 .461.2077.461.4614v29.2871c0 .253-.207.461-.461.461z"/><path d="m304.044 100.727c-.253 0-.46-.208-.46-.462v-55.2352c0-.2538.207-.4614.46-.4614.254 0 .461.2076.461.4614v55.2352c0 .254-.207.462-.461.462z"/><path d="m296.55 99.8113c-.253 0-.461-.2076-.461-.4614v-53.0359c0-.2538.208-.4615.461-.4615s.461.2077.461.4615v53.0359c0 .2538-.208.4614-.461.4614z"/><path d="m261.068 48.5982c-2.58 7.514-6.174 14.7972-10.404 21.3497-.346.5384-.277 1.2383.184 1.6843 4.423 4.2915 9.667 10.0519 13.261 14.8049.399.5306.337 1.2843-.131 1.7535l-.038.0384c-.576.5768-1.536.5153-2.028-.1461-2.741-3.707-6.465-8.0677-9.859-11.6747-.837-.8921-2.326-.2999-2.326.9229v25.6799c0 .746-.599 1.346-1.344 1.346h-.107c-.745 0-1.344-.608-1.344-1.346v-23.6803c0-1.2689-1.59-1.8227-2.388-.8383-3.248 4.007-6.719 7.5678-10.259 10.5057-.568.4691-1.405.3845-1.881-.1846l-.046-.0538c-.499-.5845-.392-1.4613.207-1.9304 10.466-8.2369 20.08-22.6418 24.794-35.97.307-.869-.353-1.7842-1.282-1.7842h-20.486c-.745 0-1.344-.5999-1.344-1.3459v-.0308c0-.746.599-1.3459 1.344-1.3459h9.989c.745 0 1.344-.5999 1.344-1.3459v-9.2674c0-.746.599-1.3459 1.344-1.3459h.107c.745 0 1.344.6076 1.344 1.3459v9.2674c0 .746.599 1.3459 1.344 1.3459h7.939c.231 0 .461.0616.661.1692l.768.4307c.568.3153.836.9998.621 1.6151"/><path d="m301.695 45.8294v53.6435c0 .7461-.607 1.3461-1.344 1.3461h-23.089c-.745 0-1.344-.6-1.344-1.3461v-.0231c0-.746.599-1.3459 1.344-1.3459h20.286c.745 0 1.344-.5999 1.344-1.3459v-48.1983c0-.7461-.606-1.3459-1.344-1.3459h-20.202c-.744 0-1.343-.5999-1.343-1.3459v-.0308c0-.746.599-1.3459 1.343-1.3459h23.005c.745 0 1.344.5999 1.344 1.3459"/><path d="m118.502 8.79828c-.553-.36147-1.321-.63834-1.674-.72293-.108-.03077-.154-.0846-.169-.17689-.023-.14613.1-.36147.284-.39223.284-.04615 1.528.46144 1.874.69217.1.06153.138.15382.153.23841.031.18458-.077.37685-.245.40762-.077.01538-.154 0-.223-.05384zm-1.221 3.12252c-.184.0307-.338-.1231-.361-.2769-.015-.1077.031-.2461.161-.3153.929-.4846 1.252-.746 1.851-1.33824.054-.04615.1-.07691.146-.09229.161-.03076.299.11533.322.27683.016.1-.015.2077-.092.2846-.944.9537-1.889 1.4459-2.035 1.4689zm5.69.8998c1.497.9306 3.248 1.5074 4.853 1.7919.184.0308.261.1308.284.2538.03.1846-.1.3923-.315.4307-.292.0539-2.949-.6614-5.022-2.0227l.507 2.8533c.031.1846-.115.3-.269.323-.169.0308-.345-.0307-.376-.2153l-.461-2.8687c-1.559 2.1227-3.862 3.6224-4.092 3.6685-.208.0385-.384-.1153-.415-.2691-.023-.1231.031-.2461.192-.3384 1.513-.8383 2.887-2.0073 3.924-3.4071l-4.101.7384c-.199.0307-.322-.1-.345-.2461-.023-.1462.053-.3.23-.3308l4.438-.746-.146-.8075v-.0154c-.03-.1846.108-.2999.269-.323.161-.0308.33.0308.361.2153v.0154l.115.8153 4.5-.7768c.184-.0308.307.1.33.2384.023.1461-.046.3076-.23.3461l-4.239.6845zm-.607-5.93733c.645-.0846 1.006.26918 1.106.70755.107.48453.238 1.08441.322 1.61508.039.20765.069.40761.085.59219.077.53071-.2.99211-.853 1.14591-.245.0539-.56.1077-.89.1615-.33.0539-.653.1077-.906.1462-.691.0922-1.121-.2154-1.237-.7614-.046-.1846-.076-.3923-.115-.59992-.092-.53067-.161-1.10748-.23-1.56893-.069-.46914.161-.98442.868-1.12286.138-.02307.268-.06152.414-.0846.016-.34608.046-1.07671.046-1.07671.008-.1692.146-.26149.292-.29225.169-.03077.346.03845.384.23841.023.12306-.031.68449-.092 1.02288.292-.04614.576-.09998.814-.12305zm.714 1.65352c-.207-1.23053-.222-1.2536-1.597-1.01518-1.006.16919-1.336.23841-1.259.84599.031.1615.054.39223.1.63833zm-2.672.96905.131.76136c.13.5999.652.5076 1.512.3615.891-.1538 1.321-.2615 1.244-.85368-.023-.19997-.061-.45376-.115-.73832zm3.985-1.46126c-.169.03077-.338-.12305-.361-.27687-.015-.0846 0-.17689.1-.23072.453-.30763 1.06-.87675 1.474-1.4228.062-.0846.131-.12306.215-.13844.169-.03076.346.10767.377.29225.015.0846 0 .19227-.092.29225-.4.48453-1.498 1.45357-1.713 1.49202zm2.089 2.13032c-.576-.35374-1.321-.58446-1.874-.70752-.13-.03076-.192-.10767-.215-.20765-.023-.13843.085-.31532.254-.34609.245-.03845 1.374.24611 2.127.63834.138.07691.207.17689.222.29225.031.16917-.092.35377-.261.38457-.077.0154-.161 0-.261-.0539z"/><path d="m135.417 4.57593c.2-.02307.423.06922.453.29225.008.06153.062.55374.177 2.86098.061 1.14593.092 2.1842.223 3.20704.023.2.046.3846.084.5768.169 1.0306.952 1.4844 1.95 1.3536.914-.1153 2.004-.7075 3.01-1.7689.1-.1153.208-.1615.3-.1768.207-.0231.384.1384.407.346.015.1077-.016.2538-.131.3692-1.036 1.0998-2.342 1.7843-3.478 1.9227-1.359.1769-2.511-.4076-2.757-1.9688-.038-.1846-.061-.3538-.076-.5307-.139-1.07673-.139-2.03808-.231-3.1917-.061-.74601-.123-1.81503-.222-2.60719l-.039-.28456c-.031-.26149.138-.39223.323-.4153z"/><path d="m152.279 8.09833c-.361.94597-1.082 2.77637-2.495 2.90717-.622.0538-1.067-.3307-1.121-.8999-.108-1.21512 1.436-2.18416 3.163-2.53025l.115-.26918c.384-1.03826 1.045-2.62256 1.321-3.43779.023-.05384.031-.09998.023-.13075 0-.02307-.015-.04614-.069-.04614-.015 0-.046 0-.077.02307-1.075.38454-1.827.49221-1.912.49991-.261.02307-.384-.11537-.399-.27687-.015-.16151.092-.33071.307-.36916.515-.06922 1.505-.32302 2.05-.49991.1-.03076.185-.05383.269-.06152.346-.03077.561.13843.591.42299.016.13844-.023.29994-.107.48452-.515 1.09979-1.014 2.4303-1.436 3.56085.868-.07691 1.973-.11536 3.54.35378.046-.29225.061-.56912.038-.8383-.031-.38454-.153-.73832-.353-1.0075-.031-.03845-.046-.0846-.046-.12305-.015-.14613.138-.29994.322-.31532.407-.03846.691.7537.753 1.36896.031.34609 0 .72294-.077 1.12286.776.27687 1.482.63834 2.066 1.02288.146.09998.222.23072.23.3384.015.20765-.123.39992-.323.4153-.099.00769-.191-.02307-.299-.09998-.553-.423-1.182-.76908-1.858-1.04595-.622 1.83045-2.173 3.06095-2.503 3.09175-.185.0153-.308-.1-.323-.2461-.008-.1077.039-.2538.207-.3692 1.022-.7537 1.674-1.73813 2.005-2.69949-1.029-.3307-2.143-.46914-3.233-.39223l-.369.03077zm-2.971 1.87656c.015.14611.146.40761.522.37681.929-.0846 1.566-1.60734 1.766-2.13801-1.267.31532-2.35 1.06133-2.288 1.7612z"/><path d="m166.446 3.73767c-.361.02307-1.152.05384-1.182-.36916-.008-.1615.092-.31532.291-.3307.046 0 .1 0 .162.01538.253.06153.552.07691.875.06153.369-.02308.776-.09229 1.159-.21535.131-.48452.192-1.02288.238-1.49971.016-.18458.169-.28456.323-.29225.177-.00769.338.07691.353.27687.016.20765-.176 1.08441-.238 1.31513.361-.16151.707-.33839.968-.54605.061-.05383.122-.06921.184-.06921.177-.00769.315.11536.33.27687.023.36146-.783.69217-1.635 1.00749-.492 1.47664-1.244 3.00711-2.104 4.53758-.092.1692-.238.2538-.369.26149-.177.00769-.33-.10767-.338-.29225 0-.07691.016-.16151.069-.2538 1.098-1.86886 1.498-2.55335 2.058-4.08382-.376.10767-.76.18458-1.136.19996zm4.185 4.29148c-.031-.48452-.115-1.13824-.146-1.63815-.054-.89213.008-1.09978.307-1.11517.161-.00769.315.09229.33.29226v.0769c-.015.23842-.03.41531-.015.69987l.015.21534c.031.46914.085 1.03057.123 1.46126.008.14612.046.32301.054.48452.937.32301 1.881.93828 1.912 1.34589.015.20763-.138.38453-.323.39223-.099 0-.215-.0385-.307-.1461-.307-.34611-.76-.66912-1.259-.91523l-.015.16151c-.162.92292-1.052 1.46892-1.981 1.52282-1.045.0615-1.951-.523-1.989-1.25364-.039-.70756.791-1.3459 2.05-1.41511.407-.02308.845.02307 1.275.11536l-.016-.28456zm-1.259.74601c-.622.03845-1.475.32301-1.444.82291.023.40763.668.74603 1.336.70753.66-.0384 1.259-.42297 1.367-1.07669.015-.09998.023-.19996.031-.29225-.43-.12305-.868-.18458-1.29-.1615zm3.747-4.20688c-.592-.33071-1.252-.47683-1.958-.43838-.085 0-.177.02308-.261.03077h-.023c-.185.01538-.292-.10767-.3-.24611-.015-.22303.092-.36916.676-.39992.56-.03077 2.273.13074 2.311.71524.008.18458-.131.35378-.299.36916-.039 0-.085-.00769-.139-.03076z"/><path d="m182.225 4.49909c-.506.07691-.982.12306-1.29.13075-.222 0-.337-.15382-.345-.29994 0-.16151.1-.32302.315-.34609.407-.02307.798-.03076 1.251-.0846l.807-.10767c.145-.59219.322-1.47664.422-2.29186.023-.21535.192-.31533.353-.32302.177 0 .353.11536.353.33071 0 .18458-.199 1.43818-.414 2.19188.967-.11536.982-.11536 1.013-.11536 1.167-.03077 1.467.82291 1.49 1.76889.077 3.02249-1.052 4.12227-2.304 4.16073-.483.01538-1.136-.09229-1.144-.46914 0-.17689.131-.3384.338-.34609.038 0 .077 0 .115.00769.254.06922.484.09998.714.09229 1.528-.03845 1.651-2.46875 1.628-3.36858-.023-.79984-.184-1.26898-.929-1.24591-.184 0-.522.03846-1.067.11536-.568 2.00731-1.398 3.78388-2.35 5.21438-.123.17689-.276.25379-.43.26148-.2 0-.361-.11536-.368-.29994 0-.09998.03-.22303.153-.36916.829-.99211 1.72-2.83791 2.273-4.70678l-.591.09229zm7.272 1.43819c-.307-.7537-1.09-1.73813-2.135-2.27648-.1-.04615-.153-.13075-.153-.22304 0-.14612.13-.29994.315-.30763.598-.01538 2.633 1.8458 2.656 2.63026 0 .23841-.161.39992-.345.40761-.123 0-.261-.06922-.33-.23841zm-.453-3.03787c-.269-.29226-.891-.6768-1.267-.81523-.115-.04615-.161-.12305-.169-.20765 0-.12306.115-.26149.307-.26918.246 0 1.62.59219 1.628 1.06902 0 .17689-.138.33071-.292.33071-.077 0-.153-.03077-.215-.10767zm.975-.96905c-.269-.27687-.898-.64603-1.29-.79215-.123-.04615-.177-.13075-.177-.223035 0-.123053.116-.261488.315-.269179.223 0 1.643.546044 1.659 1.038264 0 .18458-.138.3307-.292.3307-.077 0-.154-.02307-.215-.09229z"/><path d="m200.116 10.2826c-.261 0-.407-.1769-.407-.35376 0-.1615.115-.32301.384-.36915.668-.13075 1.359-.33071 1.789-.57682 1.237-.71524 1.774-1.53816 1.774-2.18419 0-.74601-.637-1.03826-1.336-1.03826-1.305 0-2.841.96135-3.501 1.53047-.238.20766-.446.30764-.622.30764-.346 0-.569-.29994-.569-1.23822 0-.49991.07-1.06134.123-1.46895.1-.80754.269-1.61507.361-2.16112.023-.19996.2-.29994.353-.29994.146 0 .3.09998.3.28456v.06152c-.077.53836-.231 1.26899-.33 1.87656-.077.49991-.154 1.02288-.154 1.4305 0 .19996 0 .56143.146.56143.061 0 .161-.06153.276-.13844 1.075-.65372 2.358-1.36896 3.671-1.36127 1.267 0 2.019.70755 2.019 1.63814 0 .84599-.629 1.87656-2.035 2.73024-.675.40761-1.881.76136-2.226.76136zm.123-8.03688c-.046.01538-.084.02307-.138.02307-.2 0-.323-.16151-.323-.31532 0-.09998.039-.18458.154-.22304.322-.12305.476-.20765.476-.30763 0-.0846-.123-.17689-.361-.32301-.891-.576815-.952-.615269-.952-.81523 0-.161507.138-.28456.322-.28456.085 0 .185.0384541.277.0999806.238.1768884.591.3999224.891.5768114.361.223034.791.499898.806.799848 0 .34608-.123.46914-1.144.76908z"/><path d="m218.875 8.57538c-.208-.00769-.354-.17689-.346-.33839 0-.13844.1-.26918.315-.34609 2.595-.88445 5.467-3.53009 5.482-3.89925 0-.08459-.084-.13074-.268-.13843-.162-.00769-1.905-.03845-3.509-.04615h-.023c-.239-.01538-.354-.16919-.346-.31532 0-.14612.138-.30763.376-.30763.899-.02307 3.371.04614 3.717.06153.583.03076.867.29994.852.65371-.015.28457-.2.62296-1.49 1.7612.092.17689.092.39223.085.63065l-.016.23841c-.061.73063-.153 1.88425-.199 2.93021-.016.28456-.031.56907-.031.83057-.008.1769-.084.4307-.415.4153-.176-.0077-.345-.1307-.33-.3614v-.0231c.1-1.05365.254-2.38416.3-3.39165l.015-.32302c.008-.17689.015-.32301.008-.46145-2.058 1.66122-3.947 2.43799-4.185 2.4303zm5.413-6.53719c-.468-.36147-1.536-.73063-2.204-.79985-.161-.02307-.23-.13843-.222-.261485 0-.161507.122-.315324.353-.307633.261.015382 2.603.469138 2.572 1.107478 0 .17689-.161.3384-.33.3307-.062 0-.108-.03076-.169-.06921zm2.733 6.1911c-.529-.60757-1.497-1.26898-2.249-1.56892-.123-.04615-.169-.14613-.162-.24611 0-.13843.123-.29225.323-.28456.307.01538 2.703 1.2613 2.672 1.86118-.008.18458-.177.35378-.361.34609-.077 0-.146-.03077-.223-.10768z"/><path d="m240.367 10.2749c-1.344-.0308-3.463-.2077-4.769-.30766-.284-.02307-.414-.23073-.407-.40761.016-.17689.154-.32302.4-.30764h.023c.491.05384 1.136.11536 1.797.1692 1.128.09229 2.311.16151 2.91.1692.645 0 .967-.23073 1.036-.73832.039-.34609.092-.86906.139-1.39204.053-.64603.092-1.29205.107-1.65352.023-.59989-.322-.78447-.76-.8383-.269-.03077-.607-.06153-.968-.09229-1.19-.09229-2.725-.18458-3.739-.21534h-.023c-.246-.02308-.361-.17689-.346-.3384.016-.16151.154-.32301.4-.31532.959.03845 2.288.12305 3.455.21534.53.04614 1.029.0846 1.428.13074.991.10767 1.367.69987 1.313 1.40742-.038.5076-.092 1.30744-.153 2.0996-.031.40761-.062.80753-.108 1.17669-.092.87675-.76 1.26125-1.72 1.23825z"/><path d="m254.081 10.0135c.145.0154.23.1615.215.2999-.016.1154-.077.2077-.208.2538-1.512.5538-4.691 1.0614-4.991 1.0229-.199-.0231-.315-.2153-.292-.3845.016-.1385.116-.2461.308-.2615.215-.0154.43-.0231.66-.0462.077-.7844.2-1.83038.322-2.90709.169-1.46895.346-2.99173.469-3.94539.1-.87676.476-.94597 1.858-.78447 1.152.13075 1.743.21535 1.635 1.15363-.13 1.21515-.307 2.73793-.468 4.13766l-.192 1.66126s.622-.1923.684-.1846zm-3.425-1.47665c-.1.85368-.177 1.66125-.253 2.27645.813-.1153 1.635-.2845 2.357-.4537.054-.44609.123-.97676.192-1.56126l-2.296-.26918zm2.572-2.0919-2.296-.26918-.215 1.83042 2.296.26918zm.062-.53836c.061-.53066.107-1.03056.146-1.45356.046-.48452-.162-.54605-.968-.63834-.998-.11536-1.236-.14612-1.298.38454-.061.39224-.115.89214-.176 1.43819zm3.8.46914-.053.34609c-.446 2.83022-1.475 5.26818-4.162 6.49878-.077.0384-.154.0461-.23.0384-.2-.0231-.338-.1999-.323-.3768.015-.1.069-.1923.207-.2538 2.603-1.1921 3.448-3.47628 3.863-5.9758.015-.11536.038-.23072.053-.35377-.629-.07691-1.274-.13844-1.72-.18458-.184-.02308-.253-.1692-.238-.31533.016-.14612.131-.28456.315-.26148.484.05383 1.091.11536 1.72.18458.062-.40762.115-.86138.162-1.29975.038-.32302.076-.63065.092-.91521v-.01538c.023-.17689.184-.24611.338-.22304.176.02308.345.13844.322.3384-.031.28456-.054.5845-.092.89214-.046.42299-.115.86137-.177 1.29974.507.06153.991.13075 1.398.17689.691.07691 1.121.56912 1.052 1.29206-.031.24611-.046.4999-.077.76908-.453 3.88385-1.259 5.69885-3.141 5.47585-.322-.0384-.66-.1307-1.021-.2845-.153-.0693-.215-.2231-.192-.3769.023-.1769.154-.3307.353-.3076.039 0 .085.023.131.0384.269.1308.537.2231.799.2538.767.0923 1.85-.1 2.395-4.81443.031-.26149.046-.5076.069-.73063.039-.46145-.215-.73063-.637-.77677l-1.221-.13844z"/><path d="m266.873 13.6204c-.346-1.0229-.338-2.0073-.192-2.9533.161-1.04592.499-2.0688.737-3.06092.177-.71524.315-1.10747.422-1.64583.046-.23073.223-.30763.384-.28456.169.03076.323.17689.292.37685-.054.34609-.307 1.26129-.461 1.74581-.284.95367-.599 1.92271-.744 2.83025-.016.0769-.208 1.3074.015 1.3382.046.0077.107-.0462.177-.1615l.683-1.0767c.1-.1385.207-.1846.307-.1692.146.023.261.1692.238.3307 0 .0384-.015.0846-.046.1153-.561.8691-.944 1.6305-1.06 2.215-.007.0615-.015.1846-.03.2999-.054.3538-.315.3769-.43.3615-.123-.0154-.223-.1-.284-.2615zm6.772-5.01441c.446-.01538.837-.06153 1.16-.09229h.115c.192.03076.307.21534.284.36916-.046.28456-.223.31532-1.651.34609-.069.43068-.115.83825-.192 1.46895-.015.1615-.038.3076-.061.4538-.346 2.1995-1.29 3.6839-3.21 4.6452-.107.0615-.223.0692-.307.0538-.2-.0307-.322-.1922-.299-.346.015-.1.084-.2.245-.2615 1.812-.8153 2.611-2.2996 2.933-4.3684.031-.2.062-.3846.215-1.61509-.606 0-1.205-.02307-1.743-.10767-.898-.13844-1.021-.28456-.982-.55374.023-.16151.168-.29994.407-.26149.038 0 .069.01538.122.03077.2.06921.446.13074.715.17688.476.07691 1.028.09998 1.574.09229l.084-.53835c.123-.78447.092-1.06134.138-1.53048v-.03845c.046-.26149.238-.3384.423-.31532.368.06152.391.29994.284 1.03057-.039.2461-.092.51528-.146.83829l-.085.53836z"/></g></g></svg>